<svg xmlns="http://www.w3.org/2000/svg" width="120" height="35" viewBox="0 0 120 35">
    <g fill="none" fill-rule="nonzero">
        <path fill="#000" d="M116.118 0H3.881C1.738 0 0 1.76 0 3.932v27.136C0 33.238 1.738 35 3.881 35H116.12c2.143 0 3.881-1.761 3.881-3.932V3.932C120 1.76 118.262 0 116.118 0z"/>
        <path fill="#FFF" d="M23.017 8.386c1.431-1.752 1.133-3.572 1.133-3.572s-2.002.008-3.442 1.945c-1.28 1.72-.954 3.193-.954 3.193s1.736.306 3.262-1.566h.002zm2.748 8.273c0-3 2.371-4.235 2.371-4.235s-1.213-2.235-4.293-2.235c-1.79 0-3.165 1.038-3.906 1.038-.862 0-2.15-.977-3.81-.977-2.554 0-5.277 2.333-5.277 6.779 0 4.517 3.216 10.137 5.763 10.137.888 0 2.253-.913 3.627-.913 1.35 0 2.345.88 3.627.88 2.788 0 4.852-5.924 4.852-5.924s-2.953-1.167-2.953-4.55h-.001z"/>
        <g fill="#FFF">
            <path d="M39.639 5.843c.398-.248.94-.454 1.661-.454 1.136 0 1.848.582 1.848 1.447 0 .719-.492 1.224-1.16 1.388v.016c.754.085 1.364.6 1.364 1.395 0 1.25-1.17 1.714-2.23 1.714-.56 0-1.152-.12-1.62-.394l.248-.814c.279.154.83.35 1.33.35.746 0 1.17-.36 1.17-.907 0-.736-.73-.924-1.358-.924h-.448v-.788h.45c.66 0 1.17-.352 1.17-.874 0-.47-.365-.753-.941-.753-.44 0-.908.18-1.229.352l-.255-.755zm7.269 5.41l-.067-.462h-.026c-.255.325-.687.556-1.221.556-.831 0-1.297-.607-1.297-1.241 0-1.054.925-1.585 2.45-1.576v-.068c0-.274-.11-.728-.84-.728-.406 0-.83.128-1.11.308l-.202-.685c.305-.19.839-.37 1.491-.37 1.322 0 1.703.848 1.703 1.756v1.507c0 .375.018.745.06 1.002h-.941v.001zm-.135-2.037c-.737-.017-1.44.146-1.44.78 0 .41.263.599.593.599.415 0 .72-.274.813-.574a.776.776 0 0 0 .033-.23v-.574l.001-.001zm5.175-2.132v.83h-1.686v3.339H49.22v-4.17h2.728zm.972 1.387c0-.548-.016-.993-.033-1.386h.915l.051.642h.017c.306-.471.788-.737 1.416-.737.949 0 1.737.823 1.737 2.124 0 1.508-.941 2.235-1.881 2.235-.518 0-.95-.223-1.161-.557h-.018v2.157h-1.04v-4.48l-.003.002zm1.043 1.035c0 .105.009.198.034.292a.944.944 0 0 0 .915.735c.662 0 1.052-.555 1.052-1.377 0-.736-.357-1.335-1.026-1.335a.972.972 0 0 0-.931.779.958.958 0 0 0-.043.265v.641h-.001zm4.777-2.422l.746 2.235c.084.256.169.573.228.812h.025c.068-.24.144-.547.22-.822l.644-2.226h1.119l-1.035 2.843c-.567 1.558-.949 2.252-1.44 2.68-.406.368-.83.505-1.093.54l-.237-.893a1.76 1.76 0 0 0 .61-.29c.195-.127.425-.376.569-.658a.43.43 0 0 0 .067-.19.433.433 0 0 0-.06-.204l-1.507-3.827h1.144zm4.354 1.687h.5c.57 0 .9-.231.9-.53 0-.3-.28-.506-.746-.506-.348 0-.73.12-1.018.3l-.221-.626c.448-.282 1.009-.41 1.543-.41.695 0 1.542.273 1.542 1.103 0 .54-.475.84-.907.943v.018c.55.06 1.093.394 1.093 1.01 0 .967-1.077 1.267-1.924 1.267-.543 0-1.085-.136-1.493-.376l.239-.668c.288.154.729.282 1.144.282.576 0 .889-.24.889-.565 0-.437-.448-.574-1.033-.574h-.508V8.77zm4.854-1.687v1.498c0 .659-.026 1.105-.06 1.686h.025c.22-.487.348-.795.559-1.232l1.017-1.951h1.264v4.17h-.992v-1.49c0-.668.025-.976.067-1.763h-.034c-.202.495-.339.795-.543 1.198-.322.617-.694 1.369-1.05 2.055h-1.246v-4.17h.992v-.001zm7.277 0v.814h-1.237v3.356h-1.044V7.898h-1.238v-.814H75.225zm1.583 2.381c.024.752.61 1.079 1.27 1.079.483 0 .83-.07 1.145-.19l.151.728a3.853 3.853 0 0 1-1.44.256c-1.34 0-2.128-.829-2.128-2.105 0-1.156.696-2.243 2.018-2.243 1.339 0 1.779 1.111 1.779 2.028 0 .197-.017.353-.033.446h-2.763v.001zm1.812-.737c.008-.386-.161-1.02-.856-1.02-.644 0-.915.592-.957 1.02h1.813zm4.242-1.593c.306-.051.932-.103 1.5-.103.696 0 1.95.095 1.95 1.053 0 .531-.407.831-.847.925v.018c.61.094 1.033.435 1.033 1.018 0 1.148-1.49 1.259-2.322 1.259-.517 0-1.068-.034-1.314-.06v-4.11zm1.008 3.485c.17.018.297.026.508.026.475 0 1.052-.128 1.052-.617 0-.471-.458-.625-1.11-.625h-.45v1.216zm.01-1.85h.43c.535 0 .976-.153.976-.547 0-.334-.29-.514-.908-.514-.202 0-.337.017-.5.033V8.77h.001zM46.072 26.044h-1.946l-1.066-3.418h-3.708l-1.016 3.418H36.44l3.673-11.636h2.27l3.69 11.636zm-3.334-4.853l-.965-3.037c-.1-.31-.292-1.041-.575-2.192h-.033a84.55 84.55 0 0 1-.542 2.192l-.948 3.037h3.063zm12.782.555c0 1.427-.379 2.554-1.135 3.382-.677.737-1.517 1.105-2.522 1.105-1.084 0-1.862-.397-2.336-1.19h-.035v4.42h-1.828v-9.048c0-.897-.023-1.817-.068-2.761h1.608l.102 1.33h.035c.61-1.002 1.534-1.502 2.776-1.502.97 0 1.78.39 2.428 1.173.65.784.975 1.815.975 3.091zm-1.863.067c0-.816-.18-1.489-.541-2.019-.395-.553-.926-.829-1.59-.829-.452 0-.863.154-1.228.458a2.125 2.125 0 0 0-.72 1.2c-.055.232-.084.42-.084.57v1.398c0 .611.185 1.126.551 1.546.368.42.844.63 1.43.63.689 0 1.225-.27 1.609-.81.382-.542.575-1.256.575-2.143l-.002-.001zm11.325-.067c0 1.427-.378 2.554-1.134 3.382-.677.737-1.518 1.105-2.522 1.105-1.084 0-1.862-.397-2.335-1.19h-.035v4.42h-1.828v-9.048c0-.897-.023-1.817-.068-2.761h1.607l.102 1.33h.034c.609-1.002 1.534-1.502 2.777-1.502.97 0 1.78.39 2.43 1.173.647.784.971 1.815.971 3.091h.001zm-1.861.067c0-.816-.18-1.489-.542-2.019-.396-.553-.924-.829-1.59-.829-.453 0-.861.154-1.229.458a2.125 2.125 0 0 0-.72 1.2c-.055.232-.084.42-.084.57v1.398c0 .611.183 1.126.547 1.546.368.42.845.63 1.433.63.69 0 1.225-.27 1.608-.81.384-.542.578-1.256.578-2.143l-.001-.001zm12.442.968c0 .99-.338 1.795-1.013 2.417-.744.68-1.779 1.02-3.109 1.02-1.228 0-2.212-.242-2.957-.726l.424-1.554a4.936 4.936 0 0 0 2.642.742c.689 0 1.224-.159 1.61-.475.382-.317.574-.743.574-1.271 0-.473-.157-.87-.474-1.193-.315-.322-.84-.623-1.575-.9-1.997-.76-2.995-1.873-2.995-3.337 0-.957.35-1.742 1.05-2.352.698-.611 1.63-.916 2.793-.916 1.04 0 1.902.184 2.59.553l-.457 1.519c-.642-.356-1.37-.535-2.183-.535-.643 0-1.145.162-1.506.483a1.393 1.393 0 0 0-.457 1.054c0 .46.174.84.523 1.14.305.275.858.575 1.66.897.982.403 1.703.875 2.167 1.415.463.54.693 1.213.693 2.017v.002zm6.044-3.729h-2.015v4.074c0 1.037.355 1.554 1.065 1.554.328 0 .599-.03.813-.087l.051 1.416c-.36.137-.834.206-1.422.206-.722 0-1.287-.224-1.693-.672-.405-.45-.61-1.203-.61-2.262V19.05h-1.201v-1.398h1.2v-1.537l1.796-.552v2.089h2.015v1.4h.002zm9.09 2.728c0 1.29-.361 2.348-1.083 3.176-.758.853-1.763 1.278-3.015 1.278-1.206 0-2.168-.41-2.885-1.226-.718-.817-1.076-1.847-1.076-3.09 0-1.3.369-2.365 1.108-3.193.74-.829 1.736-1.242 2.988-1.242 1.207 0 2.179.408 2.912 1.226.7.793 1.05 1.816 1.05 3.071h.002zm-1.896.06c0-.772-.162-1.437-.49-1.991-.383-.67-.932-1.004-1.641-1.004-.735 0-1.293.336-1.676 1.004-.329.555-.49 1.228-.49 2.025 0 .774.163 1.438.49 1.99.396.67.948 1.003 1.66 1.003.698 0 1.245-.34 1.641-1.021.338-.563.507-1.234.507-2.007v.001zm7.839-2.547a3.132 3.132 0 0 0-.576-.052c-.643 0-1.14.247-1.49.744-.305.436-.458.99-.458 1.657v4.401h-1.827l.017-5.748c0-.967-.022-1.848-.069-2.642h1.592l.068 1.606h.05c.194-.552.498-.996.915-1.33.405-.3.846-.45 1.32-.45.17 0 .323.013.458.035v1.779zm8.175 2.16c0 .333-.023.614-.068.845h-5.484c.023.828.287 1.462.797 1.9.462.39 1.06.587 1.792.587.813 0 1.554-.133 2.22-.398l.285 1.294c-.778.347-1.696.52-2.757.52-1.275 0-2.277-.383-3.006-1.148-.727-.765-1.091-1.793-1.091-3.082 0-1.265.337-2.32 1.016-3.16.71-.896 1.67-1.345 2.877-1.345 1.185 0 2.084.449 2.693 1.346.484.712.727 1.593.727 2.64h-.001zm-1.743-.484c.01-.553-.108-1.03-.356-1.433-.316-.52-.802-.778-1.457-.778-.597 0-1.084.253-1.455.76-.305.403-.485.886-.541 1.45h3.808v.001z"/>
        </g>
    </g>
</svg>
