<svg xmlns="http://www.w3.org/2000/svg" width="24" height="24" viewBox="0 0 24 24">
    <g fill="none" fill-rule="evenodd">
        <path d="M0 0h24v24H0z"/>
        <g stroke="#000" stroke-linecap="round" stroke-width="1.3">
            <path stroke-linejoin="round" d="M2 20.076h2.74s1.62-4.956 1.825-7.304C5.842 12.087 2 11.859 2 11.859v8.217zM16.609 17.794l3.498-.875A2.545 2.545 0 0 1 23 18.25l-5.022 2.283c-3.804 1.56-4.123 1.598-5.935.913l-6.847-2.283"/>
            <path stroke-linejoin="round" d="M6.565 13.685l8.218 1.826c1.22.305 1.826.881 1.826 2.138v.145l-1.23.306a2.733 2.733 0 0 1-1.2.03l-3.962-.793"/>
            <path d="M8.391 3.641L13.855 1l5.493 2.641-.015 7.402-5.478 2.642-5.478-2.642z"/>
            <path stroke-linejoin="round" d="M8.377 3.74l5.478 2.739M13.855 6.479l5.479-2.74M13.855 6.479v7.206M16.594 8.305V5.109l-5.021-2.74"/>
        </g>
    </g>
</svg>
