<svg width="13" height="23" data-name="Layer 1" xmlns="http://www.w3.org/2000/svg" viewBox="0 0 11.4237 22.9997">
  <title>
    facebook
  </title>
  <path d="M.365 12.25h2.48v10.38a.368.368 0 0 0 .364.37H7.41a.368.368 0 0 0 .364-.37V12.297h2.85a.367.367 0 0 0 .363-.328l.432-3.82a.374.374 0 0 0-.09-.29.362.362 0 0 0-.273-.124H7.776V5.34a.987.987 0 0 1 1.136-1.088h2.146a.368.368 0 0 0 .364-.37V.37a.368.368 0 0 0-.365-.37H8.1C8.08.002 8.035 0 7.967 0A5.61 5.61 0 0 0 4.26 1.42a3.995 3.995 0 0 0-1.293 3.514v2.8H.365A.368.368 0 0 0 0 8.107v3.772a.368.368 0 0 0 .365.372z"/>
</svg>