<svg xmlns="http://www.w3.org/2000/svg" width="16" height="16" viewBox="0 0 16 16">
    <g fill="none" fill-rule="evenodd">
        <path d="M0 0h16v16H0z"/>
        <path fill="#000" d="M13.984 3.508a1.284 1.284 0 0 1-.359.664L9.75 8.25v6.14c0 .261-.12.438-.36.532a.743.743 0 0 1-.203.031.524.524 0 0 1-.406-.172l-1.953-2.015a.506.506 0 0 1-.172-.391V8.281l-4.265-4.11a1.338 1.338 0 0 1-.274-1.413c.1-.245.258-.438.477-.578.219-.14.458-.211.719-.211h9.406c.26 0 .5.07.719.21.218.141.377.334.476.579.099.245.122.495.07.75zm-1.156-.133a.156.156 0 0 0 .04-.18.146.146 0 0 0-.15-.101H3.314a.16.16 0 0 0-.157.101c-.031.068-.02.128.031.18l4.438 4.281a.53.53 0 0 1 .156.39v4.095l.844.906V8.016a.53.53 0 0 1 .156-.391l4.047-4.25z"/>
    </g>
</svg>
