<svg width="23" height="24" data-name="Layer 1" xmlns="http://www.w3.org/2000/svg" viewBox="0 0 22.6398 22.9997">
  <title>
    insta
  </title>
  <path d="M2.907 0h16.827a2.937 2.937 0 0 1 2.906 2.953V20.05A2.936 2.936 0 0 1 19.734 23H2.907A2.937 2.937 0 0 1 0 20.05V2.952A2.938 2.938 0 0 1 2.907 0zm13.586 2.554a1.03 1.03 0 0 0-1.02 1.038V6.07a1.03 1.03 0 0 0 1.02 1.035h2.558a1.03 1.03 0 0 0 1.02-1.036V3.59a1.032 1.032 0 0 0-1.02-1.037h-2.557zm3.587 7.172h-1.992a6.827 6.827 0 0 1 .292 1.976 7.04 7.04 0 0 1-14.076 0 6.855 6.855 0 0 1 .29-1.976H2.518v9.717a.908.908 0 0 0 .9.913H19.18a.907.907 0 0 0 .898-.913V9.726zm-8.74-2.752a4.477 4.477 0 1 0 4.55 4.478 4.512 4.512 0 0 0-4.55-4.478z"/>
</svg>