<svg xmlns="http://www.w3.org/2000/svg" xmlns:xlink="http://www.w3.org/1999/xlink" width="36" height="51" viewBox="0 0 36 51">
    <defs>
        <path id="a" d="M18 2c8.658 0 16 5.729 16 16.439 0 2.297-.55 4.933-1.65 7.908-.953 2.524-2.272 5.254-3.958 8.191a108.29 108.29 0 0 1-4.784 7.288 87.701 87.701 0 0 1-3.959 5.197L18 49l-1.65-1.977a87.701 87.701 0 0 1-3.958-5.197 108.29 108.29 0 0 1-4.784-7.288c-1.686-2.937-3.005-5.667-3.959-8.19C2.55 23.371 2 20.735 2 18.437 2 7.789 9.342 2 18 2z"/>
    </defs>
    <g fill="none" fill-rule="evenodd">
        <g>
            <use fill="#FF6174" xlink:href="#a"/>
        </g>
        <path fill="#FFF" d="M21.01 11l-4.624 4.395h-1.719V11H11v11.96h3.667v-4.592h1.62l4.295 4.593h5.077l-6.135-6.113L26 11z"/>
    </g>
</svg>
