<svg xmlns="http://www.w3.org/2000/svg" viewBox="0 0 90.56 16">
  <g data-name="Слой 2">
    <path d="M0 .01h4.9v5.87h2.3L13.39.01h6.67L11.4 7.83 19.6 16h-6.79L7.07 9.86H4.9V16H0V.01M31.07 0h6.37l8.76 16h-5.44l-1.52-2.82h-9.91L27.9 16h-5.46zm.09 9.69h6.26l-3.17-6zM49.33 0h14.8c3.78 0 4.79 1.88 4.79 4.75v1c0 2.14-.49 3.4-2.74 3.93 1.46.26 2.67.91 2.67 3.53V16H64v-1.93c0-1.68-.49-2.23-2-2.23h-7.76V16h-4.9zm4.9 7.86h8.11c1.33 0 1.81-.53 1.81-1.68v-.52C64.16 4.24 63.45 4 61.9 4h-7.66zM72.77 0h17.5v3.71H77.68v2.71h11.93v3.02H77.68v2.71h12.88v3.84H72.77V0"/>
  </g>
</svg>