<svg width="40" height="31" viewBox="0 0 40 31" xmlns="http://www.w3.org/2000/svg">
  <title>
    27F418E9-CF6C-45C3-93DE-88C0A8CC8E24
  </title>
  <path d="M19.786 2.633c-.158.125-.312.253-.463.385-2.577 2.254-4.208 5.573-4.208 9.277 0 3.703 1.63 7.022 4.208 9.276.15.133.305.26.463.386.157-.125.312-.253.463-.385 2.576-2.253 4.206-5.572 4.206-9.275 0-3.704-1.63-7.023-4.207-9.277-.152-.132-.307-.26-.464-.385zM27.343 0c-2.503 0-4.83.757-6.77 2.055.1.082.2.162.296.246 2.88 2.52 4.532 6.163 4.532 9.995 0 3.83-1.65 7.473-4.532 9.993-.096.084-.197.165-.296.246 1.938 1.298 4.266 2.055 6.77 2.055 6.753 0 12.228-5.505 12.228-12.295S34.097 0 27.342 0zm-8.64 22.288c.095.084.196.164.295.246-1.938 1.298-4.266 2.055-6.77 2.055C5.475 24.59 0 19.084 0 12.294S5.475 0 12.228 0c2.504 0 4.832.757 6.77 2.055-.1.082-.2.162-.296.246-2.88 2.52-4.533 6.163-4.533 9.995 0 3.83 1.652 7.473 4.532 9.993zm20.486-2.375v-.477h-.125l-.143.328-.142-.328h-.124v.477h.087v-.36l.134.31h.09l.134-.31v.36h.09zm-.786 0v-.396h.16v-.08h-.406v.08h.16v.396h.086zm.382 10.615v.08h.073c.016 0 .03-.004.04-.01.01-.007.015-.017.015-.03 0-.014-.005-.024-.015-.03-.01-.007-.024-.01-.04-.01h-.074zm.074-.057c.04 0 .068.01.09.027.02.017.03.04.03.07 0 .025-.008.046-.024.062-.017.015-.04.025-.07.03l.097.112h-.077l-.09-.113h-.03v.112h-.064v-.3h.138zm-.02.406c.036 0 .07-.007.1-.02.03-.013.055-.03.078-.054.023-.023.04-.05.053-.08.014-.03.02-.064.02-.1 0-.034-.006-.067-.02-.098-.012-.03-.03-.057-.052-.08-.023-.023-.05-.04-.08-.054-.03-.013-.062-.02-.097-.02-.034 0-.067.007-.098.02-.03.013-.057.03-.08.054-.023.023-.04.05-.054.08-.012.03-.02.064-.02.1 0 .034.008.067.02.097.013.032.03.06.054.082.023.023.05.04.08.054.03.013.064.02.1.02zm0-.578c.047 0 .09.01.13.026.04.017.074.04.103.07.03.03.054.064.07.103.018.04.027.08.027.126 0 .045-.01.086-.026.125-.017.04-.04.074-.07.104-.03.03-.065.052-.105.07-.04.017-.083.025-.13.025-.045 0-.088-.008-.13-.025-.04-.018-.074-.04-.104-.07-.03-.03-.052-.064-.07-.104-.017-.04-.025-.08-.025-.125s.01-.087.026-.126c.018-.04.04-.074.07-.103.03-.03.065-.053.105-.07.042-.017.085-.026.13-.026zm-30.29-1.16c0-.572.374-1.043.985-1.043.585 0 .98.45.98 1.044 0 .593-.395 1.044-.98 1.044-.61 0-.984-.47-.984-1.045zm2.63 0v-1.63h-.707v.395c-.224-.293-.564-.478-1.026-.478-.91 0-1.623.717-1.623 1.714 0 .996.713 1.714 1.623 1.714.462 0 .802-.185 1.026-.478v.396h.706V29.14zm23.855 0c0-.572.374-1.043.985-1.043.584 0 .978.45.978 1.044 0 .593-.394 1.044-.978 1.044-.61 0-.985-.47-.985-1.045zm2.63 0v-2.942h-.708v1.707c-.224-.293-.564-.478-1.025-.478-.91 0-1.624.717-1.624 1.714 0 .996.713 1.714 1.624 1.714.46 0 .8-.185 1.025-.478v.396h.707V29.14zM19.94 28.06c.455 0 .747.287.822.792H19.08c.074-.47.36-.792.862-.792zm.013-.635c-.95 0-1.616.697-1.616 1.714 0 1.037.69 1.714 1.663 1.714.49 0 .937-.124 1.33-.458l-.345-.526c-.272.22-.618.342-.944.342-.455 0-.87-.212-.972-.8h2.412c.007-.088.013-.177.013-.273-.006-1.018-.63-1.715-1.542-1.715zm8.525 1.714c0-.574.374-1.045.985-1.045.584 0 .978.45.978 1.044 0 .593-.394 1.044-.978 1.044-.61 0-.985-.47-.985-1.045zm2.63 0v-1.633h-.707v.396c-.225-.293-.564-.478-1.026-.478-.91 0-1.624.717-1.624 1.714 0 .996.714 1.714 1.624 1.714.462 0 .8-.185 1.026-.478v.396h.706V29.14zm-6.617 0c0 .99.686 1.714 1.732 1.714.49 0 .815-.11 1.168-.39l-.34-.573c-.264.192-.543.294-.848.294-.564-.007-.978-.416-.978-1.045 0-.63.414-1.04.978-1.045.305 0 .584.102.85.293l.338-.573c-.353-.28-.68-.39-1.168-.39-1.046 0-1.732.724-1.732 1.714zm9.102-1.715c-.407 0-.672.19-.856.478v-.396h-.7v3.265h.706v-1.83c0-.54.23-.84.693-.84.142 0 .29.02.44.08l.218-.668c-.157-.062-.36-.09-.503-.09zm-18.924.342c-.34-.226-.808-.342-1.324-.342-.822 0-1.352.396-1.352 1.045 0 .533.394.86 1.12.963l.334.048c.387.055.57.158.57.342 0 .253-.258.396-.74.396-.49 0-.842-.157-1.08-.34l-.333.552c.388.287.877.424 1.407.424.937 0 1.48-.444 1.48-1.066 0-.574-.428-.874-1.134-.977l-.333-.046c-.306-.04-.55-.103-.55-.32 0-.24.23-.384.618-.384.414 0 .815.157 1.012.28l.306-.573zm9.11-.342c-.408 0-.673.19-.856.478v-.396h-.7v3.265h.707v-1.83c0-.54.232-.84.694-.84.142 0 .292.02.44.08l.218-.668c-.156-.062-.36-.09-.502-.09zm-6.025.082H16.6v-.99h-.713v.99h-.66v.65h.66v1.488c0 .758.292 1.21 1.127 1.21.306 0 .66-.097.883-.254l-.204-.607c-.21.123-.44.184-.625.184-.353 0-.468-.218-.468-.546v-1.474h1.155v-.65zM7.2 30.772v-2.05c0-.77-.49-1.29-1.278-1.297-.414-.007-.842.123-1.14.58-.226-.36-.58-.58-1.074-.58-.347 0-.687.103-.952.485v-.403H2.05v3.265h.713v-1.81c0-.567.313-.867.795-.867.47 0 .706.307.706.86v1.817h.714v-1.81c0-.567.326-.867.794-.867.483 0 .713.307.713.86v1.817H7.2z" fill-rule="evenodd"/>
</svg>