<svg width="59" height="18" viewBox="0 0 59 18" xmlns="http://www.w3.org/2000/svg">
  <title>
    A4EDD444-352E-49AE-A843-BDA9DCF9820D
  </title>
  <path d="M23.04 0h4.794l-3 16.863H20.04L23.04 0zm-1.494 0l-7.55 16.83-5.078.005-4.293-14.06c3.09 1.894 5.715 4.894 6.64 6.99l.502 1.737L16.465 0h5.08zM0 .34L.06 0h7.437c1 .034 1.807.34 2.09 1.367l1.615 7.45C9.612 4.923 5.787 1.677 0 .34zm41.442 11.3c-.035 3.503-3.305 5.765-8.346 5.765-2.15-.022-4.22-.427-5.346-.9l.673-3.774.62.273c1.58.63 2.596.882 4.517.882 1.38 0 2.855-.52 2.866-1.65.006-.74-.62-1.264-2.487-2.09-1.818-.808-4.228-2.158-4.197-4.58C29.766 2.284 33.108 0 37.847 0c1.856 0 3.343.363 4.295.71l-.65 3.653-.435-.197c-.88-.34-2.016-.67-3.59-.645-1.872 0-2.745.75-2.745 1.454-.006.785 1.018 1.31 2.692 2.09 2.77 1.2 4.053 2.66 4.028 4.576zm7.89-.883c.398-.97 1.91-4.714 1.91-4.714-.024.045.39-.975.637-1.61l.325 1.454 1.108 4.87h-3.98zM54.962 0H51.26c-1.15 0-2.012.3-2.512 1.402l-7.124 15.45h5.034s.825-2.078 1.013-2.534c.548 0 5.444.01 6.143.01.138.59.578 2.523.578 2.523h4.45L54.964 0z" fill-rule="evenodd"/>
</svg>