<svg width="25" height="13" data-name="Layer 1" xmlns="http://www.w3.org/2000/svg" viewBox="0 0 22.6393 13.0152">
  <title>
    vk
  </title>
  <path d="M19.484 8.276A31.08 31.08 0 0 1 21.7 10.54a6.572 6.572 0 0 1 .796 1.165.836.836 0 0 1-.502 1.298L18.696 13a2.526 2.526 0 0 1-2.1-.865c-.456-.473-.88-.976-1.318-1.464a3.143 3.143 0 0 0-.594-.535.684.684 0 0 0-1.098.27 3.568 3.568 0 0 0-.347 1.564.88.88 0 0 1-1.05 1.03 8.325 8.325 0 0 1-4.72-1.03 10.494 10.494 0 0 1-3.176-3.02 40.86 40.86 0 0 1-4.18-7.567C-.15.786.044.466.69.455 1.768.433 2.844.435 3.92.453a.95.95 0 0 1 .896.68 20.45 20.45 0 0 0 2.19 4.12 3.5 3.5 0 0 0 .825.924.5.5 0 0 0 .855-.255 2.895 2.895 0 0 0 .19-.864 13.066 13.066 0 0 0-.053-3.03A1.255 1.255 0 0 0 7.764.875c-.316-.06-.27-.18-.116-.362A1.18 1.18 0 0 1 8.658 0h3.73a.9.9 0 0 1 .796.986l.003 4.206a1.236 1.236 0 0 0 .526 1.075.73.73 0 0 0 .745-.37 13.072 13.072 0 0 0 2.098-3.278c.253-.518.47-1.056.68-1.593A.8.8 0 0 1 18.08.44l3.586.004a1.896 1.896 0 0 1 .317.02.632.632 0 0 1 .584.968 9.14 9.14 0 0 1-1.426 2.513c-.598.84-1.238 1.653-1.83 2.5a1.15 1.15 0 0 0 .175 1.83z"/>
</svg>