<?xml version="1.0" encoding="UTF-8"?><!DOCTYPE svg PUBLIC "-//W3C//DTD SVG 1.1//EN" "http://www.w3.org/Graphics/SVG/1.1/DTD/svg11.dtd"><svg xmlns="http://www.w3.org/2000/svg" xmlns:xlink="http://www.w3.org/1999/xlink"><defs>
        <path id="a" d="M18 2c8.658 0 16 5.729 16 16.439 0 2.297-.55 4.933-1.65 7.908-.953 2.524-2.272 5.254-3.958 8.191a108.29 108.29 0 0 1-4.784 7.288 87.701 87.701 0 0 1-3.959 5.197L18 49l-1.65-1.977a87.701 87.701 0 0 1-3.958-5.197 108.29 108.29 0 0 1-4.784-7.288c-1.686-2.937-3.005-5.667-3.959-8.19C2.55 23.371 2 20.735 2 18.437 2 7.789 9.342 2 18 2z"/>
    
        <path id="a" d="M18 2c8.658 0 16 5.729 16 16.439 0 2.297-.55 4.933-1.65 7.908-.953 2.524-2.272 5.254-3.958 8.191a108.29 108.29 0 0 1-4.784 7.288 87.701 87.701 0 0 1-3.959 5.197L18 49l-1.65-1.977a87.701 87.701 0 0 1-3.958-5.197 108.29 108.29 0 0 1-4.784-7.288c-1.686-2.937-3.005-5.667-3.959-8.19C2.55 23.371 2 20.735 2 18.437 2 7.789 9.342 2 18 2zm0 18a4 4 0 1 0 0-8 4 4 0 0 0 0 8z"/>
    </defs><symbol id="appstore" viewBox="0 0 120 35">
    <g fill="none" fill-rule="nonzero">
        <path fill="#000" d="M116.118 0H3.881C1.738 0 0 1.76 0 3.932v27.136C0 33.238 1.738 35 3.881 35H116.12c2.143 0 3.881-1.761 3.881-3.932V3.932C120 1.76 118.262 0 116.118 0z"/>
        <path fill="#FFF" d="M23.017 8.386c1.431-1.752 1.133-3.572 1.133-3.572s-2.002.008-3.442 1.945c-1.28 1.72-.954 3.193-.954 3.193s1.736.306 3.262-1.566h.002zm2.748 8.273c0-3 2.371-4.235 2.371-4.235s-1.213-2.235-4.293-2.235c-1.79 0-3.165 1.038-3.906 1.038-.862 0-2.15-.977-3.81-.977-2.554 0-5.277 2.333-5.277 6.779 0 4.517 3.216 10.137 5.763 10.137.888 0 2.253-.913 3.627-.913 1.35 0 2.345.88 3.627.88 2.788 0 4.852-5.924 4.852-5.924s-2.953-1.167-2.953-4.55h-.001z"/>
        <g fill="#FFF">
            <path d="M39.639 5.843c.398-.248.94-.454 1.661-.454 1.136 0 1.848.582 1.848 1.447 0 .719-.492 1.224-1.16 1.388v.016c.754.085 1.364.6 1.364 1.395 0 1.25-1.17 1.714-2.23 1.714-.56 0-1.152-.12-1.62-.394l.248-.814c.279.154.83.35 1.33.35.746 0 1.17-.36 1.17-.907 0-.736-.73-.924-1.358-.924h-.448v-.788h.45c.66 0 1.17-.352 1.17-.874 0-.47-.365-.753-.941-.753-.44 0-.908.18-1.229.352l-.255-.755zm7.269 5.41l-.067-.462h-.026c-.255.325-.687.556-1.221.556-.831 0-1.297-.607-1.297-1.241 0-1.054.925-1.585 2.45-1.576v-.068c0-.274-.11-.728-.84-.728-.406 0-.83.128-1.11.308l-.202-.685c.305-.19.839-.37 1.491-.37 1.322 0 1.703.848 1.703 1.756v1.507c0 .375.018.745.06 1.002h-.941v.001zm-.135-2.037c-.737-.017-1.44.146-1.44.78 0 .41.263.599.593.599.415 0 .72-.274.813-.574a.776.776 0 0 0 .033-.23v-.574l.001-.001zm5.175-2.132v.83h-1.686v3.339H49.22v-4.17h2.728zm.972 1.387c0-.548-.016-.993-.033-1.386h.915l.051.642h.017c.306-.471.788-.737 1.416-.737.949 0 1.737.823 1.737 2.124 0 1.508-.941 2.235-1.881 2.235-.518 0-.95-.223-1.161-.557h-.018v2.157h-1.04v-4.48l-.003.002zm1.043 1.035c0 .105.009.198.034.292a.944.944 0 0 0 .915.735c.662 0 1.052-.555 1.052-1.377 0-.736-.357-1.335-1.026-1.335a.972.972 0 0 0-.931.779.958.958 0 0 0-.043.265v.641h-.001zm4.777-2.422l.746 2.235c.084.256.169.573.228.812h.025c.068-.24.144-.547.22-.822l.644-2.226h1.119l-1.035 2.843c-.567 1.558-.949 2.252-1.44 2.68-.406.368-.83.505-1.093.54l-.237-.893a1.76 1.76 0 0 0 .61-.29c.195-.127.425-.376.569-.658a.43.43 0 0 0 .067-.19.433.433 0 0 0-.06-.204l-1.507-3.827h1.144zm4.354 1.687h.5c.57 0 .9-.231.9-.53 0-.3-.28-.506-.746-.506-.348 0-.73.12-1.018.3l-.221-.626c.448-.282 1.009-.41 1.543-.41.695 0 1.542.273 1.542 1.103 0 .54-.475.84-.907.943v.018c.55.06 1.093.394 1.093 1.01 0 .967-1.077 1.267-1.924 1.267-.543 0-1.085-.136-1.493-.376l.239-.668c.288.154.729.282 1.144.282.576 0 .889-.24.889-.565 0-.437-.448-.574-1.033-.574h-.508V8.77zm4.854-1.687v1.498c0 .659-.026 1.105-.06 1.686h.025c.22-.487.348-.795.559-1.232l1.017-1.951h1.264v4.17h-.992v-1.49c0-.668.025-.976.067-1.763h-.034c-.202.495-.339.795-.543 1.198-.322.617-.694 1.369-1.05 2.055h-1.246v-4.17h.992v-.001zm7.277 0v.814h-1.237v3.356h-1.044V7.898h-1.238v-.814H75.225zm1.583 2.381c.024.752.61 1.079 1.27 1.079.483 0 .83-.07 1.145-.19l.151.728a3.853 3.853 0 0 1-1.44.256c-1.34 0-2.128-.829-2.128-2.105 0-1.156.696-2.243 2.018-2.243 1.339 0 1.779 1.111 1.779 2.028 0 .197-.017.353-.033.446h-2.763v.001zm1.812-.737c.008-.386-.161-1.02-.856-1.02-.644 0-.915.592-.957 1.02h1.813zm4.242-1.593c.306-.051.932-.103 1.5-.103.696 0 1.95.095 1.95 1.053 0 .531-.407.831-.847.925v.018c.61.094 1.033.435 1.033 1.018 0 1.148-1.49 1.259-2.322 1.259-.517 0-1.068-.034-1.314-.06v-4.11zm1.008 3.485c.17.018.297.026.508.026.475 0 1.052-.128 1.052-.617 0-.471-.458-.625-1.11-.625h-.45v1.216zm.01-1.85h.43c.535 0 .976-.153.976-.547 0-.334-.29-.514-.908-.514-.202 0-.337.017-.5.033V8.77h.001zM46.072 26.044h-1.946l-1.066-3.418h-3.708l-1.016 3.418H36.44l3.673-11.636h2.27l3.69 11.636zm-3.334-4.853l-.965-3.037c-.1-.31-.292-1.041-.575-2.192h-.033a84.55 84.55 0 0 1-.542 2.192l-.948 3.037h3.063zm12.782.555c0 1.427-.379 2.554-1.135 3.382-.677.737-1.517 1.105-2.522 1.105-1.084 0-1.862-.397-2.336-1.19h-.035v4.42h-1.828v-9.048c0-.897-.023-1.817-.068-2.761h1.608l.102 1.33h.035c.61-1.002 1.534-1.502 2.776-1.502.97 0 1.78.39 2.428 1.173.65.784.975 1.815.975 3.091zm-1.863.067c0-.816-.18-1.489-.541-2.019-.395-.553-.926-.829-1.59-.829-.452 0-.863.154-1.228.458a2.125 2.125 0 0 0-.72 1.2c-.055.232-.084.42-.084.57v1.398c0 .611.185 1.126.551 1.546.368.42.844.63 1.43.63.689 0 1.225-.27 1.609-.81.382-.542.575-1.256.575-2.143l-.002-.001zm11.325-.067c0 1.427-.378 2.554-1.134 3.382-.677.737-1.518 1.105-2.522 1.105-1.084 0-1.862-.397-2.335-1.19h-.035v4.42h-1.828v-9.048c0-.897-.023-1.817-.068-2.761h1.607l.102 1.33h.034c.609-1.002 1.534-1.502 2.777-1.502.97 0 1.78.39 2.43 1.173.647.784.971 1.815.971 3.091h.001zm-1.861.067c0-.816-.18-1.489-.542-2.019-.396-.553-.924-.829-1.59-.829-.453 0-.861.154-1.229.458a2.125 2.125 0 0 0-.72 1.2c-.055.232-.084.42-.084.57v1.398c0 .611.183 1.126.547 1.546.368.42.845.63 1.433.63.69 0 1.225-.27 1.608-.81.384-.542.578-1.256.578-2.143l-.001-.001zm12.442.968c0 .99-.338 1.795-1.013 2.417-.744.68-1.779 1.02-3.109 1.02-1.228 0-2.212-.242-2.957-.726l.424-1.554a4.936 4.936 0 0 0 2.642.742c.689 0 1.224-.159 1.61-.475.382-.317.574-.743.574-1.271 0-.473-.157-.87-.474-1.193-.315-.322-.84-.623-1.575-.9-1.997-.76-2.995-1.873-2.995-3.337 0-.957.35-1.742 1.05-2.352.698-.611 1.63-.916 2.793-.916 1.04 0 1.902.184 2.59.553l-.457 1.519c-.642-.356-1.37-.535-2.183-.535-.643 0-1.145.162-1.506.483a1.393 1.393 0 0 0-.457 1.054c0 .46.174.84.523 1.14.305.275.858.575 1.66.897.982.403 1.703.875 2.167 1.415.463.54.693 1.213.693 2.017v.002zm6.044-3.729h-2.015v4.074c0 1.037.355 1.554 1.065 1.554.328 0 .599-.03.813-.087l.051 1.416c-.36.137-.834.206-1.422.206-.722 0-1.287-.224-1.693-.672-.405-.45-.61-1.203-.61-2.262V19.05h-1.201v-1.398h1.2v-1.537l1.796-.552v2.089h2.015v1.4h.002zm9.09 2.728c0 1.29-.361 2.348-1.083 3.176-.758.853-1.763 1.278-3.015 1.278-1.206 0-2.168-.41-2.885-1.226-.718-.817-1.076-1.847-1.076-3.09 0-1.3.369-2.365 1.108-3.193.74-.829 1.736-1.242 2.988-1.242 1.207 0 2.179.408 2.912 1.226.7.793 1.05 1.816 1.05 3.071h.002zm-1.896.06c0-.772-.162-1.437-.49-1.991-.383-.67-.932-1.004-1.641-1.004-.735 0-1.293.336-1.676 1.004-.329.555-.49 1.228-.49 2.025 0 .774.163 1.438.49 1.99.396.67.948 1.003 1.66 1.003.698 0 1.245-.34 1.641-1.021.338-.563.507-1.234.507-2.007v.001zm7.839-2.547a3.132 3.132 0 0 0-.576-.052c-.643 0-1.14.247-1.49.744-.305.436-.458.99-.458 1.657v4.401h-1.827l.017-5.748c0-.967-.022-1.848-.069-2.642h1.592l.068 1.606h.05c.194-.552.498-.996.915-1.33.405-.3.846-.45 1.32-.45.17 0 .323.013.458.035v1.779zm8.175 2.16c0 .333-.023.614-.068.845h-5.484c.023.828.287 1.462.797 1.9.462.39 1.06.587 1.792.587.813 0 1.554-.133 2.22-.398l.285 1.294c-.778.347-1.696.52-2.757.52-1.275 0-2.277-.383-3.006-1.148-.727-.765-1.091-1.793-1.091-3.082 0-1.265.337-2.32 1.016-3.16.71-.896 1.67-1.345 2.877-1.345 1.185 0 2.084.449 2.693 1.346.484.712.727 1.593.727 2.64h-.001zm-1.743-.484c.01-.553-.108-1.03-.356-1.433-.316-.52-.802-.778-1.457-.778-.597 0-1.084.253-1.455.76-.305.403-.485.886-.541 1.45h3.808v.001z"/>
        </g>
    </g>
</symbol><symbol id="arrow-black">
  <path d="M0 0h100L50 50"/>
</symbol><symbol id="basket-black" viewBox="0 0 24 24">
  <g fill="none" fill-rule="evenodd">
    <path d="M0 0h24v24H0z"/>
    <path stroke="#000" stroke-width="1.4" d="M8.364 9.42V5.225C8.364 3.445 9.992 2 12 2s3.636 1.444 3.636 3.226V9.42m.728-1.936H20V22H4V7.484h12.364z"/>
  </g>
</symbol><symbol id="basket-red" viewBox="0 0 24 24">
    <g fill="none" fill-rule="evenodd">
        <path d="M0 0h24v24H0z"/>
        <path stroke="#FF6174" stroke-width="1.4" d="M8.364 9.42V5.225C8.364 3.444 9.992 2 12 2s3.636 1.444 3.636 3.226v4.193m.728-1.935H20V22H4V7.484h12.364z"/>
    </g>
</symbol><symbol id="check-circle-fill-primary" viewBox="0 0 32 32">
    <g fill="none" fill-rule="evenodd">
        <path d="M0 0h32v32H0z"/>
        <circle cx="16" cy="16" r="13" fill="#FF6174"/>
        <path stroke="#FFF" stroke-linejoin="bevel" stroke-width="1.5" d="M8.2 16.52l4.853 5.2 9.707-10.4"/>
    </g>
</symbol><symbol id="chevron-down-black" viewBox="0 0 16 16">
    <g fill="none" fill-rule="evenodd">
        <path d="M0 0h16v16H0z"/>
        <path stroke="#000" d="M4.095 5.905l3.81 3.81 3.81-3.81"/>
    </g>
</symbol><symbol id="chevron-left" viewBox="0 0 24 24">
    <g fill="none" fill-rule="evenodd">
        <path stroke-width="1.5" d="M17 2L7 12l10 10"/>
    </g>
</symbol><symbol id="chevron-right-black" viewBox="0 0 16 16">
    <g fill="none" fill-rule="evenodd">
        <path d="M0 0h16v16H0z"/>
        <path stroke="#000" d="M6 11.619l3.81-3.81L6 4"/>
    </g>
</symbol><symbol id="chevron-right-gray" viewBox="0 0 16 16">
    <g fill="none" fill-rule="evenodd">
        <path d="M0 0h16v16H0z"/>
        <path stroke="#000" d="M6 11.619l3.81-3.81L6 4"/>
    </g>
</symbol><symbol id="chevron-right" viewBox="0 0 24 24">
    <g fill="none" fill-rule="evenodd">
        <path stroke-width="1.5" d="M7 2l10 10L7 22"/>
    </g>
</symbol><symbol id="chevron-up-black" viewBox="0 0 16 16">
    <g fill="none" fill-rule="evenodd">
        <path d="M0 0h16v16H0z"/>
        <path stroke="#000" d="M4.095 9.714l3.81-3.81 3.81 3.81"/>
    </g>
</symbol><symbol id="close-black" viewBox="0 0 16 16">
    <g fill="none" fill-rule="evenodd">
        <path d="M0 0h16v16H0z"/>
        <path stroke="#000" stroke-width="1.3" d="M8 8L3 3.037 8 8l-4.962 5L8 8zm0 0l5 4.962L8 8l4.962-5L8 8z"/>
    </g>
</symbol><symbol id="close-circle-black" viewBox="0 0 24 24">
    <g fill="none" fill-rule="evenodd">
        <path d="M0 0h24v24H0z"/>
        <path stroke="#000" stroke-width="1.5" d="M12 21a9 9 0 1 0 0-18 9 9 0 0 0 0 18zM8.21 7.69l7.577 7.52m-7.548.028l7.52-7.577"/>
    </g>
</symbol><symbol id="delivery-black" viewBox="0 0 24 24">
    <g fill="none" fill-rule="evenodd">
        <path d="M0 0h24v24H0z"/>
        <g stroke="#000" stroke-linecap="round" stroke-width="1.3">
            <path stroke-linejoin="round" d="M2 20.076h2.74s1.62-4.956 1.825-7.304C5.842 12.087 2 11.859 2 11.859v8.217zM16.609 17.794l3.498-.875A2.545 2.545 0 0 1 23 18.25l-5.022 2.283c-3.804 1.56-4.123 1.598-5.935.913l-6.847-2.283"/>
            <path stroke-linejoin="round" d="M6.565 13.685l8.218 1.826c1.22.305 1.826.881 1.826 2.138v.145l-1.23.306a2.733 2.733 0 0 1-1.2.03l-3.962-.793"/>
            <path d="M8.391 3.641L13.855 1l5.493 2.641-.015 7.402-5.478 2.642-5.478-2.642z"/>
            <path stroke-linejoin="round" d="M8.377 3.74l5.478 2.739M13.855 6.479l5.479-2.74M13.855 6.479v7.206M16.594 8.305V5.109l-5.021-2.74"/>
        </g>
    </g>
</symbol><symbol id="download-black" viewBox="0 0 32 32">
    <g fill="none" fill-rule="evenodd">
        <path d="M0 0h32v32H0z"/>
        <path stroke="#000" stroke-width="1.5" d="M20.065 24.258h6.322c2.062 0 3.613-1.618 3.613-3.613 0-1.995-1.551-3.613-3.613-3.613 0-4.988-4.3-9.032-9.454-9.032-4.561 0-8.7 3.04-9.514 7.226h-.752C4.089 15.226 2 17.248 2 19.742s1.939 4.516 4.516 4.516h13.549m-.452-7.426L16 20.444l-3.613-3.612M16 20.444v-9.032"/>
    </g>
</symbol><symbol id="facebook" viewBox="0 0 11.4237 22.9997">
  <title>
    facebook
  </title>
  <path d="M.365 12.25h2.48v10.38a.368.368 0 0 0 .364.37H7.41a.368.368 0 0 0 .364-.37V12.297h2.85a.367.367 0 0 0 .363-.328l.432-3.82a.374.374 0 0 0-.09-.29.362.362 0 0 0-.273-.124H7.776V5.34a.987.987 0 0 1 1.136-1.088h2.146a.368.368 0 0 0 .364-.37V.37a.368.368 0 0 0-.365-.37H8.1C8.08.002 8.035 0 7.967 0A5.61 5.61 0 0 0 4.26 1.42a3.995 3.995 0 0 0-1.293 3.514v2.8H.365A.368.368 0 0 0 0 8.107v3.772a.368.368 0 0 0 .365.372z"/>
</symbol><symbol id="funnel-black" viewBox="0 0 16 16">
    <g fill="none" fill-rule="evenodd">
        <path d="M0 0h16v16H0z"/>
        <path fill="#000" d="M13.984 3.508a1.284 1.284 0 0 1-.359.664L9.75 8.25v6.14c0 .261-.12.438-.36.532a.743.743 0 0 1-.203.031.524.524 0 0 1-.406-.172l-1.953-2.015a.506.506 0 0 1-.172-.391V8.281l-4.265-4.11a1.338 1.338 0 0 1-.274-1.413c.1-.245.258-.438.477-.578.219-.14.458-.211.719-.211h9.406c.26 0 .5.07.719.21.218.141.377.334.476.579.099.245.122.495.07.75zm-1.156-.133a.156.156 0 0 0 .04-.18.146.146 0 0 0-.15-.101H3.314a.16.16 0 0 0-.157.101c-.031.068-.02.128.031.18l4.438 4.281a.53.53 0 0 1 .156.39v4.095l.844.906V8.016a.53.53 0 0 1 .156-.391l4.047-4.25z"/>
    </g>
</symbol><symbol id="help-black" viewBox="0 0 16 16">
    <g fill="none" fill-rule="evenodd">
        <path d="M0 0h16v16H0z"/>
        <path stroke="#000" d="M6.194 5.516c0-.677.451-1.129 1.806-1.129 1.129 0 1.806.678 1.806 1.58 0 .904-1.354 1.581-1.354 1.581S7.548 8 7.548 9.355v.226m5.402-6.53a6.999 6.999 0 0 1 0 9.898 6.999 6.999 0 0 1-9.9 0 6.999 6.999 0 0 1 0-9.898 6.999 6.999 0 0 1 9.9 0zm-5.402 7.433v.903"/>
    </g>
</symbol><symbol id="instagram" viewBox="0 0 22.6398 22.9997">
  <title>
    insta
  </title>
  <path d="M2.907 0h16.827a2.937 2.937 0 0 1 2.906 2.953V20.05A2.936 2.936 0 0 1 19.734 23H2.907A2.937 2.937 0 0 1 0 20.05V2.952A2.938 2.938 0 0 1 2.907 0zm13.586 2.554a1.03 1.03 0 0 0-1.02 1.038V6.07a1.03 1.03 0 0 0 1.02 1.035h2.558a1.03 1.03 0 0 0 1.02-1.036V3.59a1.032 1.032 0 0 0-1.02-1.037h-2.557zm3.587 7.172h-1.992a6.827 6.827 0 0 1 .292 1.976 7.04 7.04 0 0 1-14.076 0 6.855 6.855 0 0 1 .29-1.976H2.518v9.717a.908.908 0 0 0 .9.913H19.18a.907.907 0 0 0 .898-.913V9.726zm-8.74-2.752a4.477 4.477 0 1 0 4.55 4.478 4.512 4.512 0 0 0-4.55-4.478z"/>
</symbol><symbol id="k-pin-small" viewBox="0 0 24 24">
    <g fill="none" fill-rule="evenodd">
        <circle cx="12" cy="12" r="12" fill="#FF6174"/>
        <path fill="#FFF" d="M14.009 7l-3.7 3.516H8.934V7H6v9.568h2.934v-3.674h1.296l3.435 3.674h4.062l-4.908-4.89L18 7z"/>
    </g>
</symbol><symbol id="k-pin" viewBox="0 0 36 51">
    
    <g fill="none" fill-rule="evenodd">
        <g>
            <use fill="#FF6174" xlink:href="#a"/>
        </g>
        <path fill="#FFF" d="M21.01 11l-4.624 4.395h-1.719V11H11v11.96h3.667v-4.592h1.62l4.295 4.593h5.077l-6.135-6.113L26 11z"/>
    </g>
</symbol><symbol id="like-black" viewBox="0 0 24 24">
  <g fill="none" fill-rule="evenodd">
    <path d="M0 0h24v24H0z"/>
    <path stroke="#000" stroke-width="1.5" d="M2 8.333C2 15 12 21 12 21s10-6 10-12.667C22 5.573 20.065 3 17.16 3 14.49 3 12 4.905 12 7.667 12 4.905 9.51 3 6.84 3 3.934 3 2 5.572 2 8.333z"/>
  </g>
</symbol><symbol id="like-red" viewBox="0 0 24 24">
    <g fill="none" fill-rule="evenodd">
        <path d="M0 0h24v24H0z"/>
        <path stroke="#FF6174" stroke-width="1.5" d="M2 8.333C2 15 12 21 12 21s10-6 10-12.667C22 5.572 20.065 3 17.161 3 14.49 3 12 4.905 12 7.667 12 4.905 9.511 3 6.839 3 3.935 3 2 5.572 2 8.333z"/>
    </g>
</symbol><symbol id="location-black" viewBox="0 0 24 24">
  <g fill="none" fill-rule="evenodd">
    <path d="M0 0h24v24H0z"/>
    <path stroke="#000" stroke-width="1.5" d="M8.806 13.71H6.194L3 19.516h18l-3.194-5.806h-2.612M12 9.645a1.16 1.16 0 1 0 0-2.322 1.16 1.16 0 0 0 0 2.322zm3.774-.574C15.764 6.823 14.084 5 12 5 9.915 5 8.226 6.822 8.226 9.07c0 2.91 3.768 7.543 3.768 7.543s3.793-4.632 3.78-7.542z"/>
  </g>
</symbol><symbol id="location-red" viewBox="0 0 24 24">
    <g fill="none" fill-rule="evenodd">
        <path d="M0 0h24v24H0z"/>
        <path stroke="#FF6174" stroke-width="1.5" d="M8.806 13.71H6.194L3 19.516h18l-3.194-5.806h-2.612M12 9.645a1.161 1.161 0 1 0 0-2.322 1.161 1.161 0 0 0 0 2.322zm3.774-.574C15.764 6.822 14.084 5 12 5 9.915 5 8.226 6.822 8.226 9.071c0 2.91 3.768 7.542 3.768 7.542s3.793-4.632 3.78-7.542z"/>
    </g>
</symbol><symbol id="logo" viewBox="0 0 90.56 16">
  <g data-name="&#x421;&#x43B;&#x43E;&#x439; 2">
    <path d="M0 .01h4.9v5.87h2.3L13.39.01h6.67L11.4 7.83 19.6 16h-6.79L7.07 9.86H4.9V16H0V.01M31.07 0h6.37l8.76 16h-5.44l-1.52-2.82h-9.91L27.9 16h-5.46zm.09 9.69h6.26l-3.17-6zM49.33 0h14.8c3.78 0 4.79 1.88 4.79 4.75v1c0 2.14-.49 3.4-2.74 3.93 1.46.26 2.67.91 2.67 3.53V16H64v-1.93c0-1.68-.49-2.23-2-2.23h-7.76V16h-4.9zm4.9 7.86h8.11c1.33 0 1.81-.53 1.81-1.68v-.52C64.16 4.24 63.45 4 61.9 4h-7.66zM72.77 0h17.5v3.71H77.68v2.71h11.93v3.02H77.68v2.71h12.88v3.84H72.77V0"/>
  </g>
</symbol><symbol id="mc" viewBox="0 0 40 31">
  <title>
    27F418E9-CF6C-45C3-93DE-88C0A8CC8E24
  </title>
  <path d="M19.786 2.633c-.158.125-.312.253-.463.385-2.577 2.254-4.208 5.573-4.208 9.277 0 3.703 1.63 7.022 4.208 9.276.15.133.305.26.463.386.157-.125.312-.253.463-.385 2.576-2.253 4.206-5.572 4.206-9.275 0-3.704-1.63-7.023-4.207-9.277-.152-.132-.307-.26-.464-.385zM27.343 0c-2.503 0-4.83.757-6.77 2.055.1.082.2.162.296.246 2.88 2.52 4.532 6.163 4.532 9.995 0 3.83-1.65 7.473-4.532 9.993-.096.084-.197.165-.296.246 1.938 1.298 4.266 2.055 6.77 2.055 6.753 0 12.228-5.505 12.228-12.295S34.097 0 27.342 0zm-8.64 22.288c.095.084.196.164.295.246-1.938 1.298-4.266 2.055-6.77 2.055C5.475 24.59 0 19.084 0 12.294S5.475 0 12.228 0c2.504 0 4.832.757 6.77 2.055-.1.082-.2.162-.296.246-2.88 2.52-4.533 6.163-4.533 9.995 0 3.83 1.652 7.473 4.532 9.993zm20.486-2.375v-.477h-.125l-.143.328-.142-.328h-.124v.477h.087v-.36l.134.31h.09l.134-.31v.36h.09zm-.786 0v-.396h.16v-.08h-.406v.08h.16v.396h.086zm.382 10.615v.08h.073c.016 0 .03-.004.04-.01.01-.007.015-.017.015-.03 0-.014-.005-.024-.015-.03-.01-.007-.024-.01-.04-.01h-.074zm.074-.057c.04 0 .068.01.09.027.02.017.03.04.03.07 0 .025-.008.046-.024.062-.017.015-.04.025-.07.03l.097.112h-.077l-.09-.113h-.03v.112h-.064v-.3h.138zm-.02.406c.036 0 .07-.007.1-.02.03-.013.055-.03.078-.054.023-.023.04-.05.053-.08.014-.03.02-.064.02-.1 0-.034-.006-.067-.02-.098-.012-.03-.03-.057-.052-.08-.023-.023-.05-.04-.08-.054-.03-.013-.062-.02-.097-.02-.034 0-.067.007-.098.02-.03.013-.057.03-.08.054-.023.023-.04.05-.054.08-.012.03-.02.064-.02.1 0 .034.008.067.02.097.013.032.03.06.054.082.023.023.05.04.08.054.03.013.064.02.1.02zm0-.578c.047 0 .09.01.13.026.04.017.074.04.103.07.03.03.054.064.07.103.018.04.027.08.027.126 0 .045-.01.086-.026.125-.017.04-.04.074-.07.104-.03.03-.065.052-.105.07-.04.017-.083.025-.13.025-.045 0-.088-.008-.13-.025-.04-.018-.074-.04-.104-.07-.03-.03-.052-.064-.07-.104-.017-.04-.025-.08-.025-.125s.01-.087.026-.126c.018-.04.04-.074.07-.103.03-.03.065-.053.105-.07.042-.017.085-.026.13-.026zm-30.29-1.16c0-.572.374-1.043.985-1.043.585 0 .98.45.98 1.044 0 .593-.395 1.044-.98 1.044-.61 0-.984-.47-.984-1.045zm2.63 0v-1.63h-.707v.395c-.224-.293-.564-.478-1.026-.478-.91 0-1.623.717-1.623 1.714 0 .996.713 1.714 1.623 1.714.462 0 .802-.185 1.026-.478v.396h.706V29.14zm23.855 0c0-.572.374-1.043.985-1.043.584 0 .978.45.978 1.044 0 .593-.394 1.044-.978 1.044-.61 0-.985-.47-.985-1.045zm2.63 0v-2.942h-.708v1.707c-.224-.293-.564-.478-1.025-.478-.91 0-1.624.717-1.624 1.714 0 .996.713 1.714 1.624 1.714.46 0 .8-.185 1.025-.478v.396h.707V29.14zM19.94 28.06c.455 0 .747.287.822.792H19.08c.074-.47.36-.792.862-.792zm.013-.635c-.95 0-1.616.697-1.616 1.714 0 1.037.69 1.714 1.663 1.714.49 0 .937-.124 1.33-.458l-.345-.526c-.272.22-.618.342-.944.342-.455 0-.87-.212-.972-.8h2.412c.007-.088.013-.177.013-.273-.006-1.018-.63-1.715-1.542-1.715zm8.525 1.714c0-.574.374-1.045.985-1.045.584 0 .978.45.978 1.044 0 .593-.394 1.044-.978 1.044-.61 0-.985-.47-.985-1.045zm2.63 0v-1.633h-.707v.396c-.225-.293-.564-.478-1.026-.478-.91 0-1.624.717-1.624 1.714 0 .996.714 1.714 1.624 1.714.462 0 .8-.185 1.026-.478v.396h.706V29.14zm-6.617 0c0 .99.686 1.714 1.732 1.714.49 0 .815-.11 1.168-.39l-.34-.573c-.264.192-.543.294-.848.294-.564-.007-.978-.416-.978-1.045 0-.63.414-1.04.978-1.045.305 0 .584.102.85.293l.338-.573c-.353-.28-.68-.39-1.168-.39-1.046 0-1.732.724-1.732 1.714zm9.102-1.715c-.407 0-.672.19-.856.478v-.396h-.7v3.265h.706v-1.83c0-.54.23-.84.693-.84.142 0 .29.02.44.08l.218-.668c-.157-.062-.36-.09-.503-.09zm-18.924.342c-.34-.226-.808-.342-1.324-.342-.822 0-1.352.396-1.352 1.045 0 .533.394.86 1.12.963l.334.048c.387.055.57.158.57.342 0 .253-.258.396-.74.396-.49 0-.842-.157-1.08-.34l-.333.552c.388.287.877.424 1.407.424.937 0 1.48-.444 1.48-1.066 0-.574-.428-.874-1.134-.977l-.333-.046c-.306-.04-.55-.103-.55-.32 0-.24.23-.384.618-.384.414 0 .815.157 1.012.28l.306-.573zm9.11-.342c-.408 0-.673.19-.856.478v-.396h-.7v3.265h.707v-1.83c0-.54.232-.84.694-.84.142 0 .292.02.44.08l.218-.668c-.156-.062-.36-.09-.502-.09zm-6.025.082H16.6v-.99h-.713v.99h-.66v.65h.66v1.488c0 .758.292 1.21 1.127 1.21.306 0 .66-.097.883-.254l-.204-.607c-.21.123-.44.184-.625.184-.353 0-.468-.218-.468-.546v-1.474h1.155v-.65zM7.2 30.772v-2.05c0-.77-.49-1.29-1.278-1.297-.414-.007-.842.123-1.14.58-.226-.36-.58-.58-1.074-.58-.347 0-.687.103-.952.485v-.403H2.05v3.265h.713v-1.81c0-.567.313-.867.795-.867.47 0 .706.307.706.86v1.817h.714v-1.81c0-.567.326-.867.794-.867.483 0 .713.307.713.86v1.817H7.2z" fill-rule="evenodd"/>
</symbol><symbol id="pin-small" viewBox="0 0 24 24">
    <path fill="#5E7EA8" fill-rule="evenodd" d="M12 24C5.373 24 0 18.627 0 12S5.373 0 12 0s12 5.373 12 12-5.373 12-12 12zm0-8a4 4 0 1 0 0-8 4 4 0 0 0 0 8z"/>
</symbol><symbol id="pin" viewBox="0 0 36 51">
    
    <g fill="none" fill-rule="evenodd">
        <use fill="#5E7EA8" xlink:href="#a"/>
        <use fill="#000" xlink:href="#a"/>
    </g>
</symbol><symbol id="search-black" viewBox="0 0 16 16">
    <g fill="none" fill-rule="evenodd">
        <path d="M0 0h16v16H0z"/>
        <path stroke="#000" stroke-width="1.3" d="M9.879 9.879a4.615 4.615 0 1 0-6.527-6.527 4.615 4.615 0 0 0 6.527 6.527L14 14 9.879 9.879z"/>
    </g>
</symbol><symbol id="sort-black" viewBox="0 0 16 16">
    <g fill="none" fill-rule="evenodd">
        <path d="M0 0h16v16H0z"/>
        <path fill="#000" d="M2 9.056V7.744h8v1.312H2zM2 4.4h12v1.344H2V4.4zm0 8v-1.344h4V12.4H2z"/>
    </g>
</symbol><symbol id="success-black" viewBox="0 0 48 48">
  <g fill="none" fill-rule="evenodd">
    <path d="M0 0h48v48H0z"/>
    <g stroke="#000" stroke-width="2" transform="translate(3 3)">
      <path stroke-linejoin="bevel" d="M8 22l8 8 16-16"/>
      <circle cx="21" cy="21" r="21"/>
    </g>
  </g>
</symbol><symbol id="up-black" viewBox="0 0 24 24">
    <g fill="none" fill-rule="evenodd">
        <path d="M0 0h24v24H0z"/>
        <path stroke="#000" stroke-width="1.5" d="M3 12a9 9 0 1 0 18 0 9 9 0 0 0-18 0zm13.286 1.714L12 9.43l-4.286 4.285"/>
    </g>
</symbol><symbol id="visa" viewBox="0 0 59 18">
  <title>
    A4EDD444-352E-49AE-A843-BDA9DCF9820D
  </title>
  <path d="M23.04 0h4.794l-3 16.863H20.04L23.04 0zm-1.494 0l-7.55 16.83-5.078.005-4.293-14.06c3.09 1.894 5.715 4.894 6.64 6.99l.502 1.737L16.465 0h5.08zM0 .34L.06 0h7.437c1 .034 1.807.34 2.09 1.367l1.615 7.45C9.612 4.923 5.787 1.677 0 .34zm41.442 11.3c-.035 3.503-3.305 5.765-8.346 5.765-2.15-.022-4.22-.427-5.346-.9l.673-3.774.62.273c1.58.63 2.596.882 4.517.882 1.38 0 2.855-.52 2.866-1.65.006-.74-.62-1.264-2.487-2.09-1.818-.808-4.228-2.158-4.197-4.58C29.766 2.284 33.108 0 37.847 0c1.856 0 3.343.363 4.295.71l-.65 3.653-.435-.197c-.88-.34-2.016-.67-3.59-.645-1.872 0-2.745.75-2.745 1.454-.006.785 1.018 1.31 2.692 2.09 2.77 1.2 4.053 2.66 4.028 4.576zm7.89-.883c.398-.97 1.91-4.714 1.91-4.714-.024.045.39-.975.637-1.61l.325 1.454 1.108 4.87h-3.98zM54.962 0H51.26c-1.15 0-2.012.3-2.512 1.402l-7.124 15.45h5.034s.825-2.078 1.013-2.534c.548 0 5.444.01 6.143.01.138.59.578 2.523.578 2.523h4.45L54.964 0z" fill-rule="evenodd"/>
</symbol><symbol id="vk" viewBox="0 0 22.6393 13.0152">
  <title>
    vk
  </title>
  <path d="M19.484 8.276A31.08 31.08 0 0 1 21.7 10.54a6.572 6.572 0 0 1 .796 1.165.836.836 0 0 1-.502 1.298L18.696 13a2.526 2.526 0 0 1-2.1-.865c-.456-.473-.88-.976-1.318-1.464a3.143 3.143 0 0 0-.594-.535.684.684 0 0 0-1.098.27 3.568 3.568 0 0 0-.347 1.564.88.88 0 0 1-1.05 1.03 8.325 8.325 0 0 1-4.72-1.03 10.494 10.494 0 0 1-3.176-3.02 40.86 40.86 0 0 1-4.18-7.567C-.15.786.044.466.69.455 1.768.433 2.844.435 3.92.453a.95.95 0 0 1 .896.68 20.45 20.45 0 0 0 2.19 4.12 3.5 3.5 0 0 0 .825.924.5.5 0 0 0 .855-.255 2.895 2.895 0 0 0 .19-.864 13.066 13.066 0 0 0-.053-3.03A1.255 1.255 0 0 0 7.764.875c-.316-.06-.27-.18-.116-.362A1.18 1.18 0 0 1 8.658 0h3.73a.9.9 0 0 1 .796.986l.003 4.206a1.236 1.236 0 0 0 .526 1.075.73.73 0 0 0 .745-.37 13.072 13.072 0 0 0 2.098-3.278c.253-.518.47-1.056.68-1.593A.8.8 0 0 1 18.08.44l3.586.004a1.896 1.896 0 0 1 .317.02.632.632 0 0 1 .584.968 9.14 9.14 0 0 1-1.426 2.513c-.598.84-1.238 1.653-1.83 2.5a1.15 1.15 0 0 0 .175 1.83z"/>
</symbol><symbol id="wallet-black" viewBox="0 0 24 24">
  <g fill="none" fill-rule="evenodd">
    <path d="M0 0h24v24H0z"/>
    <path stroke="#000" stroke-width="1.2" d="M15.484 13.42a.87.87 0 1 0 0-1.743.87.87 0 0 0 0 1.742zm4.935 1.74v3.195H3V6.742h17.42v3.193M4.45 5h13.936v1.742M4.452 5C3.65 5 3 5.65 3 6.452m12.23 3.483a2.613 2.613 0 1 0 0 5.226H21V9.936h-5.77z"/>
  </g>
</symbol></svg>