<svg class="{{ className }}" xmlns="http://www.w3.org/2000/svg" viewBox="0 0 63.01 12"><g id="Слой_2" data-name="Слой 2"><g id="home"><g id="Rounded_Rectangle_1" data-name="Rounded Rectangle 1"><path d="M0,11.94H4.14l6.35-9v6H7.92v3h5.93V0H8.91ZM28.31,0V3h4.06v9h3.49V3h3.7V0ZM26,8.1a4.48,4.48,0,0,0,.69-.73,3.75,3.75,0,0,0,.4-.68h0a6.14,6.14,0,0,0,.39-1.13h0c0-.19.08-.36.1-.53a3.44,3.44,0,0,0,0-.47,4.64,4.64,0,0,0-1.18-3.11A4.37,4.37,0,0,0,24,.06h0L23.53,0H16.25V12h3.41V9.13H22L23.88,12h4.24l-2.6-3.47ZM24.37,4.57a1.66,1.66,0,0,1-.11.61h0a1.48,1.48,0,0,1-.3.47h0a1.39,1.39,0,0,1-.44.31,1.37,1.37,0,0,1-.54.11H19.66v-3H23a1.25,1.25,0,0,1,.52.12h0A1.43,1.43,0,0,1,24,3.5a1.59,1.59,0,0,1,.31.49h0a1.55,1.55,0,0,1,.11.58Z"/></g><g id="Rounded_Rectangle_1-2" data-name="Rounded Rectangle 1"><polygon points="58.86 0.03 53.73 7.35 53.73 0.03 53.72 0.03 53.72 0 50.2 0 45.06 7.32 45.06 0 41.69 0 41.69 11.97 45.58 11.97 50.51 5.01 50.51 12 54.07 12 63.01 0.03 58.86 0.03"/></g></g></g></svg>