<svg class="{{ className }}" xmlns="http://www.w3.org/2000/svg" viewBox="0 0 11 11"><g id="Слой_2" data-name="Слой 2"><g id="home"><path id="instagram" d="M9.73,4.65h-1a3.38,3.38,0,1,1-6.55,0h-1V9.31a.42.42,0,0,0,.42.42H9.31a.42.42,0,0,0,.42-.42Zm0-3a.42.42,0,0,0-.42-.42H8a.42.42,0,0,0-.42.42V3A.42.42,0,0,0,8,3.38H9.31A.42.42,0,0,0,9.73,3ZM5.5,3.38A2.12,2.12,0,1,0,7.62,5.5,2.12,2.12,0,0,0,5.5,3.38M9.73,11H1.27A1.27,1.27,0,0,1,0,9.73V1.27A1.27,1.27,0,0,1,1.27,0H9.73A1.27,1.27,0,0,1,11,1.27V9.73A1.27,1.27,0,0,1,9.73,11"/></g></g></svg>