<svg class="{{ className }}" xmlns="http://www.w3.org/2000/svg" viewBox="0 0 15 15"><g id="Слой_2" data-name="Слой 2"><g id="home"><g id="Phone"><path d="M13.72,9.39,11.29,8.14a1.67,1.67,0,0,0-1.86.25l-.28.26a.93.93,0,0,1-1,.14A4.43,4.43,0,0,1,6.2,6.88a.92.92,0,0,1,.14-1l.26-.28A1.64,1.64,0,0,0,6.85,3.7L5.6,1.27A2.34,2.34,0,0,0,2.09.48L1.35,1A3.45,3.45,0,0,0,.17,4.84a15.8,15.8,0,0,0,9.71,10,3.45,3.45,0,0,0,3.6-.83l.85-.86a2.34,2.34,0,0,0-.6-3.73Zm-.4,2.74-.85.86a2.08,2.08,0,0,1-2.13.49A14.39,14.39,0,0,1,1.51,4.41a2,2,0,0,1,.7-2.25l.74-.56a.93.93,0,0,1,.57-.19.94.94,0,0,1,.83.51L5.6,4.34a.23.23,0,0,1,0,.26l-.26.28a2.33,2.33,0,0,0-.35,2.63A5.82,5.82,0,0,0,7.47,10a2.37,2.37,0,0,0,2.63-.35l.28-.26a.26.26,0,0,1,.26,0l2.43,1.25a.93.93,0,0,1,.24,1.49Z"/></g></g></g></svg>