<svg class="{{ className }}" xmlns="http://www.w3.org/2000/svg" viewBox="0 0 8 10"><<g id="Слой_2" data-name="Слой 2"><g id="home"><path id="vk" d="M7.44,5.29A2.87,2.87,0,0,0,6,4.5V4.44a2.24,2.24,0,0,0,1-.83,2.35,2.35,0,0,0,.37-1.29,2.26,2.26,0,0,0-.26-1.11,1.91,1.91,0,0,0-.8-.77A3.19,3.19,0,0,0,5.23.09,12,12,0,0,0,3.57,0H0V10H4a6.34,6.34,0,0,0,1.7-.22A3.53,3.53,0,0,0,7,9.14a2.68,2.68,0,0,0,.75-.93A2.89,2.89,0,0,0,8,6.9,2.29,2.29,0,0,0,7.44,5.29Zm-5-3.47h.24l1,0A1.58,1.58,0,0,1,4.3,2a.75.75,0,0,1,.38.37,1.13,1.13,0,0,1,.12.49,1.36,1.36,0,0,1-.11.57.8.8,0,0,1-.41.39,1.48,1.48,0,0,1-.53.16c-.17,0-.47,0-.9,0H2.48Zm2.8,5.67a1,1,0,0,1-.5.43A2.18,2.18,0,0,1,4,8.14c-.25,0-.7,0-1.35,0h-.2V5.62H4.07a1.93,1.93,0,0,1,.62.1,1.13,1.13,0,0,1,.56.39,1.22,1.22,0,0,1,.19.72A1.31,1.31,0,0,1,5.28,7.49Z"/></g></g></svg>