<svg class="{{ className }}" xmlns="http://www.w3.org/2000/svg" viewBox="0 0 90.56 16"><g id="Слой_2" data-name="Слой 2"><g id="home"><polygon points="0 0.01 4.9 0.01 4.9 5.88 7.2 5.88 13.39 0.01 20.06 0.01 11.4 7.83 19.6 16 12.81 16 7.07 9.86 4.9 9.86 4.9 16 0 16 0 0.01"/><path d="M31.07,0h6.37L46.2,16H40.76l-1.52-2.82H29.33L27.9,16H22.44Zm.09,9.69h6.26l-3.17-6Z"/><path d="M49.33,0h14.8c3.78,0,4.79,1.88,4.79,4.75v1c0,2.14-.49,3.4-2.74,3.93v0c1.46.26,2.67.91,2.67,3.53V16H64V14.07c0-1.68-.49-2.23-2-2.23H54.24V16h-4.9Zm4.9,7.86h8.11c1.33,0,1.81-.53,1.81-1.68V5.66C64.16,4.24,63.45,4,61.9,4H54.24Z"/><polygon points="72.77 0 90.27 0 90.27 3.71 77.68 3.71 77.68 6.42 89.61 6.42 89.61 9.44 77.68 9.44 77.68 12.15 90.56 12.15 90.56 15.99 72.77 15.99 72.77 0"/></g></g></svg>