<svg id="partners" xmlns="http://www.w3.org/2000/svg" viewBox="0 0 10.0014 10"><title>phone</title><g id="Phone"><path d="M95.244,322.8188L93.25,321.7944a0.21,0.21,0,0,0-.216.03l-0.2329.2138a1.9415,1.9415,0,0,1-2.16.29,4.7788,4.7788,0,0,1-2.0715-2.0695,1.9079,1.9079,0,0,1,.29-2.1589l0.213-.2321a0.1893,0.1893,0,0,0,.03-0.2162l-1.0252-1.9926a0.7687,0.7687,0,0,0-1.15-.2628l-0.6068.4627a1.6745,1.6745,0,0,0-.5766,1.8453,11.807,11.807,0,0,0,7.2526,7.4429,1.7068,1.7068,0,0,0,1.7509-.4012l0.6939-.702A0.7672,0.7672,0,0,0,95.244,322.8188Z" transform="translate(-85.6625 -315.239)" fill="#7e7f7f" fill-rule="evenodd"/></g></svg>