<svg class="{{ className }}" xmlns="http://www.w3.org/2000/svg" viewBox="0 0 15.75 14"><g id="Слой_2" data-name="Слой 2"><g id="home"><g id="Cart"><path d="M3.6,11.38A1.31,1.31,0,1,0,3.6,14a1.31,1.31,0,1,0,0-2.62ZM14.4,2.19H3.2L1.15.19A.68.68,0,0,0,.67,0,.67.67,0,0,0,0,.66a.65.65,0,0,0,.2.46L1.8,2.68V9.19A1.33,1.33,0,0,0,3.15,10.5H11.7a1.35,1.35,0,0,0,1.23-.76L15.63,4a1.28,1.28,0,0,0,.12-.55A1.33,1.33,0,0,0,14.4,2.19Zm-2.7,7H3.15V5.69H13.36ZM14,4.38H3.15V3.5H14.4Zm-3.19,7a1.31,1.31,0,1,0,1.35,1.31A1.33,1.33,0,0,0,10.8,11.38Z"></path></g></g></g></svg>