<svg class="{{ className }}" xmlns="http://www.w3.org/2000/svg" viewBox="0 0 12.78 14"><g id="Слой_2" data-name="Слой 2"><g id="home"><g id="Profile"><path d="M9.45,7.7a5.63,5.63,0,0,0,.77-2.89C10.23,2.15,8.51,0,6.39,0S2.56,2.15,2.56,4.81A5.62,5.62,0,0,0,3.33,7.7a5.63,5.63,0,0,0-3.33,5v.44A.86.86,0,0,0,.85,14H11.93a.86.86,0,0,0,.85-.87v-.44A5.63,5.63,0,0,0,9.45,7.7ZM6.39,1.31c1.39,0,2.56,1.6,2.56,3.5s-1.17,3.5-2.56,3.5-2.56-1.6-2.56-3.5S5,1.31,6.39,1.31ZM1.28,12.69A4.38,4.38,0,0,1,4.18,8.74a3.32,3.32,0,0,0,2.21.88A3.32,3.32,0,0,0,8.6,8.74a4.38,4.38,0,0,1,2.91,3.94Z"/></g></g></g></svg>