<svg class="{{ className }}" xmlns="http://www.w3.org/2000/svg" viewBox="0 0 11.96 10"><g id="Слой_2" data-name="Слой 2"><g id="Detailed_card" data-name="Detailed card"><g id="Shape_11_copy_4" data-name="Shape 11 copy 4"><path d="M11.69,4.44a.66.66,0,0,0-.4-1.19L8.57,2.9A.61.61,0,0,1,8,2.55L6.71.39a.9.9,0,0,0-1.51,0L4,2.59a1,1,0,0,1-.6.35L.63,3.3a.68.68,0,0,0-.4,1.19l2,1.72a.72.72,0,0,1,.2.62L2,9.19c-.1.53.6,1,1.16.7L5.61,8.8a1.11,1.11,0,0,1,.75,0L8.83,9.9A.75.75,0,0,0,10,9.19L9.53,6.82a.63.63,0,0,1,.15-.66Z"/></g></g></g></svg>