<?xml version="1.0" standalone="no"?>
<!DOCTYPE svg PUBLIC "-//W3C//DTD SVG 1.1//EN" "http://www.w3.org/Graphics/SVG/1.1/DTD/svg11.dtd" >
<svg>
<metadata>
Created by FontForge 20090914 at Fri Sep 30 14:42:39 2016
 By www-data
(c) copyright 2000 Mike Abbink/Method, Inc. Produced by The Font Bureau, Inc.
</metadata>
<defs>
<font id="Kievit-Regular" horiz-adv-x="1077" >
  <font-face 
    font-family="Kievit"
    font-weight="500"
    font-stretch="normal"
    units-per-em="1000"
    panose-1="2 0 6 3 4 0 0 2 0 4"
    ascent="800"
    descent="-200"
    x-height="480"
    cap-height="666"
    bbox="-65 -250 1042 893"
    underline-thickness="20"
    underline-position="-113"
    unicode-range="U+0005-U+2122"
  />
<missing-glyph horiz-adv-x="500" 
 />
    <glyph glyph-name=".notdef" horiz-adv-x="500" 
 />
    <glyph glyph-name="breve" horiz-adv-x="500" 
d="M393 678c-2 -24.667 -7.33398 -46 -16.001 -64s-19.5 -32.667 -32.5 -44s-27.667 -19.833 -44 -25.5s-33.166 -8.5 -50.499 -8.5s-34.166 2.83301 -50.499 8.5s-31 14.167 -44 25.5s-24 26 -33 44s-14.5 39.333 -16.5 64h65c2 -25.333 9.83301 -45.666 23.5 -60.999
s32.167 -23 55.5 -23s41.666 7.66699 54.999 23s21 35.666 23 60.999h65v0z" />
    <glyph glyph-name="dotaccent" horiz-adv-x="500" 
d="M307 621c0 -16 -5.5 -29.667 -16.5 -41s-24.5 -17 -40.5 -17s-29.5 5.5 -40.5 16.5s-16.5 24.5 -16.5 40.5s5.5 29.667 16.5 41s24.5 17 40.5 17s29.5 -5.5 40.5 -16.5s16.5 -24.5 16.5 -40.5z" />
    <glyph glyph-name="ring" horiz-adv-x="500" 
d="M345 640c0 -13.333 -2.66699 -25.833 -8 -37.5s-12.333 -21.667 -21 -30s-18.667 -15 -30 -20s-23.333 -7.5 -36 -7.5s-24.667 2.5 -36 7.5s-21.333 11.667 -30 20s-15.667 18.333 -21 30s-8 24.167 -8 37.5s2.66699 25.833 8 37.5s12.333 21.667 21 30s18.667 15 30 20
s23.333 7.5 36 7.5s24.667 -2.5 36 -7.5s21.333 -11.667 30 -20s15.667 -18.333 21 -30s8 -24.167 8 -37.5zM300 640c0 15.333 -4.5 28.333 -13.5 39s-21.167 16 -36.5 16s-27.5 -5.33301 -36.5 -16s-13.5 -23.667 -13.5 -39c0 -14.667 4.5 -27.5 13.5 -38.5
s21.167 -16.5 36.5 -16.5s27.5 5.5 36.5 16.5s13.5 23.833 13.5 38.5z" />
    <glyph glyph-name="hungarumlaut" unicode="&#xa;" horiz-adv-x="500" 
d="M337 666h105l-133 -126h-65zM173 666h105l-133 -126h-65z" />
    <glyph glyph-name="ogonek" horiz-adv-x="500" 
d="M331 -202c-7.33301 -4 -16.667 -7.83301 -28 -11.5s-24.666 -5.5 -39.999 -5.5c-32 0 -56.333 9 -73 27s-25 39.667 -25 65c0 13.333 2.16699 26.333 6.5 39s9.66602 24.5 15.999 35.5s13.333 21 21 30s14.5 16.5 20.5 22.5h50
c-11.333 -14.667 -22.833 -31.667 -34.5 -51s-17.5 -42 -17.5 -68c0 -32 16.667 -48 50 -48c14.667 0 29 2.66699 43 8l11 -43v0z" />
    <glyph glyph-name="caron" horiz-adv-x="500" 
d="M170 692l81 -85l79 85h69l-123 -153h-54l-121 153h69z" />
    <glyph glyph-name="dotlessi" unicode="&#xd;" horiz-adv-x="250" 
d="M88 0v480h74v-480h-74z" />
    <glyph glyph-name="fraction" horiz-adv-x="402" 
d="M70 -113h-70l411 833h69z" />
    <glyph glyph-name="fi" horiz-adv-x="537" 
d="M376 0l-0.000976562 421.999h-203v-422h-73v422h-80v58h80v68c0 26.667 4.16699 51.334 12.5 74.001s20.5 42.167 36.5 58.5s35.667 29 59 38s50 13.5 80 13.5c20.667 0 38.834 -1.5 54.501 -4.5s29.667 -6.66699 42 -11s23.166 -9.33301 32.499 -15l25 -15.5l-37 -58
c-11.333 8 -26.666 16.667 -45.999 26s-44 14 -74 14c-36 0 -63.667 -10.667 -83 -32s-29 -53 -29 -95v-61h276v-480h-73z" />
    <glyph glyph-name="fl" horiz-adv-x="544" 
d="M385 0l0.000976562 654.998c-7.33301 2.66699 -19.833 5.5 -37.5 8.5s-39.167 4.5 -64.5 4.5c-38.667 0 -66.667 -11 -84 -33s-26 -53 -26 -93v-62h113v-58h-113v-422h-73v422h-80v58h80v72c0 58.667 17.167 103.334 51.5 134.001s79.5 46 135.5 46
c41.333 0 76.166 -2.66699 104.499 -8s50.5 -10.666 66.5 -15.999v-708h-73z" />
    <glyph glyph-name="Lslash" horiz-adv-x="471" 
d="M96 0v280l-73 -57l-32 42l105 84v317h78v-256l106 84l34 -43l-140 -110v-275h262v-66h-340z" />
    <glyph glyph-name="lslash" horiz-adv-x="250" 
d="M91 720l73 -0.000976562v-314l81 66v-69l-81 -66v-337h-73v278l-67 -54v68l33 27l12 10l11 9c3.33301 2.66699 7 5.33398 11 8.00098v374z" />
    <glyph glyph-name="Zcaron" horiz-adv-x="561" 
d="M46 0v55l364 547h-347v64h439v-51l-369 -551h381v-64h-468zM209 872l81 -85l79 85h69l-123 -153h-54l-121 153h69z" />
    <glyph glyph-name="zcaron" horiz-adv-x="423" 
d="M42 0v46l244 375h-230v59h319v-49l-245 -372h249v-59h-337zM136 692l81 -85l79 85h69l-123 -153h-54l-121 153h69z" />
    <glyph glyph-name="space" unicode=" " horiz-adv-x="225" 
 />
    <glyph glyph-name="space" unicode="&#xa0;" horiz-adv-x="225" 
 />
    <glyph glyph-name="exclam" unicode="!" horiz-adv-x="275" 
d="M166 199h-58l-16 467h90zM194 49c0 -16 -5.66699 -29.5 -17 -40.5s-24.666 -16.5 -39.999 -16.5s-28.666 5.5 -39.999 16.5s-17 24.5 -17 40.5c0 15.333 5.66699 28.5 17 39.5s24.666 16.5 39.999 16.5s28.666 -5.5 39.999 -16.5s17 -24.167 17 -39.5z" />
    <glyph glyph-name="quotedbl" unicode="&#x22;" horiz-adv-x="327" 
d="M261 444h-58l-11 222h92zM124 444h-58l-23 222h92z" />
    <glyph glyph-name="numbersign" unicode="#" horiz-adv-x="494" 
d="M471 479l-10 -59h-96l-16 -111h96l-10 -59h-95l-21 -144h-59l21 144h-101l-22 -144h-59l22 144h-98l10 59h97l17 111h-97l9 59h96l20 131h59l-20 -131h101l20 131h59l-20 -131h97zM205 420l-16 -111h101l17 111h-102z" />
    <glyph glyph-name="dollar" unicode="$" horiz-adv-x="408" 
d="M178 593l71.001 0.00195312v-103c32.667 -4 58.834 -11.333 78.501 -22s32.834 -18.667 39.501 -24l-35 -54c-8.66699 6.66699 -23.167 14.834 -43.5 24.501s-45.5 14.5 -75.5 14.5c-28 0 -50 -5.5 -66 -16.5s-24 -27.167 -24 -48.5c0 -16.667 6.5 -30.667 19.5 -42
s29.167 -21.5 48.5 -30.5s40.166 -18 62.499 -27s43.166 -19.333 62.499 -31s35.5 -25.834 48.5 -42.501s19.5 -37.334 19.5 -62.001c0 -38 -11.5 -69 -34.5 -93s-56.5 -39.333 -100.5 -46v-113h-71v111c-32.667 2.66699 -60.334 9 -83.001 19s-40.667 19.667 -54 29l32 57
c4.66699 -3.33301 11 -7.5 19 -12.5s17.5 -9.66699 28.5 -14s23.333 -8.16602 37 -11.499s28.5 -5 44.5 -5c34.667 0 61.334 6 80.001 18s28 29 28 51c0 17.333 -6.33301 31.333 -19 42s-28.667 20.5 -48 29.5s-40 17.833 -62 26.5s-42.667 19 -62 31s-35.333 27 -48 45
s-19 40.667 -19 68c0 33.333 11.167 61.666 33.5 84.999s53.166 37.666 92.499 42.999v104z" />
    <glyph glyph-name="percent" unicode="%" horiz-adv-x="746" 
d="M317 354c0 -16 -2.66797 -32.333 -8.00098 -49s-13.833 -31.834 -25.5 -45.501s-26.5 -24.834 -44.5 -33.501s-39.333 -13 -64 -13c-25.333 0 -46.833 4.16699 -64.5 12.5s-32.167 19.333 -43.5 33s-19.666 28.667 -24.999 45s-8 32.5 -8 48.5s2.83301 32.333 8.5 49
s14.167 31.667 25.5 45s26 24.333 44 33s39.667 13 65 13c24.667 0 46 -4.16699 64 -12.5s32.5 -19.166 43.5 -32.499s19.167 -28.166 24.5 -44.499s8 -32.5 8 -48.5zM263.999 0h-63l287 480h63zM711.999 129c0 -16 -2.66797 -32.333 -8.00098 -49
s-13.833 -31.834 -25.5 -45.501s-26.5 -24.834 -44.5 -33.501s-39.333 -13 -64 -13c-25.333 0 -46.833 4.16699 -64.5 12.5s-32.167 19.333 -43.5 33s-19.666 28.667 -24.999 45s-8 32.5 -8 48.5s2.83301 32.333 8.5 49s14.167 31.667 25.5 45s26 24.333 44 33
s39.667 13 65 13c24.667 0 46 -4.16699 64 -12.5s32.5 -19.166 43.5 -32.499s19.167 -28.166 24.5 -44.499s8 -32.5 8 -48.5zM255.998 352c0 25.333 -6.5 46.998 -19.5 64.998s-33.5 27 -61.5 27s-48.333 -8.66699 -61 -26s-19 -38.666 -19 -63.999
s6.66699 -47.166 20 -65.499s34 -27.5 62 -27.5s48.167 8.83301 60.5 26.5s18.5 39.167 18.5 64.5zM650.998 126.998c0 25.333 -6.5 46.998 -19.5 64.998s-33.5 27 -61.5 27s-48.333 -8.66699 -61 -26s-19 -38.666 -19 -63.999s6.66699 -47.166 20 -65.499
s34 -27.5 62 -27.5s48.167 8.83301 60.5 26.5s18.5 39.167 18.5 64.5z" />
    <glyph glyph-name="ampersand" unicode="&#x26;" horiz-adv-x="625" 
d="M177 358c-25.333 27.333 -45.6699 53.8301 -61.0029 79.4971s-23 54.5 -23 86.5c0 23.333 4.33301 44.5 13 63.5s20.834 35.167 36.501 48.5s34.334 23.666 56.001 30.999s45.167 11 70.5 11c24 0 46 -3.5 66 -10.5s37.167 -16.667 51.5 -29
s25.666 -27.166 33.999 -44.499s12.5 -36.333 12.5 -57c0 -38.667 -12.833 -72 -38.5 -100s-62.834 -56 -111.501 -84l175 -186c26.667 42.667 45 93 55 151l70 -12c-6 -36 -15.833 -70 -29.5 -102s-30.167 -61 -49.5 -87l110 -117h-98l-60 64
c-27.333 -24 -57.333 -42.667 -90 -56s-67.667 -20 -105 -20c-35.333 0 -66.666 4.83301 -93.999 14.5s-50.666 22.834 -69.999 39.501s-34 36 -44 58s-15 45.333 -15 70c0 24 3.5 45.333 10.5 64s16.833 35.334 29.5 50.001s27.334 27.834 44.001 39.501s35 23.167 55 34.5
zM243.996 393.997c41.333 23.333 70.833 46 88.5 68s26.5 46.333 26.5 73c0 22 -8.16699 41.167 -24.5 57.5s-38.5 24.5 -66.5 24.5c-30 0 -53.5 -8.33301 -70.5 -25s-25.5 -38 -25.5 -64c0 -24 6.5 -46.333 19.5 -67s30.5 -43 52.5 -67zM216.996 314.997
c-32 -18 -56.833 -38.333 -74.5 -61s-26.5 -49.667 -26.5 -81c0 -34 12.5 -62.333 37.5 -85s61.5 -34 109.5 -34c30 0 57.167 5 81.5 15s46.5 24 66.5 42z" />
    <glyph glyph-name="quotesingle" unicode="'" horiz-adv-x="187" 
d="M123 444h-59l-18 222h95z" />
    <glyph glyph-name="parenleft" unicode="(" horiz-adv-x="309" 
d="M236 -177c-14 14.667 -31.1689 35.501 -51.502 62.501s-40.166 59.667 -59.499 98s-35.833 82.166 -49.5 131.499s-20.5 104.333 -20.5 165c0 57.333 6.66699 109.833 20 157.5s29.5 90 48.5 127s38.833 68.5 59.5 94.5s38.334 46.333 53.001 61h70
c-15.333 -16 -33 -37.333 -53 -64s-39 -58.5 -57 -95.5s-33.333 -78.833 -46 -125.5s-19 -98 -19 -154s5.5 -107.333 16.5 -154s25 -88.667 42 -126s35.833 -70.833 56.5 -100.5s40.667 -55.5 60 -77.5h-70z" />
    <glyph glyph-name="parenright" unicode=")" horiz-adv-x="309" 
d="M3 -177c19.333 22 39.3311 47.6689 59.998 77.002s39.5 62.833 56.5 100.5s31 79.667 42 126s16.5 97.5 16.5 153.5s-6.33301 107.333 -19 154s-28 88.667 -46 126s-37 69.333 -57 96s-37.667 48 -53 64h70c14.667 -14.667 32.334 -35 53.001 -61s40.5 -57.333 59.5 -94
s35.167 -78.834 48.5 -126.501s20 -100.167 20 -157.5c0 -60.667 -6.83301 -115.834 -20.5 -165.501s-30.167 -93.667 -49.5 -132s-39.166 -71 -59.499 -98s-37.5 -47.833 -51.5 -62.5h-70v0z" />
    <glyph glyph-name="asterisk" unicode="*" horiz-adv-x="454" 
d="M355 361l-46 -34l-83 119l-83 -119l-46 34l85 114l-136 42l18 54l134 -47l-4 142h64l-4 -142l134 47l19 -54l-137 -42z" />
    <glyph glyph-name="plus" unicode="+" horiz-adv-x="511" 
d="M290 233v-193h-69v193h-183v64h183v183h69v-183h183v-64h-183z" />
    <glyph glyph-name="comma" unicode="," horiz-adv-x="220" 
d="M173 34c0 -18.667 -2.5 -36.832 -7.5 -54.499s-11.167 -33.834 -18.5 -48.501s-14.833 -27.667 -22.5 -39s-14.167 -20.333 -19.5 -27h-51c8 11.333 16.833 26.5 26.5 45.5s14.5 38.167 14.5 57.5c0 8.66699 -2.33301 16.167 -7 22.5s-9.66699 12.5 -15 18.5
s-10.333 12.667 -15 20s-7 17 -7 29c0 15.333 5.33301 28.166 16 38.499s24 15.5 40 15.5c18 0 33.5 -6.66699 46.5 -20s19.5 -32.666 19.5 -57.999z" />
    <glyph glyph-name="hyphen" unicode="-" horiz-adv-x="309" 
d="M54 255v64h201v-64h-201z" />
    <glyph glyph-name="period" unicode="." horiz-adv-x="220" 
d="M171 52c0 -17.333 -5.83301 -31.833 -17.5 -43.5s-26.167 -17.5 -43.5 -17.5s-31.833 5.83301 -43.5 17.5s-17.5 26.167 -17.5 43.5s5.83301 31.666 17.5 42.999s26.167 17 43.5 17s31.833 -5.66699 43.5 -17s17.5 -25.666 17.5 -42.999z" />
    <glyph glyph-name="slash" unicode="/" horiz-adv-x="402" 
d="M77 -161h-70l318 881h70z" />
    <glyph glyph-name="zero" unicode="0" horiz-adv-x="570" 
d="M530 241c0 -28.667 -5 -58.0029 -15 -88.0029s-25.167 -57.167 -45.5 -81.5s-46 -44.333 -77 -60s-67.5 -23.5 -109.5 -23.5s-78.333 7.66699 -109 23s-56 35.166 -76 59.499s-34.667 51.333 -44 81s-14 58.834 -14 87.501s4.83301 57.834 14.5 87.501
s24.5 56.834 44.5 81.501s45.5 44.834 76.5 60.501s67.5 23.5 109.5 23.5s78.5 -7.66699 109.5 -23s56.5 -35 76.5 -59s34.833 -51 44.5 -81s14.5 -59.333 14.5 -88zM452 238.997c0 26 -3.66504 50.5 -10.998 73.5s-18 43.167 -32 60.5s-31.5 31 -52.5 41s-45.5 15 -73.5 15
s-52.333 -5 -73 -15s-37.834 -23.5 -51.501 -40.5s-23.834 -36.833 -30.501 -59.5s-10 -47 -10 -73s3.5 -50.5 10.5 -73.5s17.5 -43.167 31.5 -60.5s31.333 -31 52 -41s45 -15 73 -15s52.333 4.83301 73 14.5s38 23 52 40s24.5 37 31.5 60s10.5 47.5 10.5 73.5z" />
    <glyph glyph-name="one" unicode="1" horiz-adv-x="323" 
d="M160 0v412l-111 -38l-15 61l139 45h60v-480h-73z" />
    <glyph glyph-name="two" unicode="2" horiz-adv-x="480" 
d="M27 0v28.002l48 39.5l60.5 51l63 57.5c21 20 40 40.167 57 60.5s30.667 40 41 59s15.5 36.833 15.5 53.5c0 23.333 -7.5 42.333 -22.5 57s-38.833 22 -71.5 22c-14.667 0 -28.334 -2 -41.001 -6s-24.334 -8.83301 -35.001 -14.5s-20.167 -11.834 -28.5 -18.501
s-15.166 -13 -20.499 -19l-42 47c8.66699 8.66699 19.167 17.5 31.5 26.5s26 17.167 41 24.5s31 13.166 48 17.499s34.167 6.5 51.5 6.5c22.667 0 44 -2.66699 64 -8s37.667 -13.666 53 -24.999s27.5 -25.5 36.5 -42.5s13.5 -37.167 13.5 -60.5
c0 -18 -4.16699 -36.5 -12.5 -55.5s-19.166 -37.833 -32.499 -56.5s-28.666 -36.834 -45.999 -54.501l-52 -50.5c-17.333 -16 -34.333 -30.833 -51 -44.5l-43 -35.5c5.33301 0 11.333 0.333008 18 1c5.33301 0.666992 11.166 1.16699 17.499 1.5s12.833 0.5 19.5 0.5h230
v-62h-411z" />
    <glyph glyph-name="three" unicode="3" horiz-adv-x="428" 
d="M386 23c0 -33.333 -6.99902 -63.167 -20.999 -89.5s-32.667 -48.5 -56 -66.5s-50.333 -31.667 -81 -41s-62.667 -14 -96 -14c-24 0 -42 0.333008 -54 1s-21.667 1.66699 -29 3l11 62c4.66699 -1.33301 12.167 -2.5 22.5 -3.5s23.166 -1.5 38.499 -1.5
c24.667 0 48.334 3.16699 71.001 9.5s42.5 15.5 59.5 27.5s30.667 26.667 41 44s15.5 37.333 15.5 60c0 27.333 -5.33301 50 -16 68s-25 32.167 -43 42.5s-38.667 17.5 -62 21.5s-47.333 6 -72 6v55c18.667 0 38.167 3.33301 58.5 10s39 16 56 28s31 26.333 42 43
s16.5 35.667 16.5 57c0 25.333 -8.16699 45.5 -24.5 60.5s-39.833 22.5 -70.5 22.5c-28 0 -51.833 -6 -71.5 -18s-35.167 -23.333 -46.5 -34l-38 48c6.66699 6.66699 15.167 14 25.5 22s22.333 15.5 36 22.5s28.667 12.667 45 17s33.833 6.5 52.5 6.5
c27.333 0 51.5 -4 72.5 -12s38.667 -18.5 53 -31.5s25.166 -28 32.499 -45s11 -34.5 11 -52.5c0 -20 -4.16699 -38.833 -12.5 -56.5s-19 -33.5 -32 -47.5s-27.333 -25.667 -43 -35s-31.167 -16 -46.5 -20v-1c20.667 -3.33301 40.334 -9.5 59.001 -18.5
s35.167 -20.833 49.5 -35.5s25.666 -31.667 33.999 -51s12.5 -40.333 12.5 -63z" />
    <glyph glyph-name="four" unicode="4" horiz-adv-x="560" 
d="M414 0v-177h-73v177h-311v48l324 432h60v-418h111v-62h-111zM341 362h-2l-226 -300h228v300z" />
    <glyph glyph-name="five" unicode="5" horiz-adv-x="420" 
d="M380 40c0 -31.333 -6.00098 -60.667 -18.001 -88s-29.833 -51.5 -53.5 -72.5s-52.5 -37.5 -86.5 -49.5s-73 -18 -117 -18c-12 0 -23.333 0.666992 -34 2s-19.334 2.66602 -26.001 3.99902l13 61c3.33301 -0.666992 9 -1.5 17 -2.5s20.333 -1.5 37 -1.5
c24.667 0 48.5 3.33301 71.5 10s43.333 16.834 61 30.501s31.834 30.5 42.501 50.5s16 43.333 16 70c0 27.333 -4.5 50.5 -13.5 69.5s-21.5 34.5 -37.5 46.5s-34.833 20.667 -56.5 26s-45.167 8 -70.5 8h-26c-10.667 0 -20.667 -0.666992 -30 -2l20 296h280v-59h-213
l-11 -175c40.667 0 75.834 -5.66699 105.501 -17s54.167 -26.5 73.5 -45.5s33.5 -40.833 42.5 -65.5s13.5 -50.667 13.5 -78z" />
    <glyph glyph-name="six" unicode="6" horiz-adv-x="509" 
d="M468 198c0 -28 -4.66406 -54.833 -13.9971 -80.5s-22.833 -48 -40.5 -67s-39.167 -34.167 -64.5 -45.5s-54 -17 -86 -17c-39.333 0 -72.833 8.33301 -100.5 25s-50.334 38.5 -68.001 65.5s-30.5 57.167 -38.5 90.5s-12 66.666 -12 99.999c0 60 8.66699 115 26 165
s42.666 93.167 75.999 129.5s74 64.5 122 84.5s103 30 165 30l15 -61c-91.333 0 -165.333 -23.167 -222 -69.5s-89.667 -114.5 -99 -204.5c17.333 15.333 38.666 27.833 63.999 37.5s52 14.5 80 14.5c30.667 0 58.167 -4.83301 82.5 -14.5s45 -23.167 62 -40.5
s30 -38.166 39 -62.499s13.5 -50.833 13.5 -79.5zM391.003 188c0 45.333 -10.498 80.834 -31.498 106.501s-53.5 38.5 -97.5 38.5c-33.333 0 -61 -5.16699 -83 -15.5s-40.667 -21.5 -56 -33.5c-0.666992 -5.33301 -1 -10 -1 -14v-11c0 -30.667 2.83301 -58.834 8.5 -84.501
s14.5 -47.667 26.5 -66s27 -32.5 45 -42.5s39.667 -15 65 -15c20.667 0 38.667 4 54 12s28.166 18.5 38.499 31.5s18.166 27.667 23.499 44s8 32.833 8 49.5z" />
    <glyph glyph-name="seven" unicode="7" horiz-adv-x="446" 
d="M114 -198l-63 31l274 582h-309v65h390v-52z" />
    <glyph glyph-name="eight" unicode="8" horiz-adv-x="511" 
d="M455 167c0 -27.333 -4.99805 -52.0029 -14.998 -74.0029s-23.833 -40.667 -41.5 -56s-38.834 -27.333 -63.501 -36s-51.667 -13 -81 -13c-34 0 -63.5 5 -88.5 15s-45.667 23.167 -62 39.5s-28.5 35 -36.5 56s-12 42.167 -12 63.5c0 22 4.33301 42.5 13 61.5
s19.667 36.5 33 52.5s28.166 30.167 44.499 42.5s32.166 22.833 47.499 31.5c-16 10 -31.333 20.5 -46 31.5s-27.5 23.167 -38.5 36.5s-19.667 28 -26 44s-9.5 33.667 -9.5 53c0 24 5 46 15 66s23.333 37.167 40 51.5s35.834 25.5 57.501 33.5s44.167 12 67.5 12
c30.667 0 57.667 -4.33301 81 -13s42.833 -20.167 58.5 -34.5s27.5 -31.166 35.5 -50.499s12 -39.666 12 -60.999c0 -20 -4 -38.167 -12 -54.5s-18.333 -31 -31 -44s-26.667 -24.833 -42 -35.5s-30.333 -20.334 -45 -29.001c16.667 -9.33301 33.5 -20 50.5 -32
s32.5 -25.667 46.5 -41s25.5 -32.666 34.5 -51.999s13.5 -40.666 13.5 -63.999zM365.002 513.997c0 28 -9.16797 51.8311 -27.501 71.498s-44.833 29.5 -79.5 29.5c-32.667 0 -59 -9.33301 -79 -28s-30 -42.667 -30 -72c0 -15.333 3.5 -29.333 10.5 -42s16 -24.167 27 -34.5
s22.833 -19.666 35.5 -27.999s24.667 -15.833 36 -22.5c12 7.33301 24.167 15.333 36.5 24s23.833 18.334 34.5 29.001s19.334 22 26.001 34s10 25 10 39zM379.001 167.995c0 17.333 -4.16895 33.501 -12.502 48.501s-19.166 28.667 -32.499 41s-28 23.666 -44 33.999
s-31.333 19.5 -46 27.5l-38 -26.5c-13.333 -9.66699 -25.666 -20.667 -36.999 -33s-20.666 -26.166 -27.999 -41.499s-11 -32.333 -11 -51c0 -33.333 11.5 -60.833 34.5 -82.5s53.833 -32.5 92.5 -32.5c20 0 37.5 3.16699 52.5 9.5s27.667 14.666 38 24.999
s18.166 22.5 23.499 36.5s8 29 8 45z" />
    <glyph glyph-name="nine" unicode="9" horiz-adv-x="511" 
d="M464 210c0 -60 -9.00195 -114.333 -27.002 -163s-44 -90.167 -78 -124.5s-75.833 -61 -125.5 -80s-106.5 -28.5 -170.5 -28.5l-14 60c42.667 0 83 5.33301 121 16s71.833 26.667 101.5 48s54.167 48.5 73.5 81.5s31.333 71.833 36 116.5
c-19.333 -14 -40.666 -25.833 -63.999 -35.5s-50 -14.5 -80 -14.5s-57.167 5 -81.5 15s-44.833 24 -61.5 42s-29.5 39.167 -38.5 63.5s-13.5 50.833 -13.5 79.5c0 28 5.16699 54.5 15.5 79.5s24.833 46.833 43.5 65.5s40.834 33.5 66.501 44.5s53.5 16.5 83.5 16.5
c40 0 73.667 -8.66699 101 -26s49.333 -39.5 66 -66.5s28.5 -57.167 35.5 -90.5s10.5 -66.333 10.5 -99zM386.998 219c0 30 -2.83496 57.8291 -8.50195 83.4961s-14.167 47.834 -25.5 66.501s-25.833 33.334 -43.5 44.001s-38.5 16 -62.5 16
c-17.333 0 -33.666 -3.33301 -48.999 -10s-28.666 -16.167 -39.999 -28.5s-20.5 -27.166 -27.5 -44.499s-10.5 -36.666 -10.5 -57.999c0 -40 10.333 -73.333 31 -100s52.667 -40 96 -40c18 0 34.667 1.66699 50 5s28.833 7.5 40.5 12.5s21.667 10.167 30 15.5
s14.5 9.66602 18.5 12.999v8c0 2.66699 0.166992 5.33398 0.5 8.00098s0.5 5.66699 0.5 9z" />
    <glyph glyph-name="colon" unicode=":" horiz-adv-x="225" 
d="M173 427c0 -17.333 -5.83301 -31.833 -17.5 -43.5s-26.167 -17.5 -43.5 -17.5s-31.833 5.83301 -43.5 17.5s-17.5 26.167 -17.5 43.5s5.83301 31.833 17.5 43.5s26.167 17.5 43.5 17.5s31.833 -5.83301 43.5 -17.5s17.5 -26.167 17.5 -43.5zM173 53
c0 -17.333 -5.83301 -32 -17.5 -44s-26.167 -18 -43.5 -18s-31.833 6 -43.5 18s-17.5 26.667 -17.5 44s5.83301 31.666 17.5 42.999s26.167 17 43.5 17s31.833 -5.66699 43.5 -17s17.5 -25.666 17.5 -42.999z" />
    <glyph glyph-name="semicolon" unicode=";" horiz-adv-x="225" 
d="M173 427c0 -17.333 -5.83301 -31.833 -17.5 -43.5s-26.167 -17.5 -43.5 -17.5s-31.833 5.83301 -43.5 17.5s-17.5 26.167 -17.5 43.5s5.83301 31.833 17.5 43.5s26.167 17.5 43.5 17.5s31.833 -5.83301 43.5 -17.5s17.5 -26.167 17.5 -43.5zM176 34
c0 -18.667 -2.5 -36.832 -7.5 -54.499s-11.167 -33.834 -18.5 -48.501s-14.833 -27.667 -22.5 -39s-14.167 -20.333 -19.5 -27h-51c8 11.333 16.833 26.5 26.5 45.5s14.5 38.167 14.5 57.5c0 8.66699 -2.33301 16.167 -7 22.5s-9.66699 12.5 -15 18.5s-10.333 12.667 -15 20
s-7 17 -7 29c0 15.333 5.33301 28.166 16 38.499s24 15.5 40 15.5c18 0 33.5 -6.66699 46.5 -20s19.5 -32.666 19.5 -57.999z" />
    <glyph glyph-name="less" unicode="&#x3c;" horiz-adv-x="361" 
d="M277 27l-250 219l250 222l41 -42l-200 -177l200 -176z" />
    <glyph glyph-name="equal" unicode="=" horiz-adv-x="459" 
d="M35 316v63h389v-63h-389zM35 153v63h389v-63h-389z" />
    <glyph glyph-name="greater" unicode="&#x3e;" horiz-adv-x="361" 
d="M84 468l250 -219l-250 -222l-41 42l200 177l-200 176z" />
    <glyph glyph-name="question" unicode="?" horiz-adv-x="405" 
d="M355 508c0 -26 -4.33105 -48.666 -12.998 -67.999s-19.334 -36 -32.001 -50s-26.334 -26 -41.001 -36s-28 -18.333 -40 -25c-20 -12 -33.333 -23.667 -40 -35s-10 -26.666 -10 -45.999v-55h-71v63c0 26 4.83301 48.167 14.5 66.5s29.5 36.5 59.5 54.5l37.5 23.5
c11.667 7.66699 21.667 16.334 30 26.001s15 20.667 20 33s7.5 27.166 7.5 44.499c0 38 -11 65.833 -33 83.5s-52 26.5 -90 26.5c-16 0 -31.333 -2.33301 -46 -7s-26.667 -9.33398 -36 -14.001l-27 58c12 6 27.833 12 47.5 18s41.834 9 66.501 9
c32 0 60.333 -4.33301 85 -13s45.167 -20.5 61.5 -35.5s28.666 -32.833 36.999 -53.5s12.5 -43.334 12.5 -68.001zM202.002 49.001c0 -16 -5.66699 -29.5 -17 -40.5s-24.666 -16.5 -39.999 -16.5s-28.666 5.5 -39.999 16.5s-17 24.5 -17 40.5c0 15.333 5.66699 28.5 17 39.5
s24.666 16.5 39.999 16.5s28.666 -5.5 39.999 -16.5s17 -24.167 17 -39.5z" />
    <glyph glyph-name="at" unicode="@" horiz-adv-x="765" 
d="M729 319c0 -31.333 -4.33496 -61.333 -13.002 -90s-20.667 -53.834 -36 -75.501s-33.666 -38.834 -54.999 -51.501s-44.666 -19 -69.999 -19c-34 0 -60 10.5 -78 31.5s-27 47.833 -27 80.5h-2c-4.66699 -10.667 -11 -22.5 -19 -35.5s-17.667 -25.167 -29 -36.5
s-24.666 -20.833 -39.999 -28.5s-32.333 -11.5 -51 -11.5c-15.333 0 -28.833 3.33301 -40.5 10s-21.5 15.334 -29.5 26.001s-14 23 -18 37s-6 28 -6 42c0 32 4.33301 63.833 13 95.5s21.834 60.167 39.501 85.5s39.834 45.833 66.501 61.5s57.667 23.5 93 23.5
c21.333 0 42.5 -2.66699 63.5 -8s38.833 -9.66602 53.5 -12.999l-25 -139l-9 -46c-3.33301 -17.333 -5 -33.666 -5 -48.999c0 -19.333 5 -35.833 15 -49.5s22.667 -20.5 38 -20.5c16.667 0 32 4.66699 46 14s26 21.833 36 37.5s17.833 34 23.5 55s8.5 43.167 8.5 66.5
c0 36.667 -7 70.334 -21 101.001s-33.167 57.167 -57.5 79.5s-52.833 39.833 -85.5 52.5s-67.667 19 -105 19c-38 0 -74.833 -8.5 -110.5 -25.5s-67.334 -40 -95.001 -69s-49.834 -63 -66.501 -102s-25 -80.5 -25 -124.5c0 -40 6.16699 -76.833 18.5 -110.5
s30.166 -63 53.499 -88s52 -44.5 86 -58.5s72.667 -21 116 -21c29.333 0 57.5 3 84.5 9s48.5 12.667 64.5 20l23 -51c-18.667 -7.33301 -44.334 -14.833 -77.001 -22.5s-68 -11.5 -106 -11.5c-51.333 0 -97.333 8.66699 -138 26s-75.167 41 -103.5 71s-50 65.167 -65 105.5
s-22.5 83.166 -22.5 128.499c0 49.333 9 96.833 27 142.5s43.167 86 75.5 121s70.666 63 114.999 84s92.833 31.5 145.5 31.5s99.334 -9.5 140.001 -28.5s74.834 -43 102.501 -72s48.5 -61.333 62.5 -97s21 -69.834 21 -102.501zM475.998 403
c-2.66699 0.666992 -6.33594 1.66699 -11.0029 3s-9.66699 2.5 -15 3.5s-10.666 1.83301 -15.999 2.5s-9.66602 1 -12.999 1c-20 0 -38.333 -5.83301 -55 -17.5s-30.667 -27 -42 -46s-20.166 -40.667 -26.499 -65s-9.5 -49.5 -9.5 -75.5c0 -14.667 3 -29 9 -43
s16 -21 30 -21c20 0 37.833 8 53.5 24s29.5 36 41.5 60s22.167 49.833 30.5 77.5s14.833 53.167 19.5 76.5l4 20v0z" />
    <glyph glyph-name="A" unicode="A" horiz-adv-x="627" 
d="M98 0h-77l255 666h76l256 -666h-85l-61 165h-303zM395 345l-42 114l-15 41l-13 37c-4.66699 12.667 -9 25 -13 37h-2c-4 -12 -8.33301 -24.333 -13 -37l-13 -37.5c-4.66699 -13.667 -9.66699 -27.167 -15 -40.5l-85 -228h253z" />
    <glyph glyph-name="B" unicode="B" horiz-adv-x="572" 
d="M519 187c0 -34 -6.00195 -62.832 -18.002 -86.499s-29 -43 -51 -58s-48.333 -25.833 -79 -32.5s-64.667 -10 -102 -10h-173v666h176c30.667 0 59.334 -3 86.001 -9s49.834 -15.667 69.501 -29s35 -30.5 46 -51.5s16.5 -46.5 16.5 -76.5
c0 -39.333 -10.667 -71.333 -32 -96s-50.333 -41.667 -87 -51v-2c20.667 -3.33301 40 -9.5 58 -18.5s33.667 -20.5 47 -34.5s23.833 -30.333 31.5 -49s11.5 -39.334 11.5 -62.001zM409.998 495.001c0 37.333 -12.168 64.333 -36.501 81s-60.166 25 -107.499 25h-93v-221h91
c51.333 0 88.5 9.33301 111.5 28s34.5 47.667 34.5 87zM437.997 185.001c0 20 -2.83203 38 -8.49902 54s-15 29.833 -28 41.5s-30 20.5 -51 26.5s-46.833 9 -77.5 9h-100v-251h94c59.333 0 102.666 9.5 129.999 28.5s41 49.5 41 91.5z" />
    <glyph glyph-name="C" unicode="C" horiz-adv-x="615" 
d="M579 55c-8.66699 -8 -19.6689 -16.0039 -33.002 -24.0039s-28.5 -15.167 -45.5 -21.5s-35.833 -11.5 -56.5 -15.5s-42.667 -6 -66 -6c-52 0 -98.167 9.66699 -138.5 29s-74.333 45 -102 77s-48.667 68.833 -63 110.5s-21.5 85.167 -21.5 130.5
c0 44.667 7.33301 87.834 22 129.501s36 78.167 64 109.5s62.167 56.5 102.5 75.5s86.166 28.5 137.499 28.5c42.667 0 78.334 -4.5 107.001 -13.5s55.334 -21.167 80.001 -36.5l-39 -59c-19.333 13.333 -41.166 24 -65.499 32s-52.5 12 -84.5 12
c-40 0 -75.167 -7.66699 -105.5 -23s-55.5 -35.666 -75.5 -60.999s-35.167 -54.666 -45.5 -87.999s-15.5 -68 -15.5 -104c0 -36.667 5 -72 15 -106s25.167 -64.167 45.5 -90.5s45.833 -47.333 76.5 -63s66.667 -23.5 108 -23.5c36 0 67.333 5.33301 94 16
s49.667 24.334 69 41.001l36 -56v0z" />
    <glyph glyph-name="D" unicode="D" horiz-adv-x="679" 
d="M629 341c0 -48 -7.50195 -92.833 -22.502 -134.5s-38 -77.667 -69 -108s-70.5 -54.333 -118.5 -72s-105.333 -26.5 -172 -26.5h-151v666h156c65.333 0 121.833 -8 169.5 -24s86.834 -38.167 117.501 -66.5s53.334 -62.5 68.001 -102.5s22 -84 22 -132zM546.998 339
c0 90.667 -24.333 157.167 -73 199.5s-123.667 63.5 -225 63.5h-75v-538h80c96.667 0 169.667 23.167 219 69.5s74 114.833 74 205.5z" />
    <glyph glyph-name="E" unicode="E" horiz-adv-x="503" 
d="M96 0v666h342v-66h-264v-214h232v-66h-232v-254h271v-66h-349z" />
    <glyph glyph-name="F" unicode="F" horiz-adv-x="490" 
d="M174 600v-214h236v-66h-236v-320h-78v666h349v-66h-271z" />
    <glyph glyph-name="G" unicode="G" horiz-adv-x="707" 
d="M629 57c-2 -2 -8.16309 -6.66797 -18.4961 -14.001s-25.333 -15.166 -45 -23.499s-44.5 -15.666 -74.5 -21.999s-65.667 -9.5 -107 -9.5c-52.667 0 -99.5 9.66699 -140.5 29s-75.667 45.166 -104 77.499s-49.833 69.333 -64.5 111s-22 84.834 -22 129.501
c0 45.333 7.5 88.666 22.5 129.999s36.667 77.833 65 109.5s63.333 56.834 105 75.501s89.167 28 142.5 28c28 0 53 -2 75 -6s41.5 -9 58.5 -15s31.667 -12.833 44 -20.5s23.166 -14.834 32.499 -21.501l-41 -57c-10 8 -20.5 15.333 -31.5 22s-23.333 12.5 -37 17.5
s-28.834 8.83301 -45.501 11.5s-35.667 4 -57 4c-43.333 0 -80.833 -7.66699 -112.5 -23s-57.834 -35.833 -78.501 -61.5s-35.834 -55 -45.501 -88s-14.5 -67.5 -14.5 -103.5s5 -71 15 -105s25.167 -64.167 45.5 -90.5s46.333 -47.5 78 -63.5s69.167 -24 112.5 -24
c29.333 0 54.333 2 75 6s37.667 8.66699 51 14c16 6 29 13 39 21v187h-143v66h221v-291v0z" />
    <glyph glyph-name="H" unicode="H" horiz-adv-x="725" 
d="M551 0v318h-377v-318h-78v666h78v-282h377v282h78v-666h-78z" />
    <glyph glyph-name="I" unicode="I" horiz-adv-x="282" 
d="M102 0v666h78v-666h-78z" />
    <glyph glyph-name="J" unicode="J" horiz-adv-x="283" 
d="M187 -14c0 -56.667 -12.667 -100.167 -38 -130.5s-63 -45.5 -113 -45.5c-14 0 -26 1.16699 -36 3.5s-17 4.5 -21 6.5l12 67c3.33301 -1.33301 8.33301 -2.83301 15 -4.5s14.667 -2.5 24 -2.5c27.333 0 47.333 9.5 60 28.5s19 48.833 19 89.5v668h78v-680v0z" />
    <glyph glyph-name="K" unicode="K" horiz-adv-x="569" 
d="M535 666l-268 -314l286 -352h-97l-280 347l268 319h91zM96 0v666h77v-666h-77z" />
    <glyph glyph-name="L" unicode="L" horiz-adv-x="473" 
d="M96 0v666h78v-600h262v-66h-340z" />
    <glyph glyph-name="M" unicode="M" horiz-adv-x="852" 
d="M386 0l-162.003 436.999c-4.66699 11.333 -8.66699 22.5 -12 33.5s-6.66602 20.833 -9.99902 29.5l-10 29h-2c-0.666992 -10 -1.66699 -20.333 -3 -31c-1.33301 -9.33301 -2.5 -19.5 -3.5 -30.5s-2.16699 -22.167 -3.5 -33.5l-53 -434h-73l91 666h73l165 -453l15.5 -45
l13.5 -39c4.66699 -13.333 9 -26.333 13 -39h2c4 12.667 8.33301 25.667 13 39l13.5 39l15.5 45l165 453h74l90 -666h-79l-57 436l-4 33c-1.33301 10.667 -2.66602 20.667 -3.99902 30c-1.33301 10.667 -2.33301 20.667 -3 30h-2c-3.33301 -10 -6.33301 -20 -9 -30
c-3.33301 -9.33301 -6.66602 -19.166 -9.99902 -29.499l-11 -32.5l-158 -437h-75z" />
    <glyph glyph-name="N" unicode="N" horiz-adv-x="711" 
d="M545 0l-328.998 475c-6 8 -12 17 -18 27l-17 28c-6 10 -11.667 20.333 -17 31h-2l2 -24c0.666992 -7.33301 1.16699 -15.333 1.5 -24s0.5 -17 0.5 -25v-488h-72v666h77l314 -451l22.5 -34.5l20.5 -31.5c7.33301 -11.333 13.666 -22 18.999 -32h2
c-0.666992 8 -1.33398 16.667 -2.00098 26c-0.666992 8 -1.16699 17.333 -1.5 28s-0.5 22.667 -0.5 36v459h72v-666h-72z" />
    <glyph glyph-name="O" unicode="O" horiz-adv-x="760" 
d="M707 334c0 -46 -7.33301 -89.833 -22 -131.5s-36 -78.334 -64 -110.001s-62.167 -57 -102.5 -76s-86.166 -28.5 -137.499 -28.5s-97.333 9.33301 -138 28s-75 43.834 -103 75.501s-49.5 68.167 -64.5 109.5s-22.5 85 -22.5 131s7.33301 89.833 22 131.5
s36 78.334 64 110.001s62.167 57 102.5 76s86.166 28.5 137.499 28.5s97.333 -9.33301 138 -28s75 -43.834 103 -75.501s49.5 -68.167 64.5 -109.5s22.5 -85 22.5 -131zM625 332c0 37.333 -5.33301 73.001 -16 107.001s-26.167 63.833 -46.5 89.5
s-45.666 46.167 -75.999 61.5s-65.5 23 -105.5 23s-75.167 -7.5 -105.5 -22.5s-56 -35.333 -77 -61s-36.833 -55.334 -47.5 -89.001s-16 -69.167 -16 -106.5s5.33301 -73 16 -107s26.167 -63.833 46.5 -89.5s45.666 -46.167 75.999 -61.5s65.5 -23 105.5 -23
s75.167 7.5 105.5 22.5s56 35.167 77 60.5s36.833 55 47.5 89s16 69.667 16 107z" />
    <glyph glyph-name="P" unicode="P" horiz-adv-x="542" 
d="M497 474c0 -66 -21.333 -116.667 -64 -152s-103 -53 -181 -53h-78v-269h-78v666h167c33.333 0 64.333 -4 93 -12s53.5 -20 74.5 -36s37.333 -36 49 -60s17.5 -52 17.5 -84zM417 471c0 18.667 -2.83398 36.001 -8.50098 52.001s-15 29.667 -28 41
s-29.833 20.166 -50.5 26.499s-45.667 9.5 -75 9.5h-81v-265h78c58.667 0 100.834 11.667 126.501 35s38.5 57 38.5 101z" />
    <glyph glyph-name="Q" unicode="Q" horiz-adv-x="760" 
d="M456 -4c24.667 -31.333 49.502 -54.8311 74.502 -70.498s56.5 -23.5 94.5 -23.5c19.333 0 36.166 3.33301 50.499 10s24.5 12.667 30.5 18l29 -58c-10.667 -9.33301 -25.5 -17.333 -44.5 -24s-41.167 -10 -66.5 -10c-22.667 0 -44.334 2.5 -65.001 7.5
s-41.334 13.333 -62.001 25s-41.334 27.167 -62.001 46.5s-42.334 43 -65.001 71c-49.333 1.33301 -93.666 11.666 -132.999 30.999s-72.666 44.666 -99.999 75.999s-48.166 67.333 -62.499 108s-21.5 83.667 -21.5 129c0 46 7.33301 89.833 22 131.5s36 78.334 64 110.001
s62.167 57 102.5 76s86.166 28.5 137.499 28.5s97.333 -9.33301 138 -28s75 -43.834 103 -75.501s49.5 -68.167 64.5 -109.5s22.5 -85 22.5 -131c0 -40 -5.66699 -78.5 -17 -115.5s-27.666 -70.5 -48.999 -100.5s-47.5 -55.667 -78.5 -77s-66.5 -36.333 -106.5 -45z
M625.002 332.002c0 37.333 -5.33301 73.001 -16 107.001s-26.167 63.833 -46.5 89.5s-45.666 46.167 -75.999 61.5s-65.5 23 -105.5 23s-75.167 -7.5 -105.5 -22.5s-56 -35.333 -77 -61s-36.833 -55.334 -47.5 -89.001s-16 -69.167 -16 -106.5s5.33301 -73 16 -107
s26.167 -63.833 46.5 -89.5s45.666 -46.167 75.999 -61.5s65.5 -23 105.5 -23s75.167 7.5 105.5 22.5s56 35.167 77 60.5s36.833 55 47.5 89s16 69.667 16 107z" />
    <glyph glyph-name="R" unicode="R" horiz-adv-x="570" 
d="M454 0l-133.998 189.002c-19.333 27.333 -35.166 48.833 -47.499 64.5s-23.166 27.5 -32.499 35.5s-18 13 -26 15s-17.667 3 -29 3h-11v-307h-78v666h181c70 0 124.333 -15.333 163 -46s58 -74.334 58 -131.001c0 -28 -4.83301 -52.5 -14.5 -73.5
s-22.834 -38.667 -39.501 -53s-36.334 -25.5 -59.001 -33.5s-47.334 -12.667 -74.001 -14v-2c6.66699 -4.66699 15.167 -12.834 25.5 -24.501s25.166 -31.167 44.499 -58.5l165 -230h-92zM418.002 487.002c0 37.333 -12.168 65.5 -36.501 84.5s-62.166 28.5 -113.499 28.5
h-94v-229h100c50 0 86.5 10 109.5 30s34.5 48.667 34.5 86z" />
    <glyph glyph-name="S" unicode="S" horiz-adv-x="499" 
d="M451 167c0 -26 -5.33398 -49.998 -16.001 -71.998s-25.5 -41 -44.5 -57s-42 -28.333 -69 -37s-56.5 -13 -88.5 -13c-25.333 0 -48.333 2.5 -69 7.5s-38.834 11 -54.501 18s-29 14.333 -40 22s-19.5 14.5 -25.5 20.5l40 56l17.5 -15
c7.66699 -6.66699 17.834 -13.334 30.501 -20.001s27.667 -12.334 45 -17.001s37 -7 59 -7c20.667 0 39.334 3.16699 56.001 9.5s31 14.666 43 24.999s21.167 22.333 27.5 36s9.5 27.834 9.5 42.501c0 20 -4.33301 37.5 -13 52.5s-20.167 28.333 -34.5 40
s-30.666 22.334 -48.999 32.001l-56.5 28.5c-20 10 -39.333 20.5 -58 31.5s-35.167 23.667 -49.5 38s-25.833 31.166 -34.5 50.499s-13 42.333 -13 69c0 27.333 5.33301 51.5 16 72.5s25 38.833 43 53.5s38.667 25.667 62 33s47.666 11 72.999 11c24.667 0 46.667 -2 66 -6
s36.166 -8.66699 50.499 -14s26.333 -11.166 36 -17.499s17.167 -11.5 22.5 -15.5l-38 -58c-6 4.66699 -13.167 9.66699 -21.5 15s-18.333 10.333 -30 15s-24.667 8.5 -39 11.5s-30.166 4.5 -47.499 4.5c-33.333 0 -61 -9.16699 -83 -27.5s-33 -42.833 -33 -73.5
c0 -16.667 3.16699 -31.167 9.5 -43.5s15 -23.5 26 -33.5s23.667 -19 38 -27s29.833 -16 46.5 -24l67 -33.5c22.667 -11.667 43 -25.667 61 -42s32.833 -35.833 44.5 -58.5s17.5 -50.334 17.5 -83.001z" />
    <glyph glyph-name="T" unicode="T" horiz-adv-x="497" 
d="M288 600v-600h-79v600h-189v66h457v-66h-189z" />
    <glyph glyph-name="U" unicode="U" horiz-adv-x="690" 
d="M600 253c0 -40.667 -4.99902 -77.335 -14.999 -110.002s-25.333 -60.5 -46 -83.5s-46.834 -40.667 -78.501 -53s-69.167 -18.5 -112.5 -18.5c-45.333 0 -84.333 6.33301 -117 19s-59.5 30.334 -80.5 53.001s-36.333 50 -46 82s-14.5 67.667 -14.5 107v417h78v-407
c0 -69.333 14.667 -120.666 44 -153.999s75.333 -50 138 -50c60 0 104.5 17.667 133.5 53s43.5 81 43.5 137v421h73v-413v0z" />
    <glyph glyph-name="V" unicode="V" horiz-adv-x="616" 
d="M350 0h-76l-256 666h84l171 -459l14 -40.5l13 -37.5c4.66699 -13.333 9 -26.333 13 -39h2l12 39c3.33301 11.333 7.33301 23.833 12 37.5s9.66699 27.167 15 40.5l167 459h77z" />
    <glyph glyph-name="W" unicode="W" horiz-adv-x="875" 
d="M670 0l-71.001 -0.000976562l-129 450c-4 13.333 -7.66699 27.5 -11 42.5l-9 41.5c-2.66699 14.667 -5.66699 29.334 -9 44.001h-2c-4 -14 -7.66699 -28.333 -11 -43l-10.5 -42s-7.5 -29.666 -11.5 -42.999l-132 -450h-71l-182 666h85l113 -445
c3.33301 -12.667 6.16602 -25.667 8.49902 -39s4.83301 -25.666 7.5 -36.999l8 -40h2c2.66699 13.333 5.66699 26.666 9 39.999c2.66699 11.333 5.83398 23.666 9.50098 36.999l10.5 39l128 445h80l126 -442l10.5 -40.5c3.66699 -13.667 6.83398 -26.167 9.50098 -37.5
l8 -39h2c2 12 4.33301 24.667 7 38l7 38c2.66699 14 5.66699 27.667 9 41l115 442h77z" />
    <glyph glyph-name="X" unicode="X" horiz-adv-x="565" 
d="M438 666h82l-195 -321l215 -345h-89l-176 282l-168 -282h-82l211 345l-200 321h89l161 -258z" />
    <glyph glyph-name="Y" unicode="Y" horiz-adv-x="555" 
d="M319 252v-252h-78v252l-223 414h87l178 -340h1l178 340h75z" />
    <glyph glyph-name="Z" unicode="Z" horiz-adv-x="561" 
d="M46 0v55l364 547h-347v64h439v-51l-369 -551h381v-64h-468z" />
    <glyph glyph-name="bracketleft" unicode="[" horiz-adv-x="306" 
d="M80 -161v881h201v-57h-130v-767h130v-57h-201z" />
    <glyph glyph-name="backslash" unicode="\" horiz-adv-x="402" 
d="M77 720l318 -881h-70l-318 881h70z" />
    <glyph glyph-name="bracketright" unicode="]" horiz-adv-x="306" 
d="M226 720v-881h-201v57h130v767h-130v57h201z" />
    <glyph glyph-name="asciicircum" unicode="^" horiz-adv-x="584" 
d="M456 288l-164 301l-164 -301h-67l205 378h51l205 -378h-66z" />
    <glyph glyph-name="underscore" unicode="_" horiz-adv-x="395" 
d="M-1 -159v61h397v-61h-397z" />
    <glyph glyph-name="grave" unicode="`" horiz-adv-x="500" 
d="M284 540l-135 126h109l92 -126h-66z" />
    <glyph glyph-name="a" unicode="a" horiz-adv-x="472" 
d="M332 0c-1.33301 6.66699 -2.66992 16.1709 -4.00293 28.5039s-2.33301 22.166 -3 29.499c-5.33301 -7.33301 -12.5 -15 -21.5 -23s-19.5 -15.5 -31.5 -22.5s-25.667 -12.833 -41 -17.5s-32 -7 -50 -7c-40 0 -72.833 11.667 -98.5 35s-38.5 54.666 -38.5 93.999
c0 32 7.83301 58.5 23.5 79.5s36 37.833 61 50.5s52.5 21.667 82.5 27s59.667 8 89 8h21v45c0 30.667 -6.66699 55 -20 73s-38.666 27 -75.999 27c-17.333 0 -32.666 -2 -45.999 -6s-25.166 -8.83301 -35.499 -14.5s-19 -11.334 -26 -17.001l-17.5 -14.5l-39 51
c6 5.33301 13.833 11.833 23.5 19.5s21.334 15 35.001 22s29.667 12.833 48 17.5s39.166 7 62.499 7c52.667 0 93.167 -12.833 121.5 -38.5s42.5 -65.834 42.5 -120.501v-224c0 -24 1 -45.333 3 -64s4.66699 -33.667 8 -45h-73zM320.996 228.004l-20.9971 0.00195312
c-26 0 -49.833 -1.83301 -71.5 -5.5s-40.334 -9.83398 -56.001 -18.501s-28 -20 -37 -34s-13.5 -31 -13.5 -51c0 -12.667 2.33301 -23.334 7 -32.001s10.5 -15.667 17.5 -21s14.667 -9.16602 23 -11.499s16.166 -3.5 23.499 -3.5c18 0 34 2.66699 48 8
s26.167 11.666 36.5 18.999s19.166 14.833 26.499 22.5s13 14.167 17 19.5v108z" />
    <glyph glyph-name="b" unicode="b" horiz-adv-x="519" 
d="M152 720l-0.000976562 -277.998c10.667 11.333 26.5 22.5 47.5 33.5s45.167 16.5 72.5 16.5c32.667 0 61.834 -6 87.501 -18s47.334 -29 65.001 -51s31.167 -48.333 40.5 -79s14 -64.667 14 -102c0 -36.667 -6 -70.5 -18 -101.5s-28.833 -57.833 -50.5 -80.5
s-47.334 -40.334 -77.001 -53.001s-61.834 -19 -96.501 -19c-23.333 0 -44.166 1.66699 -62.499 5s-34.333 7.16602 -48 11.499s-24.5 8.5 -32.5 12.5s-13 6.66699 -15 8v695h73zM151.999 66.002c4.66699 -2 14.167 -5 28.5 -9s33.5 -6 57.5 -6
c27.333 0 51.166 5.33301 71.499 16s37.333 24.667 51 42s23.834 37.5 30.501 60.5s10 46.5 10 70.5c0 25.333 -2.5 49.166 -7.5 71.499s-13.333 42 -25 59s-26.5 30.5 -44.5 40.5s-40 15 -66 15c-13.333 0 -26 -2 -38 -6s-22.833 -8.66699 -32.5 -14
s-17.5 -10.666 -23.5 -15.999s-10 -9 -12 -11v-313z" />
    <glyph glyph-name="c" unicode="c" horiz-adv-x="440" 
d="M409 36c-4.66699 -4 -11.1689 -8.83594 -19.502 -14.5029s-18.833 -11 -31.5 -16s-27.334 -9.16699 -44.001 -12.5s-35.334 -5 -56.001 -5c-35.333 0 -66.666 7 -93.999 21s-50.166 32.5 -68.499 55.5s-32.166 49.667 -41.499 80s-14 62.166 -14 95.499
c0 40.667 6 76.834 18 108.501s28 58 48 79s43.333 37 70 48s55 16.5 85 16.5c20 0 37.667 -1.66699 53 -5s29 -7.5 41 -12.5s22.333 -10.167 31 -15.5s16 -10.333 22 -15l-35 -55c-12.667 9.33301 -27.667 18.333 -45 27s-40 13 -68 13c-24.667 0 -46 -4.83301 -64 -14.5
s-32.667 -22.834 -44 -39.501s-19.833 -36.5 -25.5 -59.5s-8.5 -47.5 -8.5 -73.5c0 -25.333 2.83301 -49.666 8.5 -72.999s14.334 -43.666 26.001 -60.999s26.5 -31.166 44.5 -41.499s39.667 -15.5 65 -15.5c14.667 0 28.5 1.5 41.5 4.5s24.5 6.66699 34.5 11
s18.5 8.83301 25.5 13.5s12.167 8.33398 15.5 11.001l30 -55v0z" />
    <glyph glyph-name="d" unicode="d" horiz-adv-x="523" 
d="M40 239c0 38 5.33203 72.499 15.999 103.499s25.5 57.667 44.5 80s41.5 39.5 67.5 51.5s54 18 84 18c34 0 60.5 -5 79.5 -15s33.167 -19 42.5 -27v270h73v-622c0 -21.333 1.66699 -41.166 5 -59.499l7 -38.5h-73c-1.33301 5.33301 -3 13.5 -5 24.5
s-3.33301 21.167 -4 30.5c-13.333 -17.333 -31.5 -32.833 -54.5 -46.5s-51.167 -20.5 -84.5 -20.5c-28.667 0 -55.167 5.5 -79.5 16.5s-45.166 27.333 -62.499 49s-31 48 -41 79s-15 66.5 -15 106.5zM117.999 240.999c0 -27.333 2.50195 -52.501 7.50195 -75.501
s13 -42.667 24 -59s25 -29.166 42 -38.499s37.5 -14 61.5 -14c16 0 30.667 2.66699 44 8s25.166 11.5 35.499 18.5s19 14.167 26 21.5s12.167 13.333 15.5 18v265c-11.333 10 -25.833 19.833 -43.5 29.5s-41.5 14.5 -71.5 14.5c-22.667 0 -42.834 -4.66699 -60.501 -14
s-32.5 -22.5 -44.5 -39.5s-21 -37 -27 -60s-9 -47.833 -9 -74.5z" />
    <glyph glyph-name="e" unicode="e" horiz-adv-x="490" 
d="M118 242c0.666992 -25.333 3.83496 -49.666 9.50195 -72.999s14.5 -43.666 26.5 -60.999s27.333 -31.166 46 -41.499s41.667 -15.5 69 -15.5c16.667 0 32 1.66699 46 5s26.5 7.16602 37.5 11.499s20.667 9 29 14l20.5 12.5l30 -57c-6 -4 -13.833 -8.83301 -23.5 -14.5
s-21.334 -11 -35.001 -16s-29.334 -9.33301 -47.001 -13s-37.5 -5.5 -59.5 -5.5c-38 0 -71.167 6.66699 -99.5 20s-52 31.5 -71 54.5s-33.167 50 -42.5 81s-14 64.167 -14 99.5s5.16699 68.166 15.5 98.499s25 56.666 44 78.999s41.833 39.833 68.5 52.5s56 19 88 19
s60.5 -6 85.5 -18s45.5 -29 61.5 -51s27.5 -48.333 34.5 -79s8.83301 -64.667 5.5 -102h-325v0zM370.001 300c-0.666992 16.667 -3.16602 32.833 -7.49902 48.5s-11 29.5 -20 41.5s-20.833 21.5 -35.5 28.5s-32.334 10.5 -53.001 10.5c-38.667 0 -68.667 -12 -90 -36
s-35.333 -55 -42 -93h248z" />
    <glyph glyph-name="f" unicode="f" horiz-adv-x="317" 
d="M336 656c-3.33301 1.33301 -10.333 3.66699 -21 7s-24.667 5 -42 5c-32 0 -56.667 -10.333 -74 -31s-26 -51 -26 -91v-66h122v-58h-122v-422h-73v422h-80v58h80v71c0 55.333 15.167 99.333 45.5 132s73.5 49 129.5 49c23.333 0 41.5 -1.66699 54.5 -5s21.5 -6 25.5 -8z
" />
    <glyph glyph-name="g" unicode="g" horiz-adv-x="505" 
d="M473 480l0.00195312 -58.0029h-74c23.333 -29.333 35 -64.666 35 -105.999c0 -25.333 -4.5 -48.666 -13.5 -69.999s-21.833 -39.833 -38.5 -55.5s-36.834 -28 -60.501 -37s-50.167 -13.5 -79.5 -13.5c-18.667 0 -36.334 2 -53.001 6c-6 -3.33301 -12.833 -8 -20.5 -14
s-11.5 -14.667 -11.5 -26c0 -13.333 6.5 -22.666 19.5 -27.999s29.167 -8.66602 48.5 -9.99902c26 -1.33301 53.667 -2.83301 83 -4.5s56.333 -6.66699 81 -15s45.167 -22.166 61.5 -41.499s24.5 -47.666 24.5 -84.999c0 -24.667 -6.5 -46.834 -19.5 -66.501
s-30.333 -36.334 -52 -50.001s-46.834 -24.167 -75.501 -31.5s-58.334 -11 -89.001 -11c-26.667 0 -51.667 2.5 -75 7.5s-43.666 13 -60.999 24s-31 24.833 -41 41.5s-15 37 -15 61c0 27.333 7.66699 51.5 23 72.5s35 38.167 59 51.5
c-13.333 6.66699 -23.833 15.5 -31.5 26.5s-11.5 25.833 -11.5 44.5c0 16 4.83301 30.5 14.5 43.5s21.167 23.5 34.5 31.5c-27.333 15.333 -48.333 36 -63 62s-22 55 -22 87c0 25.333 4.5 48.666 13.5 69.999s21.833 39.833 38.5 55.5s36.834 28 60.501 37
s50.167 13.5 79.5 13.5c26.667 0 51.667 -4 75 -12h156zM359.002 315.997c0 34 -10.167 61.833 -30.5 83.5s-49.166 32.5 -86.499 32.5s-66.166 -10.833 -86.499 -32.5s-30.5 -49.5 -30.5 -83.5s10.167 -61.833 30.5 -83.5s49.166 -32.5 86.499 -32.5
s66.166 10.833 86.499 32.5s30.5 49.5 30.5 83.5zM184.002 5.99707c-43.333 -25.333 -64.999 -59.002 -64.999 -101.002c0 -23.333 9.66699 -43.166 29 -59.499s50.666 -24.5 93.999 -24.5c48 0 86.5 8.83301 115.5 26.5s43.5 41.5 43.5 71.5
c0 18.667 -3.83301 33.334 -11.5 44.001s-17.5 18.5 -29.5 23.5s-25.333 8.16699 -40 9.5s-29 2.33301 -43 3c-15.333 1.33301 -31 2.33301 -47 3s-31.333 2 -46 4z" />
    <glyph glyph-name="h" unicode="h" horiz-adv-x="527" 
d="M376 0l0.00195312 328c0 30 -6.16699 53.833 -18.5 71.5s-34.5 26.5 -66.5 26.5c-18.667 0 -35.834 -4 -51.501 -12s-29.667 -17 -42 -27s-22.333 -19.833 -30 -29.5l-15.5 -19.5v-338h-73v720h73v-309c5.33301 6.66699 12.5 14.667 21.5 24s20 18.166 33 26.499
s27.833 15.5 44.5 21.5s35.667 9 57 9c25.333 0 46.833 -4 64.5 -12s32.167 -18.667 43.5 -32s19.666 -29.166 24.999 -47.499s8 -37.833 8 -58.5v-342h-73z" />
    <glyph glyph-name="i" unicode="i" horiz-adv-x="250" 
d="M125 678c15.333 0 28.166 -5.16699 38.499 -15.5s15.5 -23.166 15.5 -38.499s-5.16699 -28.166 -15.5 -38.499s-23.166 -15.5 -38.499 -15.5s-28.166 5.16699 -38.499 15.5s-15.5 23.166 -15.5 38.499s5.16699 28.166 15.5 38.499s23.166 15.5 38.499 15.5zM88 0v480h74
v-480h-74z" />
    <glyph glyph-name="j" unicode="j" horiz-adv-x="239" 
d="M119 678c15.333 0 28.166 -5.16699 38.499 -15.5s15.5 -23.166 15.5 -38.499s-5.16699 -28.166 -15.5 -38.499s-23.166 -15.5 -38.499 -15.5s-28.166 5.16699 -38.499 15.5s-15.5 23.166 -15.5 38.499s5.16699 28.166 15.5 38.499s23.166 15.5 38.499 15.5zM157 -64
c0 -24.667 -2.5 -47.167 -7.5 -67.5s-13 -37.833 -24 -52.5s-25.167 -26 -42.5 -34s-38.333 -12 -63 -12c-16.667 0 -29 0.833008 -37 2.5s-13 3.16699 -15 4.5l12 61c2.66699 -1.33301 6.5 -2.5 11.5 -3.5s12.5 -1.5 22.5 -1.5c26.667 0 45 10.167 55 30.5
s15 48.833 15 85.5v531h73v-544v0z" />
    <glyph glyph-name="k" unicode="k" horiz-adv-x="468" 
d="M79 0v720h73v-720h-73zM355 480h87l-200 -212l209 -268h-89l-205 268z" />
    <glyph glyph-name="l" unicode="l" horiz-adv-x="241" 
d="M84 0v720h73v-720h-73z" />
    <glyph glyph-name="m" unicode="m" horiz-adv-x="793" 
d="M425 411c9.33301 10 19.333 20 30 30s22.334 18.667 35.001 26s26.5 13.333 41.5 18s31.167 7 48.5 7c24 0 44.667 -3.83301 62 -11.5s31.333 -18.167 42 -31.5s18.5 -29.166 23.5 -47.499s7.5 -38.166 7.5 -59.499v-342h-73v328c0 29.333 -5.5 53 -16.5 71
s-31.833 27 -62.5 27c-14.667 0 -28.5 -2.5 -41.5 -7.5s-25 -11.333 -36 -19s-20.667 -15.834 -29 -24.501s-15.5 -16.667 -21.5 -24v-351h-73v328c0 30 -5.83301 53.833 -17.5 71.5s-31.5 26.5 -59.5 26.5c-17.333 0 -33.5 -3.83301 -48.5 -11.5s-28 -16.5 -39 -26.5
s-20.167 -19.833 -27.5 -29.5l-15 -19.5v-339h-73v480h73v-68c5.33301 6.66699 12.166 14.5 20.499 23.5s18.5 17.667 30.5 26s25.833 15.5 41.5 21.5s33.834 9 54.501 9c35.333 0 62.666 -7.83301 81.999 -23.5s33 -34.834 41 -57.501z" />
    <glyph glyph-name="n" unicode="n" horiz-adv-x="530" 
d="M379 0l0.00195312 328c0 30 -6.16699 53.833 -18.5 71.5s-34.5 26.5 -66.5 26.5c-18.667 0 -35.834 -4 -51.501 -12s-29.667 -17 -42 -27s-22.333 -19.833 -30 -29.5l-15.5 -19.5v-338h-73v480h73v-69c5.33301 6.66699 12.5 14.667 21.5 24s20 18.166 33 26.499
s27.833 15.5 44.5 21.5s35.667 9 57 9c25.333 0 46.833 -4 64.5 -12s32.167 -18.667 43.5 -32s19.666 -29.166 24.999 -47.499s8 -37.833 8 -58.5v-342h-73z" />
    <glyph glyph-name="o" unicode="o" horiz-adv-x="528" 
d="M488 241c0 -28 -4.16992 -57 -12.5029 -87s-21.5 -57.167 -39.5 -81.5s-41.333 -44.5 -70 -60.5s-63.334 -24 -104.001 -24s-75 7.83301 -103 23.5s-50.833 35.667 -68.5 60s-30.5 51.333 -38.5 81s-12 58.5 -12 86.5s3.83301 57 11.5 87s20.167 57.167 37.5 81.5
s39.833 44.5 67.5 60.5s61.834 24 102.501 24s75.334 -7.83301 104.001 -23.5s52.334 -35.667 71.001 -60s32.334 -51.333 41.001 -81s13 -58.5 13 -86.5zM409.997 239c0 26 -3.16797 50.5 -9.50098 73.5s-16 43.167 -29 60.5s-29 31 -48 41s-40.833 15 -65.5 15
c-25.333 0 -46.833 -5 -64.5 -15s-32 -23.5 -43 -40.5s-19.167 -36.833 -24.5 -59.5s-8 -47 -8 -73s2.83301 -50.5 8.5 -73.5s14.5 -43.167 26.5 -60.5s27 -31 45 -41s39.667 -15 65 -15c24.667 0 46.334 5 65.001 15s34 23.5 46 40.5s21 36.833 27 59.5s9 47 9 73z" />
    <glyph glyph-name="p" unicode="p" horiz-adv-x="529" 
d="M489 241c0 -38 -5.16895 -72.501 -15.502 -103.501s-25 -57.5 -44 -79.5s-41.5 -39.167 -67.5 -51.5s-54.333 -18.5 -85 -18.5c-34 0 -60.5 5 -79.5 15s-33.167 19 -42.5 27v-249h-73v699h73v-52c12.667 15.333 30.334 29.833 53.001 43.5s51.334 20.5 86.001 20.5
c29.333 0 56 -5.66699 80 -17s44.5 -27.666 61.5 -48.999s30.167 -47.5 39.5 -78.5s14 -66.5 14 -106.5zM410.998 238.999c0 26.667 -2.66602 51.498 -7.99902 74.498s-13.333 42.833 -24 59.5s-24.334 29.667 -41.001 39s-36.334 14 -59.001 14
c-16.667 0 -32 -2.66699 -46 -8s-26.167 -11.666 -36.5 -18.999s-19 -14.666 -26 -21.999s-12.167 -13.333 -15.5 -18v-264c11.333 -10 25.833 -19.833 43.5 -29.5s41.5 -14.5 71.5 -14.5c22.667 0 42.834 4.66699 60.501 14s32.5 22.5 44.5 39.5s21 36.833 27 59.5
s9 47.667 9 75z" />
    <glyph glyph-name="q" unicode="q" horiz-adv-x="522" 
d="M367 -217l0.00195312 254.997c-10.667 -11.333 -26.5 -22.5 -47.5 -33.5s-45.167 -16.5 -72.5 -16.5c-32.667 0 -61.834 6.16699 -87.501 18.5s-47.334 29.5 -65.001 51.5s-31.167 48.333 -40.5 79s-14 64.334 -14 101.001s6.16699 70.5 18.5 101.5
s29.333 57.833 51 80.5s47.334 40.334 77.001 53.001s61.5 19 95.5 19c24 0 45.167 -1.66699 63.5 -5s34.166 -7.16602 47.499 -11.499s24 -8.5 32 -12.5s13 -6.66699 15 -8v-672h-73zM367.002 411.997c-4.66699 2 -13.833 5.33301 -27.5 10s-33.167 7 -58.5 7
c-27.333 0 -51.166 -5.33301 -71.499 -16s-37.333 -24.667 -51 -42s-23.834 -37.5 -30.501 -60.5s-10 -46.5 -10 -70.5c0 -25.333 2.5 -49.166 7.5 -71.499s13.333 -42 25 -59s26.5 -30.5 44.5 -40.5s40 -15 66 -15c13.333 0 26 2 38 6s22.833 8.66699 32.5 14
s17.5 10.666 23.5 15.999s10 9 12 11v311z" />
    <glyph glyph-name="r" unicode="r" horiz-adv-x="345" 
d="M315 412c-2.66699 1.33301 -7.17188 3 -13.5049 5s-15.833 3 -28.5 3c-18 0 -34 -4.33301 -48 -13s-26 -18.667 -36 -30s-17.833 -22.333 -23.5 -33s-9.16699 -18 -10.5 -22v-322h-73v480h73v-75c4.66699 8 10.834 17 18.501 27s16.834 19.5 27.501 28.5
s22.834 16.5 36.501 22.5s28.834 9 45.501 9c14.667 0 25.834 -1.33301 33.501 -4s13.167 -4.66699 16.5 -6z" />
    <glyph glyph-name="s" unicode="s" horiz-adv-x="408" 
d="M364 129c0 -44 -15.3291 -78.665 -45.9961 -103.998s-72.334 -38 -125.001 -38c-34.667 0 -64.834 5 -90.501 15s-46.167 20.333 -61.5 31l32 56c9.33301 -6.66699 24.166 -14.834 44.499 -24.501s45.166 -14.5 74.499 -14.5c30 0 53.833 6 71.5 18s26.5 29 26.5 51
c0 10.667 -2.16699 20.167 -6.5 28.5s-11 16 -20 23s-20.167 13.833 -33.5 20.5s-28.666 13.667 -45.999 21c-18.667 8 -36 16.333 -52 25s-30 18.667 -42 30s-21.333 24.5 -28 39.5s-10 32.833 -10 53.5c0 18.667 3.33301 36 10 52s16.5 30 29.5 42s29 21.333 48 28
s40.5 10 64.5 10c20 0 37.833 -1.83301 53.5 -5.5s29.5 -8 41.5 -13s21.833 -10.167 29.5 -15.5l17.5 -12l-36 -53c-8.66699 6.66699 -21.834 14.334 -39.501 23.001s-40.167 13 -67.5 13c-25.333 0 -45 -5.83301 -59 -17.5s-21 -27.834 -21 -48.501
c0 -22.667 8.66699 -39.834 26 -51.501s39.333 -23.167 66 -34.5c19.333 -8 38 -16.5 56 -25.5s33.833 -19.167 47.5 -30.5s24.667 -24.5 33 -39.5s12.5 -32.5 12.5 -52.5z" />
    <glyph glyph-name="t" unicode="t" horiz-adv-x="348" 
d="M325 17c-7.33301 -4.66699 -19.5 -10.666 -36.5 -17.999s-38.5 -11 -64.5 -11c-40 0 -70 11.167 -90 33.5s-30 53.5 -30 93.5v307h-79v58h79v137h73v-137h121v-58h-121v-300c0 -24 4 -41.833 12 -53.5s22.667 -17.5 44 -17.5c15.333 0 29 2.66699 41 8
s20 9.66602 24 12.999l27 -55v0z" />
    <glyph glyph-name="u" unicode="u" horiz-adv-x="528" 
d="M149 480l-0.00195312 -327.996c0 -30 6.16699 -53.833 18.5 -71.5s34.833 -26.5 67.5 -26.5c18 0 35 4 51 12s30 17 42 27s21.833 19.833 29.5 29.5l15.5 19.5v338h73v-379c0 -20.667 1 -40.334 3 -59.001s4 -32.667 6 -42h-74c-1.33301 6 -2.66602 16.333 -3.99902 31
s-2.33301 28 -3 40c-5.33301 -7.33301 -12.666 -15.833 -21.999 -25.5s-20.5 -18.834 -33.5 -27.501s-27.833 -15.834 -44.5 -21.501s-35.334 -8.5 -56.001 -8.5c-25.333 0 -47 4 -65 12s-32.667 18.667 -44 32s-19.666 29.166 -24.999 47.499s-8 37.833 -8 58.5v342h73z
" />
    <glyph glyph-name="v" unicode="v" horiz-adv-x="462" 
d="M235 96l134 384h75l-177 -480h-68l-183 480h80l137 -384h2z" />
    <glyph glyph-name="w" unicode="w" horiz-adv-x="698" 
d="M533 0h-66l-119 373h-2l-120 -373h-66l-143 480h80l102 -363h2l113 363h71l113 -364h2l103 364h74z" />
    <glyph glyph-name="x" unicode="x" horiz-adv-x="462" 
d="M32 480h83l58 -86l58 -86l109 172h77l-150 -224l174 -256h-83l-135 199l-125 -199h-76l166 251z" />
    <glyph glyph-name="y" unicode="y" horiz-adv-x="469" 
d="M249 -64c-8 -22 -16.9961 -43.165 -26.9961 -63.498s-22.333 -38.333 -37 -54s-32.334 -28 -53.001 -37s-45.667 -13.5 -75 -13.5c-12.667 0 -22.334 0.5 -29.001 1.5s-12.334 2.16699 -17.001 3.5l10 61c3.33301 -0.666992 7.33301 -1.33398 12 -2.00098s13 -1 25 -1
c16.667 0 31.167 2.33301 43.5 7s23.166 11.667 32.499 21s17.5 20.666 24.5 33.999s13.833 29 20.5 47l23 63l-181 477h82l137 -383h2l133 383h78z" />
    <glyph glyph-name="z" unicode="z" horiz-adv-x="423" 
d="M42 0v46l244 375h-230v59h319v-49l-245 -372h249v-59h-337z" />
    <glyph glyph-name="braceleft" unicode="{" horiz-adv-x="358" 
d="M247 -161c-13.333 0 -26.5 2.16211 -39.5 6.49512s-24.5 10.833 -34.5 19.5s-18.167 19.834 -24.5 33.501s-9.5 29.834 -9.5 48.501v201c0 32.667 -9.83301 58.834 -29.5 78.501s-46.834 29.834 -81.501 30.501v56c34 0.666992 61 10.5 81 29.5s30 45.5 30 79.5v191
c0 18.667 3.16699 34.834 9.5 48.501s14.5 24.834 24.5 33.501s21.333 15 34 19s25.667 6 39 6h87v-57h-66c-23.333 0 -38.666 -7.16699 -45.999 -21.5s-11 -33.5 -11 -57.5v-175c0 -36.667 -9.33301 -64.167 -28 -82.5s-42.667 -31.166 -72 -38.499v-2
c29.333 -8.66699 53.333 -22.834 72 -42.501s28 -48.167 28 -85.5v-187c0 -24.667 3.5 -43.334 10.5 -56.001s22.167 -19 45.5 -19h67v-57h-86z" />
    <glyph glyph-name="bar" unicode="|" horiz-adv-x="284" 
d="M112 -250v1000h60v-1000h-60z" />
    <glyph glyph-name="braceright" unicode="}" horiz-adv-x="358" 
d="M111 720c13.333 0 26.5 -2.16211 39.5 -6.49512s24.5 -10.833 34.5 -19.5s18.167 -19.834 24.5 -33.501s9.5 -29.834 9.5 -48.501v-190c0 -32.667 9.83301 -58.834 29.5 -78.501s46.834 -29.834 81.501 -30.501v-56c-34 -0.666992 -61 -10.5 -81 -29.5
s-30 -45.5 -30 -79.5v-202c0 -18.667 -3.16699 -34.834 -9.5 -48.501s-14.5 -24.834 -24.5 -33.501s-21.333 -15 -34 -19s-25.667 -6 -39 -6h-87v57h66c23.333 0 38.666 7.16699 45.999 21.5s11 33.5 11 57.5v186c0 36.667 9.33301 64.167 28 82.5s42.667 31.166 72 38.499
v2c-29.333 8.66699 -53.333 22.834 -72 42.501s-28 48.167 -28 85.5v176c0 24.667 -3.5 43.334 -10.5 56.001s-22.167 19 -45.5 19h-67v57h86z" />
    <glyph glyph-name="asciitilde" unicode="~" horiz-adv-x="588" 
d="M533 239c-18 -17.333 -39 -31.835 -63 -43.502s-48 -17.5 -72 -17.5c-27.333 0 -50.5 3.66699 -69.5 11s-36.5 15.333 -52.5 24l-46 24c-14.667 7.33301 -31.334 11 -50.001 11c-20 0 -37 -4.16699 -51 -12.5s-26.667 -17.5 -38 -27.5l-36 45
c15.333 13.333 34.333 26.5 57 39.5s47.334 19.5 74.001 19.5c22.667 0 42.5 -3.66699 59.5 -11s33.333 -15.166 49 -23.499s32 -16.166 49 -23.499s37.167 -11 60.5 -11c16 0 32.167 3.83301 48.5 11.5s31.833 17.5 46.5 29.5l34 -45v0z" />
    <glyph glyph-name="exclamdown" unicode="&#xa1;" horiz-adv-x="275" 
d="M81 435c0 16 5.66699 29.5 17 40.5s24.666 16.5 39.999 16.5s28.666 -5.5 39.999 -16.5s17 -24.5 17 -40.5c0 -15.333 -5.66699 -28.5 -17 -39.5s-24.666 -16.5 -39.999 -16.5s-28.666 5.5 -39.999 16.5s-17 24.167 -17 39.5zM109 285h58l16 -467h-90z" />
    <glyph glyph-name="cent" unicode="&#xa2;" horiz-adv-x="440" 
d="M284 491c32.667 -2.66699 58.832 -9.16895 78.499 -19.502s34.834 -19.5 45.501 -27.5l-35 -55c-12.667 9.33301 -27.667 18.333 -45 27s-40 13 -68 13c-24.667 0 -46 -4.83301 -64 -14.5s-32.667 -22.834 -44 -39.501s-19.833 -36.5 -25.5 -59.5s-8.5 -47.5 -8.5 -73.5
c0 -25.333 2.83301 -49.666 8.5 -72.999s14.334 -43.666 26.001 -60.999s26.5 -31.166 44.5 -41.499s39.667 -15.5 65 -15.5c14.667 0 28.5 1.5 41.5 4.5s24.5 6.66699 34.5 11s18.5 8.83301 25.5 13.5s12.167 8.33398 15.5 11.001l30 -55
c-8.66699 -7.33301 -23.167 -16.166 -43.5 -26.499s-47.5 -17.166 -81.5 -20.499v-112h-71v115c-28.667 6 -53.834 16.667 -75.501 32s-39.667 34.166 -54 56.499s-25.166 47.166 -32.499 74.499s-11 55.666 -11 84.999c0 35.333 4.5 67 13.5 95s21.167 52.5 36.5 73.5
s33.666 38 54.999 51s44 22.167 68 27.5v106h71v-102v0z" />
    <glyph glyph-name="sterling" unicode="&#xa3;" horiz-adv-x="468" 
d="M375 356l-0.000976562 -59.0029h-144c0.666992 -8.66699 1.16699 -17 1.5 -25s0.5 -16 0.5 -24c0 -25.333 -2.5 -48.166 -7.5 -68.499s-11.333 -38.166 -19 -53.499s-15.834 -28.333 -24.501 -39s-16.667 -19 -24 -25h258v-62h-362v49
c19.333 10.667 35.833 23.834 49.5 39.501s24.667 32.334 33 50.001s14.5 35.834 18.5 54.501s6 36 6 52c0 8 -0.333008 16.333 -1 25s-1.66699 17.667 -3 27h-96v59h88c-3.33301 21.333 -6.16602 43.5 -8.49902 66.5s-3.5 46.833 -3.5 71.5c0 26.667 3.5 51.167 10.5 73.5
s17.833 41.666 32.5 57.999s33.334 29.166 56.001 38.499s49.667 14 81 14c30 0 54.5 -3.83301 73.5 -11.5s34.5 -15.167 46.5 -22.5l-33 -56c-9.33301 6 -21.5 11.833 -36.5 17.5s-35.167 8.5 -60.5 8.5c-34 0 -58.167 -11.333 -72.5 -34s-21.5 -52 -21.5 -88
c0 -21.333 1.16699 -43.5 3.5 -66.5s4.83301 -46.167 7.5 -69.5h151z" />
    <glyph glyph-name="currency" unicode="&#xa4;" horiz-adv-x="583" 
d="M39 365l-0.00390625 59.0029h76c6.66699 35.333 17.167 68.5 31.5 99.5s33 58 56 81s50 41 81 54s66.167 19.5 105.5 19.5c42 0 74.5 -4.16699 97.5 -12.5s42.5 -17.5 58.5 -27.5l-34 -61c-10.667 6 -25.667 13.5 -45 22.5s-45.666 13.5 -78.999 13.5
c-27.333 0 -51.833 -4.83301 -73.5 -14.5s-40.334 -23 -56.001 -40s-28.667 -37 -39 -60s-17.833 -47.833 -22.5 -74.5h178v-59h-185c-0.666992 -4.66699 -1 -9.33398 -1 -14.001v-14c0 -9.33301 0.166992 -18.333 0.5 -27s0.833008 -17.334 1.5 -26.001h184v-59h-173
c6 -24 14.333 -46.5 25 -67.5s23.834 -39.167 39.501 -54.5s33.834 -27.333 54.501 -36s44.334 -13 71.001 -13c30 0 55.333 4.33301 76 13s37.334 17.334 50.001 26.001l36 -56c-8 -5.33301 -16.667 -10.833 -26 -16.5s-20.5 -10.834 -33.5 -15.501s-28 -8.66699 -45 -12
s-36.833 -5 -59.5 -5c-38 0 -72 6.16699 -102 18.5s-56.167 29.166 -78.5 50.499s-41 46.333 -56 75s-26.167 59.667 -33.5 93h-80v59h70c-0.666992 8.66699 -1.16699 17.167 -1.5 25.5s-0.5 16.833 -0.5 25.5v15c0 4.66699 0.333008 9.66699 1 15h-69z" />
    <glyph glyph-name="yen" unicode="&#xa5;" horiz-adv-x="520" 
d="M302 0h-76v95h-161v59h161v71h-161v59h143l-206 382h87l177 -340h2l178 340h75l-202 -382h144v-59h-161v-71h161v-59h-161v-95z" />
    <glyph glyph-name="brokenbar" unicode="&#xa6;" 
d="M1007 -217h-937v937h937v-937zM145 -142h787v787h-787v-787zM652 509h79l-202 -239l215 -270h-85l-105 131l-39 48c-12.667 15.333 -23.667 29.333 -33 42c-12 14 -22.667 27.667 -32 41v-262h-68v509h68v-242z" />
    <glyph glyph-name="section" unicode="&#xa7;" horiz-adv-x="468" 
d="M398 216c0 -15.333 -2.33203 -29.501 -6.99902 -42.501s-10.5 -24.833 -17.5 -35.5s-14.333 -20 -22 -28s-14.5 -14.667 -20.5 -20c8 -13.333 15 -27.833 21 -43.5s9 -31.167 9 -46.5c0 -26.667 -4.5 -49.667 -13.5 -69s-20.833 -35.166 -35.5 -47.499
s-31.334 -21.333 -50.001 -27s-37.667 -8.5 -57 -8.5c-26.667 0 -49.667 3.66699 -69 11s-34.666 14.666 -45.999 21.999l32 56c9.33301 -5.33301 20.666 -10.833 33.999 -16.5s29.666 -8.5 48.999 -8.5c30 0 51.667 8 65 24s20 35.667 20 59c0 18 -5.5 36.167 -16.5 54.5
s-24.667 37 -41 56s-34.166 38.5 -53.499 58.5s-37.166 40.667 -53.499 62s-30 43.5 -41 66.5s-16.5 46.833 -16.5 71.5c0 15.333 2.16699 29.5 6.5 42.5s9.83301 24.667 16.5 35s14 19.333 22 27s15.667 14.167 23 19.5c-8 11.333 -15.333 24.833 -22 40.5
s-10 33.167 -10 52.5c0 24.667 4.66699 46.5 14 65.5s21.333 34.833 36 47.5s31.167 22.167 49.5 28.5s36.5 9.5 54.5 9.5c30 0 54.167 -3.66699 72.5 -11s33.166 -15.333 44.499 -24l-35 -56c-8 5.33301 -17.833 11.333 -29.5 18s-29.167 10 -52.5 10
c-14.667 0 -27.167 -2.5 -37.5 -7.5s-18.833 -11.5 -25.5 -19.5s-11.667 -16.833 -15 -26.5s-5 -19.5 -5 -29.5c0 -18 5.5 -36.167 16.5 -54.5s24.833 -37.166 41.5 -56.499s34.5 -39 53.5 -59s36.833 -40.667 53.5 -62s30.5 -43.5 41.5 -66.5s16.5 -46.833 16.5 -71.5z
M327.001 215.999c0 17.333 -5.99707 36.335 -17.9971 57.002s-26.333 41.167 -43 61.5s-33.834 39.666 -51.501 57.999s-31.834 33.833 -42.501 46.5c-10 -7.33301 -17.833 -16.666 -23.5 -27.999s-8.5 -27 -8.5 -47c0 -16.667 6 -35.167 18 -55.5
s26.167 -40.833 42.5 -61.5s33.166 -40.334 50.499 -59.001s31.333 -34.334 42 -47.001c10 9.33301 18.167 19.833 24.5 31.5s9.5 26.167 9.5 43.5z" />
    <glyph glyph-name="dieresis" unicode="&#xa8;" horiz-adv-x="500" 
d="M397 592c0 -15.333 -5.16699 -28.166 -15.5 -38.499s-23.166 -15.5 -38.499 -15.5c-14.667 0 -27.167 5.16699 -37.5 15.5s-15.5 23.166 -15.5 38.499c0 14.667 5.16699 27.167 15.5 37.5s22.833 15.5 37.5 15.5c15.333 0 28.166 -5.16699 38.499 -15.5
s15.5 -22.833 15.5 -37.5zM210 592c0 -15.333 -5.16699 -28.166 -15.5 -38.499s-23.166 -15.5 -38.499 -15.5c-14.667 0 -27.167 5.16699 -37.5 15.5s-15.5 23.166 -15.5 38.499c0 14.667 5.16699 27.167 15.5 37.5s22.833 15.5 37.5 15.5
c15.333 0 28.166 -5.16699 38.499 -15.5s15.5 -22.833 15.5 -37.5z" />
    <glyph glyph-name="copyright" unicode="&#xa9;" horiz-adv-x="865" 
d="M805 359c0 -51.333 -9.83301 -99.666 -29.5 -144.999s-46.334 -84.833 -80.001 -118.5s-73.167 -60.334 -118.5 -80.001s-93.666 -29.5 -144.999 -29.5s-99.5 9.83301 -144.5 29.5s-84.333 46.334 -118 80.001s-60.334 73.167 -80.001 118.5s-29.5 93.666 -29.5 144.999
s9.83301 99.666 29.5 144.999s46.334 84.833 80.001 118.5s73 60.334 118 80.001s93.167 29.5 144.5 29.5s99.666 -9.83301 144.999 -29.5s84.833 -46.334 118.5 -80.001s60.334 -73.167 80.001 -118.5s29.5 -93.666 29.5 -144.999zM749 359c0 46.667 -8 89.5 -24 128.5
s-38.167 72.833 -66.5 101.5s-61.833 51 -100.5 67s-80.667 24 -126 24s-87.333 -8 -126 -24s-72 -38.333 -100 -67s-50 -62.5 -66 -101.5s-24 -81.833 -24 -128.5s8 -89.667 24 -129s38 -73.166 66 -101.499s61.333 -50.5 100 -66.5s80.667 -24 126 -24s87.333 8 126 24
s72.167 38.167 100.5 66.5s50.5 62.166 66.5 101.499s24 82.333 24 129zM591 179c-16.667 -13.333 -36.8311 -25.333 -60.498 -36s-53.834 -16 -90.501 -16c-33.333 0 -64 6.16699 -92 18.5s-52.167 29 -72.5 50s-36.166 45.667 -47.499 74s-17 58.166 -17 89.499
c0 32.667 5.83301 63 17.5 91s27.834 52.5 48.501 73.5s45 37.5 73 49.5s58 18 90 18c35.333 0 63.5 -5 84.5 -15s39.833 -21.667 56.5 -35l-38 -48c-10.667 9.33301 -23.834 18.166 -39.501 26.499s-37.167 12.5 -64.5 12.5c-26.667 0 -49.667 -5.16699 -69 -15.5
s-35.5 -23.666 -48.5 -39.999s-22.667 -34.666 -29 -54.999s-9.5 -40.5 -9.5 -60.5c0 -24 4.16699 -46.667 12.5 -68s19.666 -40 33.999 -56s31.333 -28.5 51 -37.5s40.834 -13.5 63.501 -13.5c29.333 0 53.166 5 71.499 15s33.166 19.667 44.499 29l31 -51v0z" />
    <glyph glyph-name="ordfeminine" unicode="&#xaa;" horiz-adv-x="361" 
d="M238 323c-2 11.333 -3.66602 23 -4.99902 35c-9.33301 -10 -22 -19.667 -38 -29s-34.667 -14 -56 -14c-14.667 0 -28.334 2.33301 -41.001 7s-23.834 11.334 -33.501 20.001s-17.167 18.834 -22.5 30.501s-8 24.5 -8 38.5c0 17.333 3.33301 32.5 10 45.5
s15.334 24.167 26.001 33.5c18.667 15.333 42.167 25.833 70.5 31.5s58.5 8.5 90.5 8.5v27c0 21.333 -4.66699 38 -14 50s-26.333 18 -51 18c-21.333 0 -39 -4.16699 -53 -12.5s-25.333 -15.833 -34 -22.5l-33 42c9.33301 8 24.166 17.667 44.499 29s46.5 17 78.5 17
c38.667 0 68.667 -9.33301 90 -28s32 -48 32 -88v-157c0 -16.667 0.833008 -31.834 2.5 -45.501s3.83398 -25.834 6.50098 -36.501h-62v0zM231.001 484c-28 0 -52 -1.83301 -72 -5.5s-36 -12.167 -48 -25.5c-9.33301 -10 -14 -23.333 -14 -40
c0 -14.667 4.83301 -26 14.5 -34s21.5 -12 35.5 -12c11.333 0 21.5 1.66699 30.5 5s17 7.33301 24 12s12.833 9.5 17.5 14.5l12 12.5v73v0z" />
    <glyph glyph-name="guillemotleft" unicode="&#xab;" horiz-adv-x="476" 
d="M356 56l-133 189l133 190h77l-132 -190l132 -189h-77zM178 56l-133 189l133 190h77l-132 -190l132 -189h-77z" />
    <glyph glyph-name="logicalnot" unicode="&#xac;" 
d="M1007 -217h-937v937h937v-937zM145 -142h787v787h-787v-787zM504 0l-117 317.001l-24 68h-2l-2 -22c-0.666992 -6.66699 -1.33398 -14.334 -2.00098 -23.001s-1.66699 -17.334 -3 -26.001l-39 -314h-63l69 509h66l121 -336l11 -32.5
c3.33301 -10.333 6.66602 -20.166 9.99902 -29.499l10 -30h2l9 30c2.66699 9.33301 5.83398 19.166 9.50098 29.499l11.5 32.5l123 336h66l69 -509h-71l-41 314c-1.33301 8.66699 -2.33301 17.334 -3 26.001s-1.66699 16.334 -3 23.001
c-1.33301 7.33301 -2.33301 14.666 -3 21.999h-2c-1.33301 -6.66699 -3.33301 -13.667 -6 -21l-6.5 -22c-2.33301 -8 -5.16602 -16.333 -8.49902 -25l-115 -317h-66z" />
    <glyph glyph-name="minus" unicode="&#xad;" 
d="M1007 -217h-937v937h937v-937zM145 -142h787v787h-787v-787zM652 509h79l-202 -239l215 -270h-85l-105 131l-39 48c-12.667 15.333 -23.667 29.333 -33 42c-12 14 -22.667 27.667 -32 41v-262h-68v509h68v-242z" />
    <glyph glyph-name="registered" unicode="&#xae;" horiz-adv-x="865" 
d="M805 359c0 -51.333 -9.83301 -99.666 -29.5 -144.999s-46.334 -84.833 -80.001 -118.5s-73.167 -60.334 -118.5 -80.001s-93.666 -29.5 -144.999 -29.5s-99.5 9.83301 -144.5 29.5s-84.333 46.334 -118 80.001s-60.334 73.167 -80.001 118.5s-29.5 93.666 -29.5 144.999
s9.83301 99.666 29.5 144.999s46.334 84.833 80.001 118.5s73 60.334 118 80.001s93.167 29.5 144.5 29.5s99.666 -9.83301 144.999 -29.5s84.833 -46.334 118.5 -80.001s60.334 -73.167 80.001 -118.5s29.5 -93.666 29.5 -144.999zM749 359c0 46.667 -8 89.5 -24 128.5
s-38.167 72.833 -66.5 101.5s-61.833 51 -100.5 67s-80.667 24 -126 24s-87.333 -8 -126 -24s-72 -38.333 -100 -67s-50 -62.5 -66 -101.5s-24 -81.833 -24 -128.5s8 -89.667 24 -129s38 -73.166 66 -101.499s61.333 -50.5 100 -66.5s80.667 -24 126 -24s87.333 8 126 24
s72.167 38.167 100.5 66.5s50.5 62.166 66.5 101.499s24 82.333 24 129zM542 136l-109.003 158.998c-11.333 16.667 -21.666 28.167 -30.999 34.5s-22.666 9.5 -39.999 9.5v-203h-65v452h147c22.667 0 42.834 -3.5 60.501 -10.5s32.167 -16.333 43.5 -28
s20 -25.167 26 -40.5s9 -31.333 9 -48c0 -33.333 -10.5 -59.833 -31.5 -79.5s-50.5 -32.167 -88.5 -37.5c10 -7.33301 19 -15.666 27 -24.999s16.667 -20.666 26 -33.999l105 -149h-79zM512.997 460.998c0 21.333 -6.16895 38.499 -18.502 51.499s-34.166 19.5 -65.499 19.5
h-67v-142h46c12.667 0 25.334 0.666992 38.001 2s24 4.33301 34 9s18 11.834 24 21.501s9 22.5 9 38.5z" />
    <glyph glyph-name="macron" unicode="&#xaf;" horiz-adv-x="500" 
d="M114 574v61h271v-61h-271z" />
    <glyph glyph-name="degree" unicode="&#xb0;" horiz-adv-x="346" 
d="M304 548c0 -18 -3.33301 -34.833 -10 -50.5s-16 -29.334 -28 -41.001s-26 -21 -42 -28s-33 -10.5 -51 -10.5s-35 3.5 -51 10.5s-29.833 16.333 -41.5 28s-21 25.334 -28 41.001s-10.5 32.5 -10.5 50.5s3.5 34.833 10.5 50.5s16.333 29.334 28 41.001s25.5 21 41.5 28
s33 10.5 51 10.5s35 -3.5 51 -10.5s29.833 -16.333 41.5 -28s21 -25.334 28 -41.001s10.5 -32.5 10.5 -50.5zM249 548c0 21.333 -7.16699 39.833 -21.5 55.5s-32.5 23.5 -54.5 23.5s-40.167 -7.83301 -54.5 -23.5s-21.5 -34.167 -21.5 -55.5c0 -22 7.16699 -40.667 21.5 -56
s32.5 -23 54.5 -23s40.167 7.66699 54.5 23s21.5 34 21.5 56z" />
    <glyph glyph-name="plusminus" unicode="&#xb1;" horiz-adv-x="813" 
d="M420 686c34.667 30.667 80.001 45.998 136.001 45.998c41.333 0 76.166 -2.66699 104.499 -8s50.5 -10.666 66.5 -15.999v-708h-73v655c-7.33301 2.66699 -19.833 5.5 -37.5 8.5s-39.167 4.5 -64.5 4.5c-38.667 0 -66.667 -11 -84 -33s-26 -53 -26 -93v-62h123v-58h-123
v-422h-73v422h-192v-422h-73v422h-84v58h84v62c0 26.667 4.16699 51.334 12.5 74.001s20.333 42 36 58s35 28.5 58 37.5s49.167 13.5 78.5 13.5c36 0 64 -4.5 84 -13.5s35.667 -17.5 47 -25.5zM369.001 551.998c0 14.667 1.16797 28.333 3.50098 41s5.5 24.667 9.5 36
c-7.33301 6.66699 -18.333 13.667 -33 21s-35.334 11 -62.001 11c-34 0 -60.833 -10.5 -80.5 -31.5s-29.5 -56.833 -29.5 -107.5v-42h192v72z" />
    <glyph glyph-name="twosuperior" unicode="&#xb2;" 
d="M1007 -217h-937v937h937v-937zM145 -142h787v787h-787v-787zM652 509h79l-202 -239l215 -270h-85l-105 131l-39 48c-12.667 15.333 -23.667 29.333 -33 42c-12 14 -22.667 27.667 -32 41v-262h-68v509h68v-242z" />
    <glyph glyph-name="threesuperior" unicode="&#xb3;" 
d="M1007 -217h-937v937h937v-937zM145 -142h787v787h-787v-787zM652 509h79l-202 -239l215 -270h-85l-105 131l-39 48c-12.667 15.333 -23.667 29.333 -33 42c-12 14 -22.667 27.667 -32 41v-262h-68v509h68v-242z" />
    <glyph glyph-name="acute" unicode="&#xb4;" horiz-adv-x="500" 
d="M241 666h109l-135 -126h-66z" />
    <glyph glyph-name="mu" unicode="&#xb5;" horiz-adv-x="547" 
d="M382 0c-0.666992 2.66699 -1.32715 6.66699 -1.99414 12s-1.33398 11.166 -2.00098 17.499l-2 20c-0.666992 7 -1 13.5 -1 19.5c-6 -6.66699 -13.833 -14.667 -23.5 -24s-21 -18.166 -34 -26.499s-27.833 -15.5 -44.5 -21.5s-35.334 -9 -56.001 -9
c-12.667 0 -24.834 1.5 -36.501 4.5s-21.834 7.16699 -30.501 12.5h-2c0.666992 -6 1.16699 -13.5 1.5 -22.5s0.666016 -18.5 0.999023 -28.5s0.5 -20.333 0.5 -31v-29v-101h-73v687h73v-336c0 -11.333 0.833008 -22.5 2.5 -33.5s5.16699 -20.667 10.5 -29
s12.666 -15 21.999 -20s22 -7.5 38 -7.5c16.667 0 32.667 3 48 9s29.5 13.333 42.5 22s24.5 18 34.5 28s18.667 19.333 26 28v339h73v-384c0 -8 0.166992 -16.667 0.5 -26s0.833008 -18.5 1.5 -27.5s1.5 -17.333 2.5 -25s1.83301 -13.5 2.5 -17.5h-73z" />
    <glyph glyph-name="paragraph" unicode="&#xb6;" horiz-adv-x="644" 
d="M499 603l0.00292969 -779.999h-67v780h-104v-780h-68v451c-26.667 0 -51.834 4.5 -75.501 13.5s-44.334 22 -62.001 39s-31.667 37.5 -42 61.5s-15.5 51 -15.5 81s5.16699 57 15.5 81s24.166 44.667 41.499 62s37.833 30.666 61.5 39.999s49.167 14 76.5 14h319v-63h-80z
" />
    <glyph glyph-name="periodcentered" unicode="&#xb7;" horiz-adv-x="220" 
d="M171 291c0 -17.333 -5.83301 -31.833 -17.5 -43.5s-26.167 -17.5 -43.5 -17.5s-31.833 5.83301 -43.5 17.5s-17.5 26.167 -17.5 43.5s5.83301 31.666 17.5 42.999s26.167 17 43.5 17s31.833 -5.66699 43.5 -17s17.5 -25.666 17.5 -42.999z" />
    <glyph glyph-name="periodcentered" unicode="&#x2219;" horiz-adv-x="220" 
d="M171 291c0 -17.333 -5.83301 -31.833 -17.5 -43.5s-26.167 -17.5 -43.5 -17.5s-31.833 5.83301 -43.5 17.5s-17.5 26.167 -17.5 43.5s5.83301 31.666 17.5 42.999s26.167 17 43.5 17s31.833 -5.66699 43.5 -17s17.5 -25.666 17.5 -42.999z" />
    <glyph glyph-name="cedilla" unicode="&#xb8;" horiz-adv-x="500" 
d="M336 -136c0 -27.333 -10.833 -47.999 -32.5 -61.999s-47.5 -21 -77.5 -21c-18 0 -32.167 1.33301 -42.5 4s-18.166 5.33398 -23.499 8.00098l12 42c4.66699 -2.66699 11.334 -5.16699 20.001 -7.5s19.667 -3.5 33 -3.5c15.333 0 27.5 3.16699 36.5 9.5
s13.5 16.166 13.5 29.499c0 9.33301 -2 16.666 -6 21.999s-9.33301 9.5 -16 12.5s-14.334 4.83301 -23.001 5.5s-17.334 1 -26.001 1l36 96h51l-25 -66c20.667 -3.33301 37.5 -11 50.5 -23s19.5 -27.667 19.5 -47z" />
    <glyph glyph-name="onesuperior" unicode="&#xb9;" 
d="M1007 -217h-937v937h937v-937zM145 -142h787v787h-787v-787zM652 509h79l-202 -239l215 -270h-85l-105 131l-39 48c-12.667 15.333 -23.667 29.333 -33 42c-12 14 -22.667 27.667 -32 41v-262h-68v509h68v-242z" />
    <glyph glyph-name="ordmasculine" unicode="&#xba;" horiz-adv-x="393" 
d="M195 315c-28.667 0 -53.0039 5.33301 -73.0039 16s-36.5 24.5 -49.5 41.5s-22.5 36.333 -28.5 58s-9 43.5 -9 65.5s2.83301 44 8.5 66s14.834 41.667 27.501 59s29 31.333 49 42s44.333 16 73 16s53.334 -5.33301 74.001 -16s37.667 -24.5 51 -41.5
s23.333 -36.333 30 -58s10 -43.5 10 -65.5s-3.16699 -44 -9.5 -66s-16.166 -41.667 -29.499 -59s-30.166 -31.333 -50.499 -42s-44.833 -16 -73.5 -16zM191.996 626c-33.333 0 -56.667 -11.833 -70 -35.5s-20 -54.5 -20 -92.5s7.33301 -69.333 22 -94s38.667 -37 72 -37
c34 0 58.167 12 72.5 36s21.5 55 21.5 93s-7.83301 69.167 -23.5 93.5s-40.5 36.5 -74.5 36.5z" />
    <glyph glyph-name="guillemotright" unicode="&#xbb;" horiz-adv-x="476" 
d="M297 56h-76l132 189l-132 190h76l134 -190zM119 56h-76l132 189l-132 190h76l134 -190z" />
    <glyph glyph-name="onequarter" unicode="&#xbc;" 
d="M1007 -217h-937v937h937v-937zM145 -142h787v787h-787v-787zM652 509h79l-202 -239l215 -270h-85l-105 131l-39 48c-12.667 15.333 -23.667 29.333 -33 42c-12 14 -22.667 27.667 -32 41v-262h-68v509h68v-242z" />
    <glyph glyph-name="onehalf" unicode="&#xbd;" 
d="M1007 -217h-937v937h937v-937zM145 -142h787v787h-787v-787zM652 509h79l-202 -239l215 -270h-85l-105 131l-39 48c-12.667 15.333 -23.667 29.333 -33 42c-12 14 -22.667 27.667 -32 41v-262h-68v509h68v-242z" />
    <glyph glyph-name="threequarters" unicode="&#xbe;" 
d="M1007 -217h-937v937h937v-937zM145 -142h787v787h-787v-787zM652 509h79l-202 -239l215 -270h-85l-105 131l-39 48c-12.667 15.333 -23.667 29.333 -33 42c-12 14 -22.667 27.667 -32 41v-262h-68v509h68v-242z" />
    <glyph glyph-name="questiondown" unicode="&#xbf;" horiz-adv-x="400" 
d="M203 435c0 16 5.66699 29.5 17 40.5s24.666 16.5 39.999 16.5s28.666 -5.5 39.999 -16.5s17 -24.5 17 -40.5c0 -15.333 -5.66699 -28.5 -17 -39.5s-24.666 -16.5 -39.999 -16.5s-28.666 5.5 -39.999 16.5s-17 24.167 -17 39.5zM50 -24c0 26 4.33105 48.666 12.998 67.999
s19.334 36 32.001 50s26.334 25.833 41.001 35.5l40 25.5c20 12 33.333 23.667 40 35s10 26.666 10 45.999v55h71v-63c0 -26 -4.83301 -48.167 -14.5 -66.5s-29.5 -36.5 -59.5 -54.5l-37.5 -23.5c-11.667 -7.66699 -21.667 -16.334 -30 -26.001s-15 -20.667 -20 -33
s-7.5 -27.166 -7.5 -44.499c0 -38 11 -65.833 33 -83.5s52 -26.5 90 -26.5c16 0 31.333 2.33301 46 7s26.667 9.33398 36 14.001l27 -58c-12 -6 -27.833 -12 -47.5 -18s-41.834 -9 -66.501 -9c-32 0 -60.333 4.33301 -85 13s-45.167 20.5 -61.5 35.5
s-28.666 32.833 -36.999 53.5s-12.5 43.334 -12.5 68.001z" />
    <glyph glyph-name="Agrave" unicode="&#xc0;" horiz-adv-x="627" 
d="M98 0h-77l255 666h76l256 -666h-85l-61 165h-303zM395 345l-42 114l-15 41l-13 37c-4.66699 12.667 -9 25 -13 37h-2c-4 -12 -8.33301 -24.333 -13 -37l-13 -37.5c-4.66699 -13.667 -9.66699 -27.167 -15 -40.5l-85 -228h253zM303 720l-135 126h109l92 -126h-66z" />
    <glyph glyph-name="Aacute" unicode="&#xc1;" horiz-adv-x="627" 
d="M98 0h-77l255 666h76l256 -666h-85l-61 165h-303zM395 345l-42 114l-15 41l-13 37c-4.66699 12.667 -9 25 -13 37h-2c-4 -12 -8.33301 -24.333 -13 -37l-13 -37.5c-4.66699 -13.667 -9.66699 -27.167 -15 -40.5l-85 -228h253zM341 846h109l-135 -126h-66z" />
    <glyph glyph-name="Acircumflex" unicode="&#xc2;" horiz-adv-x="627" 
d="M98 0h-77l255 666h76l256 -666h-85l-61 165h-303zM395 345l-42 114l-15 41l-13 37c-4.66699 12.667 -9 25 -13 37h-2c-4 -12 -8.33301 -24.333 -13 -37l-13 -37.5c-4.66699 -13.667 -9.66699 -27.167 -15 -40.5l-85 -228h253zM388 721l-81 85l-79 -85h-69l123 153h54
l121 -153h-69z" />
    <glyph glyph-name="Atilde" unicode="&#xc3;" horiz-adv-x="627" 
d="M98 0h-77l255 666h76l256 -666h-85l-61 165h-303zM395 345l-42 114l-15 41l-13 37c-4.66699 12.667 -9 25 -13 37h-2c-4 -12 -8.33301 -24.333 -13 -37l-13 -37.5c-4.66699 -13.667 -9.66699 -27.167 -15 -40.5l-85 -228h253zM453 781
c-5.33301 -6.66699 -11.168 -13.5 -17.501 -20.5s-13.333 -13.167 -21 -18.5s-16.167 -9.83301 -25.5 -13.5s-20 -5.5 -32 -5.5s-22.5 2 -31.5 6s-17.333 8.5 -25 13.5s-15.334 9.5 -23.001 13.5s-16.5 6 -26.5 6c-11.333 0 -21.166 -4.16699 -29.499 -12.5l-19.5 -19.5
l-39 37c4.66699 6 10 12.5 16 19.5s12.833 13.5 20.5 19.5s16.334 11 26.001 15s20.167 6 31.5 6c12.667 0 23.5 -2 32.5 -6s17.333 -8.5 25 -13.5s15.334 -9.5 23.001 -13.5s16.167 -6 25.5 -6c13.333 0 24.166 3.83301 32.499 11.5s14.5 14.167 18.5 19.5l39 -38v0z" />
    <glyph glyph-name="Adieresis" unicode="&#xc4;" horiz-adv-x="627" 
d="M98 0h-77l255 666h76l256 -666h-85l-61 165h-303zM395 345l-42 114l-15 41l-13 37c-4.66699 12.667 -9 25 -13 37h-2c-4 -12 -8.33301 -24.333 -13 -37l-13 -37.5c-4.66699 -13.667 -9.66699 -27.167 -15 -40.5l-85 -228h253zM455 772
c0 -15.333 -5.16699 -28.166 -15.5 -38.499s-23.166 -15.5 -38.499 -15.5c-14.667 0 -27.167 5.16699 -37.5 15.5s-15.5 23.166 -15.5 38.499c0 14.667 5.16699 27.167 15.5 37.5s22.833 15.5 37.5 15.5c15.333 0 28.166 -5.16699 38.499 -15.5s15.5 -22.833 15.5 -37.5z
M268 772c0 -15.333 -5.16699 -28.166 -15.5 -38.499s-23.166 -15.5 -38.499 -15.5c-14.667 0 -27.167 5.16699 -37.5 15.5s-15.5 23.166 -15.5 38.499c0 14.667 5.16699 27.167 15.5 37.5s22.833 15.5 37.5 15.5c15.333 0 28.166 -5.16699 38.499 -15.5
s15.5 -22.833 15.5 -37.5z" />
    <glyph glyph-name="Aring" unicode="&#xc5;" horiz-adv-x="627" 
d="M403 798c0 -13.333 -2.66699 -25.833 -8 -37.5s-12.333 -21.667 -21 -30s-18.667 -15 -30 -20s-23.333 -7.5 -36 -7.5s-24.667 2.5 -36 7.5s-21.333 11.667 -30 20s-15.667 18.333 -21 30s-8 24.167 -8 37.5s2.66699 25.833 8 37.5s12.333 21.667 21 30s18.667 15 30 20
s23.333 7.5 36 7.5s24.667 -2.5 36 -7.5s21.333 -11.667 30 -20s15.667 -18.333 21 -30s8 -24.167 8 -37.5zM98 0h-77l255 666h76l256 -666h-85l-61 165h-303zM358 798c0 15.333 -4.5 28.333 -13.5 39s-21.167 16 -36.5 16s-27.5 -5.33301 -36.5 -16
s-13.5 -23.667 -13.5 -39c0 -14.667 4.5 -27.5 13.5 -38.5s21.167 -16.5 36.5 -16.5s27.5 5.5 36.5 16.5s13.5 23.833 13.5 38.5zM395 345l-42 114l-15 41l-13 37c-4.66699 12.667 -9 25 -13 37h-2c-4 -12 -8.33301 -24.333 -13 -37l-13 -37.5
c-4.66699 -13.667 -9.66699 -27.167 -15 -40.5l-85 -228h253z" />
    <glyph glyph-name="AE" unicode="&#xc6;" horiz-adv-x="815" 
d="M70 0h-85l383 666h382v-66h-264v-214h232v-66h-232v-254h271v-66h-349v182h-236zM408 602l-199 -355h199v355z" />
    <glyph glyph-name="Ccedilla" unicode="&#xc7;" horiz-adv-x="615" 
d="M325 -8c-44 6.66699 -82.835 20.498 -116.502 41.498s-62 47 -85 78s-40.5 65.667 -52.5 104s-18 78.166 -18 119.499c0 44.667 7.33301 87.834 22 129.501s36 78.167 64 109.5s62.167 56.5 102.5 75.5s86.166 28.5 137.499 28.5c42.667 0 78.334 -4.5 107.001 -13.5
s55.334 -21.167 80.001 -36.5l-39 -59c-19.333 13.333 -41.166 24 -65.499 32s-52.5 12 -84.5 12c-40 0 -75.167 -7.66699 -105.5 -23s-55.5 -35.666 -75.5 -60.999s-35.167 -54.666 -45.5 -87.999s-15.5 -68 -15.5 -104c0 -36.667 5 -72 15 -106s25.167 -64.167 45.5 -90.5
s45.833 -47.333 76.5 -63s66.667 -23.5 108 -23.5c36 0 67.333 5.33301 94 16s49.667 24.334 69 41.001l36 -56c-8.66699 -8 -19.667 -16 -33 -24s-28.5 -15.167 -45.5 -21.5s-35.833 -11.5 -56.5 -15.5s-42.667 -6 -66 -6h-4l-20 -54c20.667 -3.33301 37.5 -11 50.5 -23
s19.5 -27.667 19.5 -47c0 -27.333 -10.833 -48 -32.5 -62s-47.5 -21 -77.5 -21c-18 0 -32.167 1.33301 -42.5 4s-18.166 5.33398 -23.499 8.00098l12 42c4.66699 -2.66699 11.334 -5.16699 20.001 -7.5s19.667 -3.5 33 -3.5c15.333 0 27.5 3.16699 36.5 9.5
s13.5 16.166 13.5 29.499c0 9.33301 -2 16.666 -6 21.999s-9.33301 9.5 -16 12.5s-14.334 4.83301 -23.001 5.5s-17.334 1 -26.001 1l33 88v0z" />
    <glyph glyph-name="Egrave" unicode="&#xc8;" horiz-adv-x="503" 
d="M96 0v666h342v-66h-264v-214h232v-66h-232v-254h271v-66h-349zM263 720l-135 126h109l92 -126h-66z" />
    <glyph glyph-name="Eacute" unicode="&#xc9;" horiz-adv-x="503" 
d="M96 0v666h342v-66h-264v-214h232v-66h-232v-254h271v-66h-349zM313 846h109l-135 -126h-66z" />
    <glyph glyph-name="Ecircumflex" unicode="&#xca;" horiz-adv-x="503" 
d="M96 0v666h342v-66h-264v-214h232v-66h-232v-254h271v-66h-349zM353 721l-81 85l-79 -85h-69l123 153h54l121 -153h-69z" />
    <glyph glyph-name="Edieresis" unicode="&#xcb;" horiz-adv-x="503" 
d="M96 0v666h342v-66h-264v-214h232v-66h-232v-254h271v-66h-349zM414 772c0 -15.333 -5.16699 -28.166 -15.5 -38.499s-23.166 -15.5 -38.499 -15.5c-14.667 0 -27.167 5.16699 -37.5 15.5s-15.5 23.166 -15.5 38.499c0 14.667 5.16699 27.167 15.5 37.5
s22.833 15.5 37.5 15.5c15.333 0 28.166 -5.16699 38.499 -15.5s15.5 -22.833 15.5 -37.5zM227 772c0 -15.333 -5.16699 -28.166 -15.5 -38.499s-23.166 -15.5 -38.499 -15.5c-14.667 0 -27.167 5.16699 -37.5 15.5s-15.5 23.166 -15.5 38.499
c0 14.667 5.16699 27.167 15.5 37.5s22.833 15.5 37.5 15.5c15.333 0 28.166 -5.16699 38.499 -15.5s15.5 -22.833 15.5 -37.5z" />
    <glyph glyph-name="Igrave" unicode="&#xcc;" horiz-adv-x="282" 
d="M102 0v666h78v-666h-78zM137 720l-135 126h109l92 -126h-66z" />
    <glyph glyph-name="Iacute" unicode="&#xcd;" horiz-adv-x="282" 
d="M102 0v666h78v-666h-78zM184 846h109l-135 -126h-66z" />
    <glyph glyph-name="Icircumflex" unicode="&#xce;" horiz-adv-x="282" 
d="M102 0v666h78v-666h-78zM222 721l-81 85l-79 -85h-69l123 153h54l121 -153h-69z" />
    <glyph glyph-name="Idieresis" unicode="&#xcf;" horiz-adv-x="282" 
d="M102 0v666h78v-666h-78zM289 772c0 -15.333 -5.16699 -28.166 -15.5 -38.499s-23.166 -15.5 -38.499 -15.5c-14.667 0 -27.167 5.16699 -37.5 15.5s-15.5 23.166 -15.5 38.499c0 14.667 5.16699 27.167 15.5 37.5s22.833 15.5 37.5 15.5
c15.333 0 28.166 -5.16699 38.499 -15.5s15.5 -22.833 15.5 -37.5zM102 772c0 -15.333 -5.16699 -28.166 -15.5 -38.499s-23.166 -15.5 -38.499 -15.5c-14.667 0 -27.167 5.16699 -37.5 15.5s-15.5 23.166 -15.5 38.499c0 14.667 5.16699 27.167 15.5 37.5
s22.833 15.5 37.5 15.5c15.333 0 28.166 -5.16699 38.499 -15.5s15.5 -22.833 15.5 -37.5z" />
    <glyph glyph-name="Eth" unicode="&#xd0;" horiz-adv-x="679" 
d="M26 314l-0.00195312 58h70v294h156c65.333 0 121.833 -8 169.5 -24s86.834 -38.167 117.501 -66.5s53.334 -62.5 68.001 -102.5s22 -84 22 -132s-7.5 -92.833 -22.5 -134.5s-38 -77.667 -69 -108s-70.5 -54.333 -118.5 -72s-105.333 -26.5 -172 -26.5h-151v314h-70z
M284.998 372v-58h-111v-250h80c96.667 0 169.667 23.167 219 69.5s74 114.833 74 205.5s-24.333 157.167 -73 199.5s-123.667 63.5 -225 63.5h-75v-230h111z" />
    <glyph glyph-name="Ntilde" unicode="&#xd1;" horiz-adv-x="711" 
d="M545 0l-328.998 475c-6 8 -12 17 -18 27l-17 28c-6 10 -11.667 20.333 -17 31h-2l2 -24c0.666992 -7.33301 1.16699 -15.333 1.5 -24s0.5 -17 0.5 -25v-488h-72v666h77l314 -451l22.5 -34.5l20.5 -31.5c7.33301 -11.333 13.666 -22 18.999 -32h2
c-0.666992 8 -1.33398 16.667 -2.00098 26c-0.666992 8 -1.16699 17.333 -1.5 28s-0.5 22.667 -0.5 36v459h72v-666h-72zM500.002 781c-5.33301 -6.66699 -11.168 -13.5 -17.501 -20.5s-13.333 -13.167 -21 -18.5s-16.167 -9.83301 -25.5 -13.5s-20 -5.5 -32 -5.5
s-22.5 2 -31.5 6s-17.333 8.5 -25 13.5s-15.334 9.5 -23.001 13.5s-16.5 6 -26.5 6c-11.333 0 -21.166 -4.16699 -29.499 -12.5l-19.5 -19.5l-39 37c4.66699 6 10 12.5 16 19.5s12.833 13.5 20.5 19.5s16.334 11 26.001 15s20.167 6 31.5 6c12.667 0 23.5 -2 32.5 -6
s17.333 -8.5 25 -13.5s15.334 -9.5 23.001 -13.5s16.167 -6 25.5 -6c13.333 0 24.166 3.83301 32.499 11.5s14.5 14.167 18.5 19.5l39 -38v0z" />
    <glyph glyph-name="Ograve" unicode="&#xd2;" horiz-adv-x="760" 
d="M707 334c0 -46 -7.33301 -89.833 -22 -131.5s-36 -78.334 -64 -110.001s-62.167 -57 -102.5 -76s-86.166 -28.5 -137.499 -28.5s-97.333 9.33301 -138 28s-75 43.834 -103 75.501s-49.5 68.167 -64.5 109.5s-22.5 85 -22.5 131s7.33301 89.833 22 131.5
s36 78.334 64 110.001s62.167 57 102.5 76s86.166 28.5 137.499 28.5s97.333 -9.33301 138 -28s75 -43.834 103 -75.501s49.5 -68.167 64.5 -109.5s22.5 -85 22.5 -131zM625 332c0 37.333 -5.33301 73.001 -16 107.001s-26.167 63.833 -46.5 89.5
s-45.666 46.167 -75.999 61.5s-65.5 23 -105.5 23s-75.167 -7.5 -105.5 -22.5s-56 -35.333 -77 -61s-36.833 -55.334 -47.5 -89.001s-16 -69.167 -16 -106.5s5.33301 -73 16 -107s26.167 -63.833 46.5 -89.5s45.666 -46.167 75.999 -61.5s65.5 -23 105.5 -23
s75.167 7.5 105.5 22.5s56 35.167 77 60.5s36.833 55 47.5 89s16 69.667 16 107zM361 720.001l-135 126h109l92 -126h-66z" />
    <glyph glyph-name="Oacute" unicode="&#xd3;" horiz-adv-x="760" 
d="M707 334c0 -46 -7.33301 -89.833 -22 -131.5s-36 -78.334 -64 -110.001s-62.167 -57 -102.5 -76s-86.166 -28.5 -137.499 -28.5s-97.333 9.33301 -138 28s-75 43.834 -103 75.501s-49.5 68.167 -64.5 109.5s-22.5 85 -22.5 131s7.33301 89.833 22 131.5
s36 78.334 64 110.001s62.167 57 102.5 76s86.166 28.5 137.499 28.5s97.333 -9.33301 138 -28s75 -43.834 103 -75.501s49.5 -68.167 64.5 -109.5s22.5 -85 22.5 -131zM625 332c0 37.333 -5.33301 73.001 -16 107.001s-26.167 63.833 -46.5 89.5
s-45.666 46.167 -75.999 61.5s-65.5 23 -105.5 23s-75.167 -7.5 -105.5 -22.5s-56 -35.333 -77 -61s-36.833 -55.334 -47.5 -89.001s-16 -69.167 -16 -106.5s5.33301 -73 16 -107s26.167 -63.833 46.5 -89.5s45.666 -46.167 75.999 -61.5s65.5 -23 105.5 -23
s75.167 7.5 105.5 22.5s56 35.167 77 60.5s36.833 55 47.5 89s16 69.667 16 107zM416 846.001h109l-135 -126h-66z" />
    <glyph glyph-name="Ocircumflex" unicode="&#xd4;" horiz-adv-x="760" 
d="M707 334c0 -46 -7.33301 -89.833 -22 -131.5s-36 -78.334 -64 -110.001s-62.167 -57 -102.5 -76s-86.166 -28.5 -137.499 -28.5s-97.333 9.33301 -138 28s-75 43.834 -103 75.501s-49.5 68.167 -64.5 109.5s-22.5 85 -22.5 131s7.33301 89.833 22 131.5
s36 78.334 64 110.001s62.167 57 102.5 76s86.166 28.5 137.499 28.5s97.333 -9.33301 138 -28s75 -43.834 103 -75.501s49.5 -68.167 64.5 -109.5s22.5 -85 22.5 -131zM625 332c0 37.333 -5.33301 73.001 -16 107.001s-26.167 63.833 -46.5 89.5
s-45.666 46.167 -75.999 61.5s-65.5 23 -105.5 23s-75.167 -7.5 -105.5 -22.5s-56 -35.333 -77 -61s-36.833 -55.334 -47.5 -89.001s-16 -69.167 -16 -106.5s5.33301 -73 16 -107s26.167 -63.833 46.5 -89.5s45.666 -46.167 75.999 -61.5s65.5 -23 105.5 -23
s75.167 7.5 105.5 22.5s56 35.167 77 60.5s36.833 55 47.5 89s16 69.667 16 107zM460 721.001l-81 85l-79 -85h-69l123 153h54l121 -153h-69z" />
    <glyph glyph-name="Otilde" unicode="&#xd5;" horiz-adv-x="760" 
d="M707 334c0 -46 -7.33301 -89.833 -22 -131.5s-36 -78.334 -64 -110.001s-62.167 -57 -102.5 -76s-86.166 -28.5 -137.499 -28.5s-97.333 9.33301 -138 28s-75 43.834 -103 75.501s-49.5 68.167 -64.5 109.5s-22.5 85 -22.5 131s7.33301 89.833 22 131.5
s36 78.334 64 110.001s62.167 57 102.5 76s86.166 28.5 137.499 28.5s97.333 -9.33301 138 -28s75 -43.834 103 -75.501s49.5 -68.167 64.5 -109.5s22.5 -85 22.5 -131zM625 332c0 37.333 -5.33301 73.001 -16 107.001s-26.167 63.833 -46.5 89.5
s-45.666 46.167 -75.999 61.5s-65.5 23 -105.5 23s-75.167 -7.5 -105.5 -22.5s-56 -35.333 -77 -61s-36.833 -55.334 -47.5 -89.001s-16 -69.167 -16 -106.5s5.33301 -73 16 -107s26.167 -63.833 46.5 -89.5s45.666 -46.167 75.999 -61.5s65.5 -23 105.5 -23
s75.167 7.5 105.5 22.5s56 35.167 77 60.5s36.833 55 47.5 89s16 69.667 16 107zM525 781.001c-5.33301 -6.66699 -11.168 -13.5 -17.501 -20.5s-13.333 -13.167 -21 -18.5s-16.167 -9.83301 -25.5 -13.5s-20 -5.5 -32 -5.5s-22.5 2 -31.5 6s-17.333 8.5 -25 13.5
s-15.334 9.5 -23.001 13.5s-16.5 6 -26.5 6c-11.333 0 -21.166 -4.16699 -29.499 -12.5l-19.5 -19.5l-39 37c4.66699 6 10 12.5 16 19.5s12.833 13.5 20.5 19.5s16.334 11 26.001 15s20.167 6 31.5 6c12.667 0 23.5 -2 32.5 -6s17.333 -8.5 25 -13.5
s15.334 -9.5 23.001 -13.5s16.167 -6 25.5 -6c13.333 0 24.166 3.83301 32.499 11.5s14.5 14.167 18.5 19.5l39 -38v0z" />
    <glyph glyph-name="Odieresis" unicode="&#xd6;" horiz-adv-x="760" 
d="M707 334c0 -46 -7.33301 -89.833 -22 -131.5s-36 -78.334 -64 -110.001s-62.167 -57 -102.5 -76s-86.166 -28.5 -137.499 -28.5s-97.333 9.33301 -138 28s-75 43.834 -103 75.501s-49.5 68.167 -64.5 109.5s-22.5 85 -22.5 131s7.33301 89.833 22 131.5
s36 78.334 64 110.001s62.167 57 102.5 76s86.166 28.5 137.499 28.5s97.333 -9.33301 138 -28s75 -43.834 103 -75.501s49.5 -68.167 64.5 -109.5s22.5 -85 22.5 -131zM625 332c0 37.333 -5.33301 73.001 -16 107.001s-26.167 63.833 -46.5 89.5
s-45.666 46.167 -75.999 61.5s-65.5 23 -105.5 23s-75.167 -7.5 -105.5 -22.5s-56 -35.333 -77 -61s-36.833 -55.334 -47.5 -89.001s-16 -69.167 -16 -106.5s5.33301 -73 16 -107s26.167 -63.833 46.5 -89.5s45.666 -46.167 75.999 -61.5s65.5 -23 105.5 -23
s75.167 7.5 105.5 22.5s56 35.167 77 60.5s36.833 55 47.5 89s16 69.667 16 107zM527 772.001c0 -15.333 -5.16699 -28.166 -15.5 -38.499s-23.166 -15.5 -38.499 -15.5c-14.667 0 -27.167 5.16699 -37.5 15.5s-15.5 23.166 -15.5 38.499c0 14.667 5.16699 27.167 15.5 37.5
s22.833 15.5 37.5 15.5c15.333 0 28.166 -5.16699 38.499 -15.5s15.5 -22.833 15.5 -37.5zM340 772.001c0 -15.333 -5.16699 -28.166 -15.5 -38.499s-23.166 -15.5 -38.499 -15.5c-14.667 0 -27.167 5.16699 -37.5 15.5s-15.5 23.166 -15.5 38.499
c0 14.667 5.16699 27.167 15.5 37.5s22.833 15.5 37.5 15.5c15.333 0 28.166 -5.16699 38.499 -15.5s15.5 -22.833 15.5 -37.5z" />
    <glyph glyph-name="multiply" unicode="&#xd7;" 
d="M1007 -217h-937v937h937v-937zM145 -142h787v787h-787v-787zM652 509h79l-202 -239l215 -270h-85l-105 131l-39 48c-12.667 15.333 -23.667 29.333 -33 42c-12 14 -22.667 27.667 -32 41v-262h-68v509h68v-242z" />
    <glyph glyph-name="Oslash" unicode="&#xd8;" horiz-adv-x="760" 
d="M177 56c-40 32 -70.667 72.167 -92 120.5s-32 100.166 -32 155.499c0 46 7.33301 89.833 22 131.5s36 78.334 64 110.001s62.167 57 102.5 76s86.166 28.5 137.499 28.5c36 0 69 -4.5 99 -13.5s57.333 -21.833 82 -38.5l64 95l44 -33l-65 -96
c34 -32 59.833 -70.5 77.5 -115.5s26.5 -92.5 26.5 -142.5c0 -46 -7.33301 -89.833 -22 -131.5s-36 -78.334 -64 -110.001s-62.167 -57 -102.5 -76s-86.166 -28.5 -137.499 -28.5c-30.667 0 -59.167 3.33301 -85.5 10s-50.833 16.334 -73.5 29.001l-62 -92l-43 31l60 90v0z
M524 570c-19.333 14 -40.832 24.833 -64.499 32.5s-49.834 11.5 -78.501 11.5c-40 0 -75.5 -7.5 -106.5 -22.5s-57 -35.333 -78 -61s-36.833 -55.334 -47.5 -89.001s-16 -69.5 -16 -107.5c0 -45.333 7 -87.166 21 -125.499s35 -70.5 63 -96.5zM258.001 82
c17.333 -9.33301 36 -16.668 56 -22.001s41.667 -8 65 -8c40 0 75.333 7.5 106 22.5s56.5 35.333 77.5 61s37 55.334 48 89.001s16.5 69.5 16.5 107.5c0 40 -5.5 77.333 -16.5 112s-27.167 64.667 -48.5 90z" />
    <glyph glyph-name="Ugrave" unicode="&#xd9;" horiz-adv-x="690" 
d="M600 253c0 -40.667 -4.99902 -77.335 -14.999 -110.002s-25.333 -60.5 -46 -83.5s-46.834 -40.667 -78.501 -53s-69.167 -18.5 -112.5 -18.5c-45.333 0 -84.333 6.33301 -117 19s-59.5 30.334 -80.5 53.001s-36.333 50 -46 82s-14.5 67.667 -14.5 107v417h78v-407
c0 -69.333 14.667 -120.666 44 -153.999s75.333 -50 138 -50c60 0 104.5 17.667 133.5 53s43.5 81 43.5 137v421h73v-413v0zM333.001 719.999l-135 126h109l92 -126h-66z" />
    <glyph glyph-name="Uacute" unicode="&#xda;" horiz-adv-x="690" 
d="M600 253c0 -40.667 -4.99902 -77.335 -14.999 -110.002s-25.333 -60.5 -46 -83.5s-46.834 -40.667 -78.501 -53s-69.167 -18.5 -112.5 -18.5c-45.333 0 -84.333 6.33301 -117 19s-59.5 30.334 -80.5 53.001s-36.333 50 -46 82s-14.5 67.667 -14.5 107v417h78v-407
c0 -69.333 14.667 -120.666 44 -153.999s75.333 -50 138 -50c60 0 104.5 17.667 133.5 53s43.5 81 43.5 137v421h73v-413v0zM377.001 845.999h109l-135 -126h-66z" />
    <glyph glyph-name="Ucircumflex" unicode="&#xdb;" horiz-adv-x="690" 
d="M600 253c0 -40.667 -4.99902 -77.335 -14.999 -110.002s-25.333 -60.5 -46 -83.5s-46.834 -40.667 -78.501 -53s-69.167 -18.5 -112.5 -18.5c-45.333 0 -84.333 6.33301 -117 19s-59.5 30.334 -80.5 53.001s-36.333 50 -46 82s-14.5 67.667 -14.5 107v417h78v-407
c0 -69.333 14.667 -120.666 44 -153.999s75.333 -50 138 -50c60 0 104.5 17.667 133.5 53s43.5 81 43.5 137v421h73v-413v0zM436.001 720.999l-81 85l-79 -85h-69l123 153h54l121 -153h-69z" />
    <glyph glyph-name="Udieresis" unicode="&#xdc;" horiz-adv-x="690" 
d="M600 253c0 -40.667 -4.99902 -77.335 -14.999 -110.002s-25.333 -60.5 -46 -83.5s-46.834 -40.667 -78.501 -53s-69.167 -18.5 -112.5 -18.5c-45.333 0 -84.333 6.33301 -117 19s-59.5 30.334 -80.5 53.001s-36.333 50 -46 82s-14.5 67.667 -14.5 107v417h78v-407
c0 -69.333 14.667 -120.666 44 -153.999s75.333 -50 138 -50c60 0 104.5 17.667 133.5 53s43.5 81 43.5 137v421h73v-413v0zM494.001 771.999c0 -15.333 -5.16699 -28.166 -15.5 -38.499s-23.166 -15.5 -38.499 -15.5c-14.667 0 -27.167 5.16699 -37.5 15.5
s-15.5 23.166 -15.5 38.499c0 14.667 5.16699 27.167 15.5 37.5s22.833 15.5 37.5 15.5c15.333 0 28.166 -5.16699 38.499 -15.5s15.5 -22.833 15.5 -37.5zM307.001 771.999c0 -15.333 -5.16699 -28.166 -15.5 -38.499s-23.166 -15.5 -38.499 -15.5
c-14.667 0 -27.167 5.16699 -37.5 15.5s-15.5 23.166 -15.5 38.499c0 14.667 5.16699 27.167 15.5 37.5s22.833 15.5 37.5 15.5c15.333 0 28.166 -5.16699 38.499 -15.5s15.5 -22.833 15.5 -37.5z" />
    <glyph glyph-name="Yacute" unicode="&#xdd;" horiz-adv-x="555" 
d="M319 252v-252h-78v252l-223 414h87l178 -340h1l178 340h75zM308 846h109l-135 -126h-66z" />
    <glyph glyph-name="Thorn" unicode="&#xde;" horiz-adv-x="542" 
d="M497 359c0 -66 -21.333 -116.667 -64 -152s-103 -53 -181 -53h-78v-154h-78v666h78v-115h89c33.333 0 64.333 -4 93 -12s53.5 -20 74.5 -36s37.333 -36 49 -60s17.5 -52 17.5 -84zM417 356c0 18.667 -2.83398 36.001 -8.50098 52.001s-15 29.667 -28 41
s-29.833 20.166 -50.5 26.499s-45.667 9.5 -75 9.5h-81v-265h78c58.667 0 100.834 11.667 126.501 35s38.5 57 38.5 101z" />
    <glyph glyph-name="germandbls" unicode="&#xdf;" horiz-adv-x="547" 
d="M507 130c0 -43.333 -14.334 -77.8359 -43.001 -103.503s-70.667 -38.5 -126 -38.5c-32.667 0 -58.667 3.83301 -78 11.5s-34 15.167 -44 22.5l31 59c9.33301 -5.33301 21.5 -11.666 36.5 -18.999s34.167 -11 57.5 -11c27.333 0 49.5 5.83301 66.5 17.5
s25.5 29.5 25.5 53.5c0 12.667 -2.5 23.667 -7.5 33s-12 18 -21 26s-19.833 15.667 -32.5 23l-41 23l-36 21c-12 7.33301 -22.5 15.666 -31.5 24.999s-16.333 19.833 -22 31.5s-8.5 25.167 -8.5 40.5c0 17.333 3.16699 32.333 9.5 45s14.333 24 24 34s20.5 19.167 32.5 27.5
l35 25.5c16.667 12.667 29.667 25.834 39 39.501s14 31.834 14 54.501c0 29.333 -8.16699 52.666 -24.5 69.999s-42.833 26 -79.5 26c-35.333 0 -64.833 -13.833 -88.5 -41.5s-35.5 -71.5 -35.5 -131.5v-494h-73v496c0 40 5.16699 74.667 15.5 104s24.333 53.833 42 73.5
s38.667 34.334 63 44.001s50.5 14.5 78.5 14.5c29.333 0 55 -4.16699 77 -12.5s40.333 -19.5 55 -33.5s25.667 -30.5 33 -49.5s11 -38.833 11 -59.5c0 -20 -2.66699 -37.5 -8 -52.5s-12.333 -28.167 -21 -39.5s-18.5 -21.5 -29.5 -30.5l-32.5 -25.5
c-20 -14 -36.167 -26.333 -48.5 -37s-18.5 -23.667 -18.5 -39c0 -8 1.33301 -14.833 4 -20.5s7.16699 -11.167 13.5 -16.5s14.666 -11 24.999 -17l38.5 -22c14.667 -8 29.334 -16.667 44.001 -26s27.834 -19.666 39.501 -30.999s21.167 -24.333 28.5 -39s11 -31.667 11 -51z
" />
    <glyph glyph-name="agrave" unicode="&#xe0;" horiz-adv-x="472" 
d="M332 0c-1.33301 6.66699 -2.66992 16.1709 -4.00293 28.5039s-2.33301 22.166 -3 29.499c-5.33301 -7.33301 -12.5 -15 -21.5 -23s-19.5 -15.5 -31.5 -22.5s-25.667 -12.833 -41 -17.5s-32 -7 -50 -7c-40 0 -72.833 11.667 -98.5 35s-38.5 54.666 -38.5 93.999
c0 32 7.83301 58.5 23.5 79.5s36 37.833 61 50.5s52.5 21.667 82.5 27s59.667 8 89 8h21v45c0 30.667 -6.66699 55 -20 73s-38.666 27 -75.999 27c-17.333 0 -32.666 -2 -45.999 -6s-25.166 -8.83301 -35.499 -14.5s-19 -11.334 -26 -17.001l-17.5 -14.5l-39 51
c6 5.33301 13.833 11.833 23.5 19.5s21.334 15 35.001 22s29.667 12.833 48 17.5s39.166 7 62.499 7c52.667 0 93.167 -12.833 121.5 -38.5s42.5 -65.834 42.5 -120.501v-224c0 -24 1 -45.333 3 -64s4.66699 -33.667 8 -45h-73zM320.996 228.004l-20.9971 0.00195312
c-26 0 -49.833 -1.83301 -71.5 -5.5s-40.334 -9.83398 -56.001 -18.501s-28 -20 -37 -34s-13.5 -31 -13.5 -51c0 -12.667 2.33301 -23.334 7 -32.001s10.5 -15.667 17.5 -21s14.667 -9.16602 23 -11.499s16.166 -3.5 23.499 -3.5c18 0 34 2.66699 48 8
s26.167 11.666 36.5 18.999s19.166 14.833 26.499 22.5s13 14.167 17 19.5v108zM207.999 540.006l-135 126h109l92 -126h-66z" />
    <glyph glyph-name="aacute" unicode="&#xe1;" horiz-adv-x="472" 
d="M332 0c-1.33301 6.66699 -2.66992 16.1709 -4.00293 28.5039s-2.33301 22.166 -3 29.499c-5.33301 -7.33301 -12.5 -15 -21.5 -23s-19.5 -15.5 -31.5 -22.5s-25.667 -12.833 -41 -17.5s-32 -7 -50 -7c-40 0 -72.833 11.667 -98.5 35s-38.5 54.666 -38.5 93.999
c0 32 7.83301 58.5 23.5 79.5s36 37.833 61 50.5s52.5 21.667 82.5 27s59.667 8 89 8h21v45c0 30.667 -6.66699 55 -20 73s-38.666 27 -75.999 27c-17.333 0 -32.666 -2 -45.999 -6s-25.166 -8.83301 -35.499 -14.5s-19 -11.334 -26 -17.001l-17.5 -14.5l-39 51
c6 5.33301 13.833 11.833 23.5 19.5s21.334 15 35.001 22s29.667 12.833 48 17.5s39.166 7 62.499 7c52.667 0 93.167 -12.833 121.5 -38.5s42.5 -65.834 42.5 -120.501v-224c0 -24 1 -45.333 3 -64s4.66699 -33.667 8 -45h-73zM320.996 228.004l-20.9971 0.00195312
c-26 0 -49.833 -1.83301 -71.5 -5.5s-40.334 -9.83398 -56.001 -18.501s-28 -20 -37 -34s-13.5 -31 -13.5 -51c0 -12.667 2.33301 -23.334 7 -32.001s10.5 -15.667 17.5 -21s14.667 -9.16602 23 -11.499s16.166 -3.5 23.499 -3.5c18 0 34 2.66699 48 8
s26.167 11.666 36.5 18.999s19.166 14.833 26.499 22.5s13 14.167 17 19.5v108zM277.999 666.006h109l-135 -126h-66z" />
    <glyph glyph-name="acircumflex" unicode="&#xe2;" horiz-adv-x="472" 
d="M332 0c-1.33301 6.66699 -2.66992 16.1709 -4.00293 28.5039s-2.33301 22.166 -3 29.499c-5.33301 -7.33301 -12.5 -15 -21.5 -23s-19.5 -15.5 -31.5 -22.5s-25.667 -12.833 -41 -17.5s-32 -7 -50 -7c-40 0 -72.833 11.667 -98.5 35s-38.5 54.666 -38.5 93.999
c0 32 7.83301 58.5 23.5 79.5s36 37.833 61 50.5s52.5 21.667 82.5 27s59.667 8 89 8h21v45c0 30.667 -6.66699 55 -20 73s-38.666 27 -75.999 27c-17.333 0 -32.666 -2 -45.999 -6s-25.166 -8.83301 -35.499 -14.5s-19 -11.334 -26 -17.001l-17.5 -14.5l-39 51
c6 5.33301 13.833 11.833 23.5 19.5s21.334 15 35.001 22s29.667 12.833 48 17.5s39.166 7 62.499 7c52.667 0 93.167 -12.833 121.5 -38.5s42.5 -65.834 42.5 -120.501v-224c0 -24 1 -45.333 3 -64s4.66699 -33.667 8 -45h-73zM320.996 228.004l-20.9971 0.00195312
c-26 0 -49.833 -1.83301 -71.5 -5.5s-40.334 -9.83398 -56.001 -18.501s-28 -20 -37 -34s-13.5 -31 -13.5 -51c0 -12.667 2.33301 -23.334 7 -32.001s10.5 -15.667 17.5 -21s14.667 -9.16602 23 -11.499s16.166 -3.5 23.499 -3.5c18 0 34 2.66699 48 8
s26.167 11.666 36.5 18.999s19.166 14.833 26.499 22.5s13 14.167 17 19.5v108zM316.999 541.006l-81 85l-79 -85h-69l123 153h54l121 -153h-69z" />
    <glyph glyph-name="atilde" unicode="&#xe3;" horiz-adv-x="472" 
d="M332 0c-1.33301 6.66699 -2.66992 16.1709 -4.00293 28.5039s-2.33301 22.166 -3 29.499c-5.33301 -7.33301 -12.5 -15 -21.5 -23s-19.5 -15.5 -31.5 -22.5s-25.667 -12.833 -41 -17.5s-32 -7 -50 -7c-40 0 -72.833 11.667 -98.5 35s-38.5 54.666 -38.5 93.999
c0 32 7.83301 58.5 23.5 79.5s36 37.833 61 50.5s52.5 21.667 82.5 27s59.667 8 89 8h21v45c0 30.667 -6.66699 55 -20 73s-38.666 27 -75.999 27c-17.333 0 -32.666 -2 -45.999 -6s-25.166 -8.83301 -35.499 -14.5s-19 -11.334 -26 -17.001l-17.5 -14.5l-39 51
c6 5.33301 13.833 11.833 23.5 19.5s21.334 15 35.001 22s29.667 12.833 48 17.5s39.166 7 62.499 7c52.667 0 93.167 -12.833 121.5 -38.5s42.5 -65.834 42.5 -120.501v-224c0 -24 1 -45.333 3 -64s4.66699 -33.667 8 -45h-73zM320.996 228.004l-20.9971 0.00195312
c-26 0 -49.833 -1.83301 -71.5 -5.5s-40.334 -9.83398 -56.001 -18.501s-28 -20 -37 -34s-13.5 -31 -13.5 -51c0 -12.667 2.33301 -23.334 7 -32.001s10.5 -15.667 17.5 -21s14.667 -9.16602 23 -11.499s16.166 -3.5 23.499 -3.5c18 0 34 2.66699 48 8
s26.167 11.666 36.5 18.999s19.166 14.833 26.499 22.5s13 14.167 17 19.5v108zM369.999 601.006c-5.33301 -6.66699 -11.168 -13.5 -17.501 -20.5s-13.333 -13.167 -21 -18.5s-16.167 -9.83301 -25.5 -13.5s-20 -5.5 -32 -5.5s-22.5 2 -31.5 6s-17.333 8.5 -25 13.5
s-15.334 9.5 -23.001 13.5s-16.5 6 -26.5 6c-11.333 0 -21.166 -4.16699 -29.499 -12.5l-19.5 -19.5l-39 37c4.66699 6 10 12.5 16 19.5s12.833 13.5 20.5 19.5s16.334 11 26.001 15s20.167 6 31.5 6c12.667 0 23.5 -2 32.5 -6s17.333 -8.5 25 -13.5
s15.334 -9.5 23.001 -13.5s16.167 -6 25.5 -6c13.333 0 24.166 3.83301 32.499 11.5s14.5 14.167 18.5 19.5l39 -38v0z" />
    <glyph glyph-name="adieresis" unicode="&#xe4;" horiz-adv-x="472" 
d="M332 0c-1.33301 6.66699 -2.66992 16.1709 -4.00293 28.5039s-2.33301 22.166 -3 29.499c-5.33301 -7.33301 -12.5 -15 -21.5 -23s-19.5 -15.5 -31.5 -22.5s-25.667 -12.833 -41 -17.5s-32 -7 -50 -7c-40 0 -72.833 11.667 -98.5 35s-38.5 54.666 -38.5 93.999
c0 32 7.83301 58.5 23.5 79.5s36 37.833 61 50.5s52.5 21.667 82.5 27s59.667 8 89 8h21v45c0 30.667 -6.66699 55 -20 73s-38.666 27 -75.999 27c-17.333 0 -32.666 -2 -45.999 -6s-25.166 -8.83301 -35.499 -14.5s-19 -11.334 -26 -17.001l-17.5 -14.5l-39 51
c6 5.33301 13.833 11.833 23.5 19.5s21.334 15 35.001 22s29.667 12.833 48 17.5s39.166 7 62.499 7c52.667 0 93.167 -12.833 121.5 -38.5s42.5 -65.834 42.5 -120.501v-224c0 -24 1 -45.333 3 -64s4.66699 -33.667 8 -45h-73zM320.996 228.004l-20.9971 0.00195312
c-26 0 -49.833 -1.83301 -71.5 -5.5s-40.334 -9.83398 -56.001 -18.501s-28 -20 -37 -34s-13.5 -31 -13.5 -51c0 -12.667 2.33301 -23.334 7 -32.001s10.5 -15.667 17.5 -21s14.667 -9.16602 23 -11.499s16.166 -3.5 23.499 -3.5c18 0 34 2.66699 48 8
s26.167 11.666 36.5 18.999s19.166 14.833 26.499 22.5s13 14.167 17 19.5v108zM377.999 592.006c0 -15.333 -5.16699 -28.166 -15.5 -38.499s-23.166 -15.5 -38.499 -15.5c-14.667 0 -27.167 5.16699 -37.5 15.5s-15.5 23.166 -15.5 38.499
c0 14.667 5.16699 27.167 15.5 37.5s22.833 15.5 37.5 15.5c15.333 0 28.166 -5.16699 38.499 -15.5s15.5 -22.833 15.5 -37.5zM190.999 592.006c0 -15.333 -5.16699 -28.166 -15.5 -38.499s-23.166 -15.5 -38.499 -15.5c-14.667 0 -27.167 5.16699 -37.5 15.5
s-15.5 23.166 -15.5 38.499c0 14.667 5.16699 27.167 15.5 37.5s22.833 15.5 37.5 15.5c15.333 0 28.166 -5.16699 38.499 -15.5s15.5 -22.833 15.5 -37.5z" />
    <glyph glyph-name="aring" unicode="&#xe5;" horiz-adv-x="472" 
d="M332 0c-1.33301 6.66699 -2.66992 16.1709 -4.00293 28.5039s-2.33301 22.166 -3 29.499c-5.33301 -7.33301 -12.5 -15 -21.5 -23s-19.5 -15.5 -31.5 -22.5s-25.667 -12.833 -41 -17.5s-32 -7 -50 -7c-40 0 -72.833 11.667 -98.5 35s-38.5 54.666 -38.5 93.999
c0 32 7.83301 58.5 23.5 79.5s36 37.833 61 50.5s52.5 21.667 82.5 27s59.667 8 89 8h21v45c0 30.667 -6.66699 55 -20 73s-38.666 27 -75.999 27c-17.333 0 -32.666 -2 -45.999 -6s-25.166 -8.83301 -35.499 -14.5s-19 -11.334 -26 -17.001l-17.5 -14.5l-39 51
c6 5.33301 13.833 11.833 23.5 19.5s21.334 15 35.001 22s29.667 12.833 48 17.5s39.166 7 62.499 7c52.667 0 93.167 -12.833 121.5 -38.5s42.5 -65.834 42.5 -120.501v-224c0 -24 1 -45.333 3 -64s4.66699 -33.667 8 -45h-73zM320.996 228.004l-20.9971 0.00195312
c-26 0 -49.833 -1.83301 -71.5 -5.5s-40.334 -9.83398 -56.001 -18.501s-28 -20 -37 -34s-13.5 -31 -13.5 -51c0 -12.667 2.33301 -23.334 7 -32.001s10.5 -15.667 17.5 -21s14.667 -9.16602 23 -11.499s16.166 -3.5 23.499 -3.5c18 0 34 2.66699 48 8
s26.167 11.666 36.5 18.999s19.166 14.833 26.499 22.5s13 14.167 17 19.5v108zM328.999 640.006c0 -13.333 -2.66699 -25.833 -8 -37.5s-12.333 -21.667 -21 -30s-18.667 -15 -30 -20s-23.333 -7.5 -36 -7.5s-24.667 2.5 -36 7.5s-21.333 11.667 -30 20
s-15.667 18.333 -21 30s-8 24.167 -8 37.5s2.66699 25.833 8 37.5s12.333 21.667 21 30s18.667 15 30 20s23.333 7.5 36 7.5s24.667 -2.5 36 -7.5s21.333 -11.667 30 -20s15.667 -18.333 21 -30s8 -24.167 8 -37.5zM283.999 640.006c0 15.333 -4.5 28.333 -13.5 39
s-21.167 16 -36.5 16s-27.5 -5.33301 -36.5 -16s-13.5 -23.667 -13.5 -39c0 -14.667 4.5 -27.5 13.5 -38.5s21.167 -16.5 36.5 -16.5s27.5 5.5 36.5 16.5s13.5 23.833 13.5 38.5z" />
    <glyph glyph-name="ae" unicode="&#xe6;" horiz-adv-x="770" 
d="M376 414c19.333 24 42.499 43.001 69.499 57.001s57.167 21 90.5 21c32 0 60.5 -6.16699 85.5 -18.5s45.5 -29.5 61.5 -51.5s27.5 -48.333 34.5 -79s8.83301 -64.334 5.5 -101.001h-325c0.666992 -25.333 3.83398 -49.666 9.50098 -72.999s14.5 -43.666 26.5 -60.999
s27.333 -31.166 46 -41.499s41.667 -15.5 69 -15.5c16.667 0 32 1.66699 46 5s26.5 7.16602 37.5 11.499s20.667 9 29 14l20.5 12.5l30 -57c-6 -4 -13.833 -8.83301 -23.5 -14.5s-21.334 -11 -35.001 -16s-29.334 -9.33301 -47.001 -13s-37.5 -5.5 -59.5 -5.5
c-42 0 -78.167 8.66699 -108.5 26s-55.166 40.666 -74.499 69.999c-10 -12.667 -21.333 -24.667 -34 -36s-26.667 -21.5 -42 -30.5s-31.833 -16.167 -49.5 -21.5s-36.834 -8 -57.501 -8c-40 0 -72.833 11.667 -98.5 35s-38.5 54.666 -38.5 93.999
c0 32 7.83301 58.5 23.5 79.5s36 37.833 61 50.5s52.5 21.667 82.5 27s59.667 8 89 8h22v45c0 30.667 -6.83301 55 -20.5 73s-39.167 27 -76.5 27c-17.333 0 -32.666 -2 -45.999 -6s-25.166 -8.83301 -35.499 -14.5s-19 -11.334 -26 -17.001l-17.5 -14.5l-39 51
c6 5.33301 13.833 11.833 23.5 19.5s21.334 15 35.001 22s29.667 12.833 48 17.5s39.166 7 62.499 7c36 0 66.167 -6.16699 90.5 -18.5s42.833 -32.166 55.5 -59.499zM649.999 300.001c-0.666992 16.667 -3.16602 32.833 -7.49902 48.5s-11 29.5 -20 41.5
s-20.833 21.5 -35.5 28.5s-32.334 10.5 -53.001 10.5c-38.667 0 -68.667 -12 -90 -36s-35.333 -55 -42 -93h248zM300 228c-26 0 -49.8301 -1.83203 -71.4971 -5.49902s-40.334 -9.83398 -56.001 -18.501s-28 -20 -37 -34s-13.5 -31 -13.5 -51
c0 -12.667 2.33301 -23.334 7 -32.001s10.5 -15.667 17.5 -21s14.667 -9.16602 23 -11.499s16.166 -3.5 23.499 -3.5c35.333 0 64.666 8.5 87.999 25.5s42.333 36.833 57 59.5c-10 30 -16 60.667 -18 92h-20z" />
    <glyph glyph-name="ccedilla" unicode="&#xe7;" horiz-adv-x="440" 
d="M210 -7c-28 6 -52.502 16.8301 -73.502 32.4971s-38.667 34.5 -53 56.5s-25.166 46.5 -32.499 73.5s-11 55.167 -11 84.5c0 40.667 6 76.834 18 108.501s28 58 48 79s43.333 37 70 48s55 16.5 85 16.5c20 0 37.667 -1.66699 53 -5s29 -7.5 41 -12.5
s22.333 -10.167 31 -15.5s16 -10.333 22 -15l-35 -55c-12.667 9.33301 -27.667 18.333 -45 27s-40 13 -68 13c-24.667 0 -46 -4.83301 -64 -14.5s-32.667 -22.834 -44 -39.501s-19.833 -36.5 -25.5 -59.5s-8.5 -47.5 -8.5 -73.5c0 -25.333 2.83301 -49.666 8.5 -72.999
s14.334 -43.666 26.001 -60.999s26.5 -31.166 44.5 -41.499s39.667 -15.5 65 -15.5c14.667 0 28.5 1.5 41.5 4.5s24.5 6.66699 34.5 11s18.5 8.83301 25.5 13.5s12.167 8.33398 15.5 11.001l30 -55c-4.66699 -4 -11.167 -8.83301 -19.5 -14.5s-18.833 -11 -31.5 -16
s-27.167 -9.16699 -43.5 -12.5s-34.833 -5 -55.5 -5l-20 -54c20.667 -3.33301 37.5 -11 50.5 -23s19.5 -27.667 19.5 -47c0 -27.333 -10.833 -48 -32.5 -62s-47.5 -21 -77.5 -21c-18 0 -32.167 1.33301 -42.5 4s-18.166 5.33398 -23.499 8.00098l12 42
c4.66699 -2.66699 11.334 -5.16699 20.001 -7.5s19.667 -3.5 33 -3.5c15.333 0 27.5 3.16699 36.5 9.5s13.5 16.166 13.5 29.499c0 9.33301 -2 16.666 -6 21.999s-9.33301 9.5 -16 12.5s-14.334 4.83301 -23.001 5.5s-17.334 1 -26.001 1l33 89v0z" />
    <glyph glyph-name="egrave" unicode="&#xe8;" horiz-adv-x="490" 
d="M118 242c0.666992 -25.333 3.83496 -49.666 9.50195 -72.999s14.5 -43.666 26.5 -60.999s27.333 -31.166 46 -41.499s41.667 -15.5 69 -15.5c16.667 0 32 1.66699 46 5s26.5 7.16602 37.5 11.499s20.667 9 29 14l20.5 12.5l30 -57c-6 -4 -13.833 -8.83301 -23.5 -14.5
s-21.334 -11 -35.001 -16s-29.334 -9.33301 -47.001 -13s-37.5 -5.5 -59.5 -5.5c-38 0 -71.167 6.66699 -99.5 20s-52 31.5 -71 54.5s-33.167 50 -42.5 81s-14 64.167 -14 99.5s5.16699 68.166 15.5 98.499s25 56.666 44 78.999s41.833 39.833 68.5 52.5s56 19 88 19
s60.5 -6 85.5 -18s45.5 -29 61.5 -51s27.5 -48.333 34.5 -79s8.83301 -64.667 5.5 -102h-325v0zM370.001 300c-0.666992 16.667 -3.16602 32.833 -7.49902 48.5s-11 29.5 -20 41.5s-20.833 21.5 -35.5 28.5s-32.334 10.5 -53.001 10.5c-38.667 0 -68.667 -12 -90 -36
s-35.333 -55 -42 -93h248zM250.002 539.999l-135 126h109l92 -126h-66z" />
    <glyph glyph-name="eacute" unicode="&#xe9;" horiz-adv-x="490" 
d="M118 242c0.666992 -25.333 3.83496 -49.666 9.50195 -72.999s14.5 -43.666 26.5 -60.999s27.333 -31.166 46 -41.499s41.667 -15.5 69 -15.5c16.667 0 32 1.66699 46 5s26.5 7.16602 37.5 11.499s20.667 9 29 14l20.5 12.5l30 -57c-6 -4 -13.833 -8.83301 -23.5 -14.5
s-21.334 -11 -35.001 -16s-29.334 -9.33301 -47.001 -13s-37.5 -5.5 -59.5 -5.5c-38 0 -71.167 6.66699 -99.5 20s-52 31.5 -71 54.5s-33.167 50 -42.5 81s-14 64.167 -14 99.5s5.16699 68.166 15.5 98.499s25 56.666 44 78.999s41.833 39.833 68.5 52.5s56 19 88 19
s60.5 -6 85.5 -18s45.5 -29 61.5 -51s27.5 -48.333 34.5 -79s8.83301 -64.667 5.5 -102h-325v0zM370.001 300c-0.666992 16.667 -3.16602 32.833 -7.49902 48.5s-11 29.5 -20 41.5s-20.833 21.5 -35.5 28.5s-32.334 10.5 -53.001 10.5c-38.667 0 -68.667 -12 -90 -36
s-35.333 -55 -42 -93h248zM305.002 665.999h109l-135 -126h-66z" />
    <glyph glyph-name="ecircumflex" unicode="&#xea;" horiz-adv-x="490" 
d="M118 242c0.666992 -25.333 3.83496 -49.666 9.50195 -72.999s14.5 -43.666 26.5 -60.999s27.333 -31.166 46 -41.499s41.667 -15.5 69 -15.5c16.667 0 32 1.66699 46 5s26.5 7.16602 37.5 11.499s20.667 9 29 14l20.5 12.5l30 -57c-6 -4 -13.833 -8.83301 -23.5 -14.5
s-21.334 -11 -35.001 -16s-29.334 -9.33301 -47.001 -13s-37.5 -5.5 -59.5 -5.5c-38 0 -71.167 6.66699 -99.5 20s-52 31.5 -71 54.5s-33.167 50 -42.5 81s-14 64.167 -14 99.5s5.16699 68.166 15.5 98.499s25 56.666 44 78.999s41.833 39.833 68.5 52.5s56 19 88 19
s60.5 -6 85.5 -18s45.5 -29 61.5 -51s27.5 -48.333 34.5 -79s8.83301 -64.667 5.5 -102h-325v0zM370.001 300c-0.666992 16.667 -3.16602 32.833 -7.49902 48.5s-11 29.5 -20 41.5s-20.833 21.5 -35.5 28.5s-32.334 10.5 -53.001 10.5c-38.667 0 -68.667 -12 -90 -36
s-35.333 -55 -42 -93h248zM334.002 540.999l-81 85l-79 -85h-69l123 153h54l121 -153h-69z" />
    <glyph glyph-name="edieresis" unicode="&#xeb;" horiz-adv-x="490" 
d="M118 242c0.666992 -25.333 3.83496 -49.666 9.50195 -72.999s14.5 -43.666 26.5 -60.999s27.333 -31.166 46 -41.499s41.667 -15.5 69 -15.5c16.667 0 32 1.66699 46 5s26.5 7.16602 37.5 11.499s20.667 9 29 14l20.5 12.5l30 -57c-6 -4 -13.833 -8.83301 -23.5 -14.5
s-21.334 -11 -35.001 -16s-29.334 -9.33301 -47.001 -13s-37.5 -5.5 -59.5 -5.5c-38 0 -71.167 6.66699 -99.5 20s-52 31.5 -71 54.5s-33.167 50 -42.5 81s-14 64.167 -14 99.5s5.16699 68.166 15.5 98.499s25 56.666 44 78.999s41.833 39.833 68.5 52.5s56 19 88 19
s60.5 -6 85.5 -18s45.5 -29 61.5 -51s27.5 -48.333 34.5 -79s8.83301 -64.667 5.5 -102h-325v0zM370.001 300c-0.666992 16.667 -3.16602 32.833 -7.49902 48.5s-11 29.5 -20 41.5s-20.833 21.5 -35.5 28.5s-32.334 10.5 -53.001 10.5c-38.667 0 -68.667 -12 -90 -36
s-35.333 -55 -42 -93h248zM398.002 591.999c0 -15.333 -5.16699 -28.166 -15.5 -38.499s-23.166 -15.5 -38.499 -15.5c-14.667 0 -27.167 5.16699 -37.5 15.5s-15.5 23.166 -15.5 38.499c0 14.667 5.16699 27.167 15.5 37.5s22.833 15.5 37.5 15.5
c15.333 0 28.166 -5.16699 38.499 -15.5s15.5 -22.833 15.5 -37.5zM211.002 591.999c0 -15.333 -5.16699 -28.166 -15.5 -38.499s-23.166 -15.5 -38.499 -15.5c-14.667 0 -27.167 5.16699 -37.5 15.5s-15.5 23.166 -15.5 38.499c0 14.667 5.16699 27.167 15.5 37.5
s22.833 15.5 37.5 15.5c15.333 0 28.166 -5.16699 38.499 -15.5s15.5 -22.833 15.5 -37.5z" />
    <glyph glyph-name="igrave" unicode="&#xec;" horiz-adv-x="250" 
d="M88 0v480h74v-480h-74zM110 540l-135 126h109l92 -126h-66z" />
    <glyph glyph-name="iacute" unicode="&#xed;" horiz-adv-x="250" 
d="M88 0v480h74v-480h-74zM175 666h109l-135 -126h-66z" />
    <glyph glyph-name="icircumflex" unicode="&#xee;" horiz-adv-x="250" 
d="M88 0v480h74v-480h-74zM207 541l-81 85l-79 -85h-69l123 153h54l121 -153h-69z" />
    <glyph glyph-name="idieresis" unicode="&#xef;" horiz-adv-x="250" 
d="M88 0v480h74v-480h-74zM274 592c0 -15.333 -5.16699 -28.166 -15.5 -38.499s-23.166 -15.5 -38.499 -15.5c-14.667 0 -27.167 5.16699 -37.5 15.5s-15.5 23.166 -15.5 38.499c0 14.667 5.16699 27.167 15.5 37.5s22.833 15.5 37.5 15.5
c15.333 0 28.166 -5.16699 38.499 -15.5s15.5 -22.833 15.5 -37.5zM87 592c0 -15.333 -5.16699 -28.166 -15.5 -38.499s-23.166 -15.5 -38.499 -15.5c-14.667 0 -27.167 5.16699 -37.5 15.5s-15.5 23.166 -15.5 38.499c0 14.667 5.16699 27.167 15.5 37.5
s22.833 15.5 37.5 15.5c15.333 0 28.166 -5.16699 38.499 -15.5s15.5 -22.833 15.5 -37.5z" />
    <glyph glyph-name="eth" unicode="&#xf0;" horiz-adv-x="541" 
d="M218 543l-38.0029 44l64 54c-44 20 -96 30 -156 30l15 61c75.333 0 141 -14.333 197 -43l72 61l38 -44l-59 -50c47.333 -36.667 83.333 -85 108 -145s37 -130.333 37 -211c0 -41.333 -4.66699 -80.833 -14 -118.5s-23.666 -70.834 -42.999 -99.501
s-43.833 -51.5 -73.5 -68.5s-64.5 -25.5 -104.5 -25.5c-29.333 0 -57.166 5.5 -83.499 16.5s-49.833 27.167 -70.5 48.5s-37 47.666 -49 78.999s-18 67 -18 107c0 38.667 5.5 73.334 16.5 104.001s26.333 56.5 46 77.5s42.667 37 69 48s54.833 16.5 85.5 16.5
c20 0 37.833 -2 53.5 -6s29.834 -9.33301 42.501 -16s23.667 -14 33 -22s17 -16.333 23 -25c-16.667 86.667 -54 151.334 -112 194.001zM418.997 323c-5.33301 9.33301 -12.332 19.833 -20.999 31.5s-19.667 22.5 -33 32.5s-29.333 18.333 -48 25s-40.334 10 -65.001 10
c-42 0 -74.833 -16.333 -98.5 -49s-35.5 -76.667 -35.5 -132c0 -60.667 13.333 -107.5 40 -140.5s62 -49.5 106 -49.5c47.333 0 85 21 113 63s42 106.333 42 193v16v0z" />
    <glyph glyph-name="ntilde" unicode="&#xf1;" horiz-adv-x="530" 
d="M379 0l0.00195312 328c0 30 -6.16699 53.833 -18.5 71.5s-34.5 26.5 -66.5 26.5c-18.667 0 -35.834 -4 -51.501 -12s-29.667 -17 -42 -27s-22.333 -19.833 -30 -29.5l-15.5 -19.5v-338h-73v480h73v-69c5.33301 6.66699 12.5 14.667 21.5 24s20 18.166 33 26.499
s27.833 15.5 44.5 21.5s35.667 9 57 9c25.333 0 46.833 -4 64.5 -12s32.167 -18.667 43.5 -32s19.666 -29.166 24.999 -47.499s8 -37.833 8 -58.5v-342h-73zM402.002 601c-5.33301 -6.66699 -11.168 -13.5 -17.501 -20.5s-13.333 -13.167 -21 -18.5
s-16.167 -9.83301 -25.5 -13.5s-20 -5.5 -32 -5.5s-22.5 2 -31.5 6s-17.333 8.5 -25 13.5s-15.334 9.5 -23.001 13.5s-16.5 6 -26.5 6c-11.333 0 -21.166 -4.16699 -29.499 -12.5l-19.5 -19.5l-39 37c4.66699 6 10 12.5 16 19.5s12.833 13.5 20.5 19.5s16.334 11 26.001 15
s20.167 6 31.5 6c12.667 0 23.5 -2 32.5 -6s17.333 -8.5 25 -13.5s15.334 -9.5 23.001 -13.5s16.167 -6 25.5 -6c13.333 0 24.166 3.83301 32.499 11.5s14.5 14.167 18.5 19.5l39 -38v0z" />
    <glyph glyph-name="ograve" unicode="&#xf2;" horiz-adv-x="528" 
d="M488 241c0 -28 -4.16992 -57 -12.5029 -87s-21.5 -57.167 -39.5 -81.5s-41.333 -44.5 -70 -60.5s-63.334 -24 -104.001 -24s-75 7.83301 -103 23.5s-50.833 35.667 -68.5 60s-30.5 51.333 -38.5 81s-12 58.5 -12 86.5s3.83301 57 11.5 87s20.167 57.167 37.5 81.5
s39.833 44.5 67.5 60.5s61.834 24 102.501 24s75.334 -7.83301 104.001 -23.5s52.334 -35.667 71.001 -60s32.334 -51.333 41.001 -81s13 -58.5 13 -86.5zM409.997 239c0 26 -3.16797 50.5 -9.50098 73.5s-16 43.167 -29 60.5s-29 31 -48 41s-40.833 15 -65.5 15
c-25.333 0 -46.833 -5 -64.5 -15s-32 -23.5 -43 -40.5s-19.167 -36.833 -24.5 -59.5s-8 -47 -8 -73s2.83301 -50.5 8.5 -73.5s14.5 -43.167 26.5 -60.5s27 -31 45 -41s39.667 -15 65 -15c24.667 0 46.334 5 65.001 15s34 23.5 46 40.5s21 36.833 27 59.5s9 47 9 73z
M245.996 540l-135 126h109l92 -126h-66z" />
    <glyph glyph-name="oacute" unicode="&#xf3;" horiz-adv-x="528" 
d="M488 241c0 -28 -4.16992 -57 -12.5029 -87s-21.5 -57.167 -39.5 -81.5s-41.333 -44.5 -70 -60.5s-63.334 -24 -104.001 -24s-75 7.83301 -103 23.5s-50.833 35.667 -68.5 60s-30.5 51.333 -38.5 81s-12 58.5 -12 86.5s3.83301 57 11.5 87s20.167 57.167 37.5 81.5
s39.833 44.5 67.5 60.5s61.834 24 102.501 24s75.334 -7.83301 104.001 -23.5s52.334 -35.667 71.001 -60s32.334 -51.333 41.001 -81s13 -58.5 13 -86.5zM409.997 239c0 26 -3.16797 50.5 -9.50098 73.5s-16 43.167 -29 60.5s-29 31 -48 41s-40.833 15 -65.5 15
c-25.333 0 -46.833 -5 -64.5 -15s-32 -23.5 -43 -40.5s-19.167 -36.833 -24.5 -59.5s-8 -47 -8 -73s2.83301 -50.5 8.5 -73.5s14.5 -43.167 26.5 -60.5s27 -31 45 -41s39.667 -15 65 -15c24.667 0 46.334 5 65.001 15s34 23.5 46 40.5s21 36.833 27 59.5s9 47 9 73z
M317.996 666h109l-135 -126h-66z" />
    <glyph glyph-name="ocircumflex" unicode="&#xf4;" horiz-adv-x="528" 
d="M488 241c0 -28 -4.16992 -57 -12.5029 -87s-21.5 -57.167 -39.5 -81.5s-41.333 -44.5 -70 -60.5s-63.334 -24 -104.001 -24s-75 7.83301 -103 23.5s-50.833 35.667 -68.5 60s-30.5 51.333 -38.5 81s-12 58.5 -12 86.5s3.83301 57 11.5 87s20.167 57.167 37.5 81.5
s39.833 44.5 67.5 60.5s61.834 24 102.501 24s75.334 -7.83301 104.001 -23.5s52.334 -35.667 71.001 -60s32.334 -51.333 41.001 -81s13 -58.5 13 -86.5zM409.997 239c0 26 -3.16797 50.5 -9.50098 73.5s-16 43.167 -29 60.5s-29 31 -48 41s-40.833 15 -65.5 15
c-25.333 0 -46.833 -5 -64.5 -15s-32 -23.5 -43 -40.5s-19.167 -36.833 -24.5 -59.5s-8 -47 -8 -73s2.83301 -50.5 8.5 -73.5s14.5 -43.167 26.5 -60.5s27 -31 45 -41s39.667 -15 65 -15c24.667 0 46.334 5 65.001 15s34 23.5 46 40.5s21 36.833 27 59.5s9 47 9 73z
M341.996 541l-81 85l-79 -85h-69l123 153h54l121 -153h-69z" />
    <glyph glyph-name="otilde" unicode="&#xf5;" horiz-adv-x="528" 
d="M488 241c0 -28 -4.16992 -57 -12.5029 -87s-21.5 -57.167 -39.5 -81.5s-41.333 -44.5 -70 -60.5s-63.334 -24 -104.001 -24s-75 7.83301 -103 23.5s-50.833 35.667 -68.5 60s-30.5 51.333 -38.5 81s-12 58.5 -12 86.5s3.83301 57 11.5 87s20.167 57.167 37.5 81.5
s39.833 44.5 67.5 60.5s61.834 24 102.501 24s75.334 -7.83301 104.001 -23.5s52.334 -35.667 71.001 -60s32.334 -51.333 41.001 -81s13 -58.5 13 -86.5zM409.997 239c0 26 -3.16797 50.5 -9.50098 73.5s-16 43.167 -29 60.5s-29 31 -48 41s-40.833 15 -65.5 15
c-25.333 0 -46.833 -5 -64.5 -15s-32 -23.5 -43 -40.5s-19.167 -36.833 -24.5 -59.5s-8 -47 -8 -73s2.83301 -50.5 8.5 -73.5s14.5 -43.167 26.5 -60.5s27 -31 45 -41s39.667 -15 65 -15c24.667 0 46.334 5 65.001 15s34 23.5 46 40.5s21 36.833 27 59.5s9 47 9 73z
M402.996 601c-5.33301 -6.66699 -11.168 -13.5 -17.501 -20.5s-13.333 -13.167 -21 -18.5s-16.167 -9.83301 -25.5 -13.5s-20 -5.5 -32 -5.5s-22.5 2 -31.5 6s-17.333 8.5 -25 13.5s-15.334 9.5 -23.001 13.5s-16.5 6 -26.5 6c-11.333 0 -21.166 -4.16699 -29.499 -12.5
l-19.5 -19.5l-39 37c4.66699 6 10 12.5 16 19.5s12.833 13.5 20.5 19.5s16.334 11 26.001 15s20.167 6 31.5 6c12.667 0 23.5 -2 32.5 -6s17.333 -8.5 25 -13.5s15.334 -9.5 23.001 -13.5s16.167 -6 25.5 -6c13.333 0 24.166 3.83301 32.499 11.5s14.5 14.167 18.5 19.5
l39 -38v0z" />
    <glyph glyph-name="odieresis" unicode="&#xf6;" horiz-adv-x="528" 
d="M488 241c0 -28 -4.16992 -57 -12.5029 -87s-21.5 -57.167 -39.5 -81.5s-41.333 -44.5 -70 -60.5s-63.334 -24 -104.001 -24s-75 7.83301 -103 23.5s-50.833 35.667 -68.5 60s-30.5 51.333 -38.5 81s-12 58.5 -12 86.5s3.83301 57 11.5 87s20.167 57.167 37.5 81.5
s39.833 44.5 67.5 60.5s61.834 24 102.501 24s75.334 -7.83301 104.001 -23.5s52.334 -35.667 71.001 -60s32.334 -51.333 41.001 -81s13 -58.5 13 -86.5zM409.997 239c0 26 -3.16797 50.5 -9.50098 73.5s-16 43.167 -29 60.5s-29 31 -48 41s-40.833 15 -65.5 15
c-25.333 0 -46.833 -5 -64.5 -15s-32 -23.5 -43 -40.5s-19.167 -36.833 -24.5 -59.5s-8 -47 -8 -73s2.83301 -50.5 8.5 -73.5s14.5 -43.167 26.5 -60.5s27 -31 45 -41s39.667 -15 65 -15c24.667 0 46.334 5 65.001 15s34 23.5 46 40.5s21 36.833 27 59.5s9 47 9 73z
M405.996 592c0 -15.333 -5.16699 -28.166 -15.5 -38.499s-23.166 -15.5 -38.499 -15.5c-14.667 0 -27.167 5.16699 -37.5 15.5s-15.5 23.166 -15.5 38.499c0 14.667 5.16699 27.167 15.5 37.5s22.833 15.5 37.5 15.5c15.333 0 28.166 -5.16699 38.499 -15.5
s15.5 -22.833 15.5 -37.5zM218.996 592c0 -15.333 -5.16699 -28.166 -15.5 -38.499s-23.166 -15.5 -38.499 -15.5c-14.667 0 -27.167 5.16699 -37.5 15.5s-15.5 23.166 -15.5 38.499c0 14.667 5.16699 27.167 15.5 37.5s22.833 15.5 37.5 15.5
c15.333 0 28.166 -5.16699 38.499 -15.5s15.5 -22.833 15.5 -37.5z" />
    <glyph glyph-name="divide" unicode="&#xf7;" 
d="M1007 -217h-937v937h937v-937zM145 -142h787v787h-787v-787zM652 509h79l-202 -239l215 -270h-85l-105 131l-39 48c-12.667 15.333 -23.667 29.333 -33 42c-12 14 -22.667 27.667 -32 41v-262h-68v509h68v-242z" />
    <glyph glyph-name="oslash" unicode="&#xf8;" horiz-adv-x="528" 
d="M104 55c-22.667 25.333 -39 54.498 -49 87.498s-15 65.167 -15 96.5c0 28 3.83301 57 11.5 87s20.167 57.167 37.5 81.5s39.833 44.5 67.5 60.5s61.834 24 102.501 24c22.667 0 43.5 -2.5 62.5 -7.5s36.167 -12.167 51.5 -21.5l58 88l42 -29l-60 -90
c26 -25.333 45 -55.166 57 -89.499s18 -68.166 18 -101.499c0 -28 -4.16699 -57 -12.5 -87s-21.5 -57.167 -39.5 -81.5s-41.333 -44.5 -70 -60.5s-63.334 -24 -104.001 -24c-25.333 0 -48 3 -68 9s-38 14.667 -54 26l-52 -78l-39 27l55 83v0zM338 408.998
c-22 14.667 -48.668 21.999 -80.001 21.999c-25.333 0 -47 -5 -65 -15s-32.667 -23.667 -44 -41s-19.666 -37.5 -24.999 -60.5s-8 -47.5 -8 -73.5c0 -24.667 2.33301 -47.667 7 -69s11.667 -40.666 21 -57.999zM174.999 77.9971c22.667 -19.333 52 -28.999 88 -28.999
c25.333 0 47.333 5 66 15s34.167 23.667 46.5 41s21.5 37.5 27.5 60.5s9 47.5 9 73.5c0 26.667 -3 51.667 -9 75s-15.667 43.666 -29 60.999z" />
    <glyph glyph-name="ugrave" unicode="&#xf9;" horiz-adv-x="528" 
d="M149 480l-0.00195312 -327.996c0 -30 6.16699 -53.833 18.5 -71.5s34.833 -26.5 67.5 -26.5c18 0 35 4 51 12s30 17 42 27s21.833 19.833 29.5 29.5l15.5 19.5v338h73v-379c0 -20.667 1 -40.334 3 -59.001s4 -32.667 6 -42h-74c-1.33301 6 -2.66602 16.333 -3.99902 31
s-2.33301 28 -3 40c-5.33301 -7.33301 -12.666 -15.833 -21.999 -25.5s-20.5 -18.834 -33.5 -27.501s-27.833 -15.834 -44.5 -21.501s-35.334 -8.5 -56.001 -8.5c-25.333 0 -47 4 -65 12s-32.667 18.667 -44 32s-19.666 29.166 -24.999 47.499s-8 37.833 -8 58.5v342h73z
M254.998 540.004l-135 126h109l92 -126h-66z" />
    <glyph glyph-name="uacute" unicode="&#xfa;" horiz-adv-x="528" 
d="M149 480l-0.00195312 -327.996c0 -30 6.16699 -53.833 18.5 -71.5s34.833 -26.5 67.5 -26.5c18 0 35 4 51 12s30 17 42 27s21.833 19.833 29.5 29.5l15.5 19.5v338h73v-379c0 -20.667 1 -40.334 3 -59.001s4 -32.667 6 -42h-74c-1.33301 6 -2.66602 16.333 -3.99902 31
s-2.33301 28 -3 40c-5.33301 -7.33301 -12.666 -15.833 -21.999 -25.5s-20.5 -18.834 -33.5 -27.501s-27.833 -15.834 -44.5 -21.501s-35.334 -8.5 -56.001 -8.5c-25.333 0 -47 4 -65 12s-32.667 18.667 -44 32s-19.666 29.166 -24.999 47.499s-8 37.833 -8 58.5v342h73z
M297.998 666.004h109l-135 -126h-66z" />
    <glyph glyph-name="ucircumflex" unicode="&#xfb;" horiz-adv-x="528" 
d="M149 480l-0.00195312 -327.996c0 -30 6.16699 -53.833 18.5 -71.5s34.833 -26.5 67.5 -26.5c18 0 35 4 51 12s30 17 42 27s21.833 19.833 29.5 29.5l15.5 19.5v338h73v-379c0 -20.667 1 -40.334 3 -59.001s4 -32.667 6 -42h-74c-1.33301 6 -2.66602 16.333 -3.99902 31
s-2.33301 28 -3 40c-5.33301 -7.33301 -12.666 -15.833 -21.999 -25.5s-20.5 -18.834 -33.5 -27.501s-27.833 -15.834 -44.5 -21.501s-35.334 -8.5 -56.001 -8.5c-25.333 0 -47 4 -65 12s-32.667 18.667 -44 32s-19.666 29.166 -24.999 47.499s-8 37.833 -8 58.5v342h73z
M344.998 541.004l-81 85l-79 -85h-69l123 153h54l121 -153h-69z" />
    <glyph glyph-name="udieresis" unicode="&#xfc;" horiz-adv-x="528" 
d="M149 480l-0.00195312 -327.996c0 -30 6.16699 -53.833 18.5 -71.5s34.833 -26.5 67.5 -26.5c18 0 35 4 51 12s30 17 42 27s21.833 19.833 29.5 29.5l15.5 19.5v338h73v-379c0 -20.667 1 -40.334 3 -59.001s4 -32.667 6 -42h-74c-1.33301 6 -2.66602 16.333 -3.99902 31
s-2.33301 28 -3 40c-5.33301 -7.33301 -12.666 -15.833 -21.999 -25.5s-20.5 -18.834 -33.5 -27.501s-27.833 -15.834 -44.5 -21.501s-35.334 -8.5 -56.001 -8.5c-25.333 0 -47 4 -65 12s-32.667 18.667 -44 32s-19.666 29.166 -24.999 47.499s-8 37.833 -8 58.5v342h73z
M411.998 592.004c0 -15.333 -5.16699 -28.166 -15.5 -38.499s-23.166 -15.5 -38.499 -15.5c-14.667 0 -27.167 5.16699 -37.5 15.5s-15.5 23.166 -15.5 38.499c0 14.667 5.16699 27.167 15.5 37.5s22.833 15.5 37.5 15.5c15.333 0 28.166 -5.16699 38.499 -15.5
s15.5 -22.833 15.5 -37.5zM224.998 592.004c0 -15.333 -5.16699 -28.166 -15.5 -38.499s-23.166 -15.5 -38.499 -15.5c-14.667 0 -27.167 5.16699 -37.5 15.5s-15.5 23.166 -15.5 38.499c0 14.667 5.16699 27.167 15.5 37.5s22.833 15.5 37.5 15.5
c15.333 0 28.166 -5.16699 38.499 -15.5s15.5 -22.833 15.5 -37.5z" />
    <glyph glyph-name="yacute" unicode="&#xfd;" horiz-adv-x="469" 
d="M249 -64c-8 -22 -16.9961 -43.165 -26.9961 -63.498s-22.333 -38.333 -37 -54s-32.334 -28 -53.001 -37s-45.667 -13.5 -75 -13.5c-12.667 0 -22.334 0.5 -29.001 1.5s-12.334 2.16699 -17.001 3.5l10 61c3.33301 -0.666992 7.33301 -1.33398 12 -2.00098s13 -1 25 -1
c16.667 0 31.167 2.33301 43.5 7s23.166 11.667 32.499 21s17.5 20.666 24.5 33.999s13.833 29 20.5 47l23 63l-181 477h82l137 -383h2l133 383h78zM288.004 666.002h109l-135 -126h-66z" />
    <glyph glyph-name="thorn" unicode="&#xfe;" horiz-adv-x="529" 
d="M489 241c0 -38 -5.16895 -72.501 -15.502 -103.501s-25 -57.5 -44 -79.5s-41.5 -39.167 -67.5 -51.5s-54.333 -18.5 -85 -18.5c-34 0 -60.5 5 -79.5 15s-33.167 19 -42.5 27v-249h-73v939h73v-292c12.667 15.333 30.334 29.833 53.001 43.5s51.334 20.5 86.001 20.5
c29.333 0 56 -5.66699 80 -17s44.5 -27.666 61.5 -48.999s30.167 -47.5 39.5 -78.5s14 -66.5 14 -106.5zM410.998 238.999c0 26.667 -2.66602 51.498 -7.99902 74.498s-13.333 42.833 -24 59.5s-24.334 29.667 -41.001 39s-36.334 14 -59.001 14
c-16.667 0 -32 -2.66699 -46 -8s-26.167 -11.666 -36.5 -18.999s-19 -14.666 -26 -21.999s-12.167 -13.333 -15.5 -18v-264c11.333 -10 25.833 -19.833 43.5 -29.5s41.5 -14.5 71.5 -14.5c22.667 0 42.834 4.66699 60.501 14s32.5 22.5 44.5 39.5s21 36.833 27 59.5
s9 47.667 9 75z" />
    <glyph glyph-name="ydieresis" unicode="&#xff;" horiz-adv-x="469" 
d="M249 -64c-8 -22 -16.9961 -43.165 -26.9961 -63.498s-22.333 -38.333 -37 -54s-32.334 -28 -53.001 -37s-45.667 -13.5 -75 -13.5c-12.667 0 -22.334 0.5 -29.001 1.5s-12.334 2.16699 -17.001 3.5l10 61c3.33301 -0.666992 7.33301 -1.33398 12 -2.00098s13 -1 25 -1
c16.667 0 31.167 2.33301 43.5 7s23.166 11.667 32.499 21s17.5 20.666 24.5 33.999s13.833 29 20.5 47l23 63l-181 477h82l137 -383h2l133 383h78zM388.004 592.002c0 -15.333 -5.16699 -28.166 -15.5 -38.499s-23.166 -15.5 -38.499 -15.5
c-14.667 0 -27.167 5.16699 -37.5 15.5s-15.5 23.166 -15.5 38.499c0 14.667 5.16699 27.167 15.5 37.5s22.833 15.5 37.5 15.5c15.333 0 28.166 -5.16699 38.499 -15.5s15.5 -22.833 15.5 -37.5zM201.004 592.002c0 -15.333 -5.16699 -28.166 -15.5 -38.499
s-23.166 -15.5 -38.499 -15.5c-14.667 0 -27.167 5.16699 -37.5 15.5s-15.5 23.166 -15.5 38.499c0 14.667 5.16699 27.167 15.5 37.5s22.833 15.5 37.5 15.5c15.333 0 28.166 -5.16699 38.499 -15.5s15.5 -22.833 15.5 -37.5z" />
    <glyph glyph-name="OE" unicode="&#x152;" horiz-adv-x="885" 
d="M820 666v-66.002h-264v-214h232v-66h-232v-254h271v-66h-349c-29.333 -8 -61.666 -12 -96.999 -12c-51.333 0 -97.333 9.33301 -138 28s-75 43.834 -103 75.501s-49.5 68.167 -64.5 109.5s-22.5 85 -22.5 131s7.33301 89.833 22 131.5s36 78.334 64 110.001
s62.167 57 102.5 76s86.166 28.5 137.499 28.5c34.667 0 67.667 -4 99 -12h342zM478 593.998c-29.333 12.667 -61.666 19.001 -96.999 19.001c-40 0 -75.167 -7.5 -105.5 -22.5s-56 -35.333 -77 -61s-36.833 -55.334 -47.5 -89.001s-16 -69.167 -16 -106.5
s5.33301 -73 16 -107s26.167 -63.833 46.5 -89.5s45.666 -46.167 75.999 -61.5s65.5 -23 105.5 -23c36.667 0 69.667 6 99 18v523z" />
    <glyph glyph-name="oe" unicode="&#x153;" horiz-adv-x="859" 
d="M448 93c-19.333 -32 -43.8311 -57.499 -73.498 -76.499s-67.167 -28.5 -112.5 -28.5c-40.667 0 -75 7.83301 -103 23.5s-50.833 35.667 -68.5 60s-30.5 51.333 -38.5 81s-12 58.5 -12 86.5s3.83301 57 11.5 87s20.167 57.167 37.5 81.5s39.833 44.5 67.5 60.5
s61.834 24 102.501 24c46 0 84.5 -9.83301 115.5 -29.5s55.167 -45.167 72.5 -76.5c18.667 34 43.167 60.167 73.5 78.5s65.166 27.5 104.499 27.5c32 0 60.5 -6.16699 85.5 -18.5s45.5 -29.5 61.5 -51.5s27.5 -48.333 34.5 -79s8.83301 -64.334 5.5 -101.001h-325
c0 -26 2.83301 -50.5 8.5 -73.5s14.5 -43.167 26.5 -60.5s27.5 -31.166 46.5 -41.499s42.167 -15.5 69.5 -15.5c16.667 0 32 1.66699 46 5s26.5 7.16602 37.5 11.499s20.667 9 29 14l20.5 12.5l30 -57c-6 -4 -13.833 -8.83301 -23.5 -14.5s-21.334 -11 -35.001 -16
s-29.334 -9.33301 -47.001 -13s-37.5 -5.5 -59.5 -5.5c-44 0 -82 9.5 -114 28.5s-56.667 44.5 -74 76.5zM739.002 300.001c-0.666992 16.667 -3.16602 32.833 -7.49902 48.5s-11 29.5 -20 41.5s-20.833 21.5 -35.5 28.5s-32.334 10.5 -53.001 10.5
c-38.667 0 -68.667 -12 -90 -36s-35.333 -55 -42 -93h248zM410.003 239c0 26 -3.16797 50.5 -9.50098 73.5s-16 43.167 -29 60.5s-29 31 -48 41s-40.833 15 -65.5 15c-25.333 0 -46.833 -5 -64.5 -15s-32 -23.5 -43 -40.5s-19.167 -36.833 -24.5 -59.5s-8 -47 -8 -73
s2.83301 -50.5 8.5 -73.5s14.5 -43.167 26.5 -60.5s27 -31 45 -41s39.667 -15 65 -15c24.667 0 46.334 5 65.001 15s34 23.5 46 40.5s21 36.833 27 59.5s9 47 9 73z" />
    <glyph glyph-name="Scaron" unicode="&#x160;" horiz-adv-x="499" 
d="M451 167c0 -26 -5.33398 -49.998 -16.001 -71.998s-25.5 -41 -44.5 -57s-42 -28.333 -69 -37s-56.5 -13 -88.5 -13c-25.333 0 -48.333 2.5 -69 7.5s-38.834 11 -54.501 18s-29 14.333 -40 22s-19.5 14.5 -25.5 20.5l40 56l17.5 -15
c7.66699 -6.66699 17.834 -13.334 30.501 -20.001s27.667 -12.334 45 -17.001s37 -7 59 -7c20.667 0 39.334 3.16699 56.001 9.5s31 14.666 43 24.999s21.167 22.333 27.5 36s9.5 27.834 9.5 42.501c0 20 -4.33301 37.5 -13 52.5s-20.167 28.333 -34.5 40
s-30.666 22.334 -48.999 32.001l-56.5 28.5c-20 10 -39.333 20.5 -58 31.5s-35.167 23.667 -49.5 38s-25.833 31.166 -34.5 50.499s-13 42.333 -13 69c0 27.333 5.33301 51.5 16 72.5s25 38.833 43 53.5s38.667 25.667 62 33s47.666 11 72.999 11c24.667 0 46.667 -2 66 -6
s36.166 -8.66699 50.499 -14s26.333 -11.166 36 -17.499s17.167 -11.5 22.5 -15.5l-38 -58c-6 4.66699 -13.167 9.66699 -21.5 15s-18.333 10.333 -30 15s-24.667 8.5 -39 11.5s-30.166 4.5 -47.499 4.5c-33.333 0 -61 -9.16699 -83 -27.5s-33 -42.833 -33 -73.5
c0 -16.667 3.16699 -31.167 9.5 -43.5s15 -23.5 26 -33.5s23.667 -19 38 -27s29.833 -16 46.5 -24l67 -33.5c22.667 -11.667 43 -25.667 61 -42s32.833 -35.833 44.5 -58.5s17.5 -50.334 17.5 -83.001zM166.999 872.002l81 -85l79 85h69l-123 -153h-54l-121 153h69z" />
    <glyph glyph-name="scaron" unicode="&#x161;" horiz-adv-x="408" 
d="M364 129c0 -44 -15.3291 -78.665 -45.9961 -103.998s-72.334 -38 -125.001 -38c-34.667 0 -64.834 5 -90.501 15s-46.167 20.333 -61.5 31l32 56c9.33301 -6.66699 24.166 -14.834 44.499 -24.501s45.166 -14.5 74.499 -14.5c30 0 53.833 6 71.5 18s26.5 29 26.5 51
c0 10.667 -2.16699 20.167 -6.5 28.5s-11 16 -20 23s-20.167 13.833 -33.5 20.5s-28.666 13.667 -45.999 21c-18.667 8 -36 16.333 -52 25s-30 18.667 -42 30s-21.333 24.5 -28 39.5s-10 32.833 -10 53.5c0 18.667 3.33301 36 10 52s16.5 30 29.5 42s29 21.333 48 28
s40.5 10 64.5 10c20 0 37.833 -1.83301 53.5 -5.5s29.5 -8 41.5 -13s21.833 -10.167 29.5 -15.5l17.5 -12l-36 -53c-8.66699 6.66699 -21.834 14.334 -39.501 23.001s-40.167 13 -67.5 13c-25.333 0 -45 -5.83301 -59 -17.5s-21 -27.834 -21 -48.501
c0 -22.667 8.66699 -39.834 26 -51.501s39.333 -23.167 66 -34.5c19.333 -8 38 -16.5 56 -25.5s33.833 -19.167 47.5 -30.5s24.667 -24.5 33 -39.5s12.5 -32.5 12.5 -52.5zM122.004 692.002l81 -85l79 85h69l-123 -153h-54l-121 153h69z" />
    <glyph glyph-name="Ydieresis" unicode="&#x178;" horiz-adv-x="555" 
d="M319 252v-252h-78v252l-223 414h87l178 -340h1l178 340h75zM407 772c0 -15.333 -5.16699 -28.166 -15.5 -38.499s-23.166 -15.5 -38.499 -15.5c-14.667 0 -27.167 5.16699 -37.5 15.5s-15.5 23.166 -15.5 38.499c0 14.667 5.16699 27.167 15.5 37.5
s22.833 15.5 37.5 15.5c15.333 0 28.166 -5.16699 38.499 -15.5s15.5 -22.833 15.5 -37.5zM220 772c0 -15.333 -5.16699 -28.166 -15.5 -38.499s-23.166 -15.5 -38.499 -15.5c-14.667 0 -27.167 5.16699 -37.5 15.5s-15.5 23.166 -15.5 38.499
c0 14.667 5.16699 27.167 15.5 37.5s22.833 15.5 37.5 15.5c15.333 0 28.166 -5.16699 38.499 -15.5s15.5 -22.833 15.5 -37.5z" />
    <glyph glyph-name="florin" unicode="&#x192;" horiz-adv-x="435" 
d="M194 555c6.66699 56.667 25.6621 100.336 56.9951 131.003s75.333 46 132 46c26 0 47.667 -3 65 -9s31.666 -12.667 42.999 -20l-29 -59c-7.33301 5.33301 -18.833 10.666 -34.5 15.999s-33.5 8 -53.5 8c-19.333 0 -35.666 -3.16699 -48.999 -9.5
s-24.166 -15.166 -32.499 -26.499s-15 -25.333 -20 -42s-8.5 -35 -10.5 -55l-12 -109h112l-10 -58h-108l-41 -368c-3.33301 -26.667 -9.16602 -51.5 -17.499 -74.5s-19.666 -42.833 -33.999 -59.5s-32.166 -29.834 -53.499 -39.501s-46.333 -14.5 -75 -14.5
c-23.333 0 -41.666 2 -54.999 6s-24.333 8.66699 -33 14l23 59c5.33301 -2.66699 12.5 -5.83398 21.5 -9.50098s21.167 -5.5 36.5 -5.5c20 0 37 3.66699 51 11s25.5 17.166 34.5 29.499s16 26.5 21 42.5s8.5 32.667 10.5 50l40 359h-103l8 58h102z" />
    <glyph glyph-name="circumflex" unicode="&#x2c6;" horiz-adv-x="500" 
d="M330 541l-81 85l-79 -85h-69l123 153h54l121 -153h-69z" />
    <glyph glyph-name="tilde" unicode="&#x2dc;" horiz-adv-x="500" 
d="M395 601c-5.33301 -6.66699 -11.168 -13.5 -17.501 -20.5s-13.333 -13.167 -21 -18.5s-16.167 -9.83301 -25.5 -13.5s-20 -5.5 -32 -5.5s-22.5 2 -31.5 6s-17.333 8.5 -25 13.5s-15.334 9.5 -23.001 13.5s-16.5 6 -26.5 6c-11.333 0 -21.166 -4.16699 -29.499 -12.5
l-19.5 -19.5l-39 37c4.66699 6 10 12.5 16 19.5s12.833 13.5 20.5 19.5s16.334 11 26.001 15s20.167 6 31.5 6c12.667 0 23.5 -2 32.5 -6s17.333 -8.5 25 -13.5s15.334 -9.5 23.001 -13.5s16.167 -6 25.5 -6c13.333 0 24.166 3.83301 32.499 11.5s14.5 14.167 18.5 19.5
l39 -38v0z" />
    <glyph glyph-name="endash" unicode="&#x2013;" horiz-adv-x="525" 
d="M54 244v61h417v-61h-417z" />
    <glyph glyph-name="emdash" unicode="&#x2014;" horiz-adv-x="832" 
d="M54 244v61h724v-61h-724z" />
    <glyph glyph-name="quoteleft" unicode="&#x2018;" horiz-adv-x="203" 
d="M43 508c0 16.667 2.33105 33.167 6.99805 49.5s10.334 31.5 17.001 45.5s13.667 26.5 21 37.5s13.333 19.5 18 25.5h54c-7.33301 -9.33301 -15.333 -22.5 -24 -39.5s-13 -34.833 -13 -53.5c0 -9.33301 2 -17.166 6 -23.499s8.5 -12.5 13.5 -18.5s9.5 -12.333 13.5 -19
s6 -15.334 6 -26.001c0 -14 -5.16699 -25.667 -15.5 -35s-23.166 -14 -38.499 -14c-17.333 0 -32.5 6.16699 -45.5 18.5s-19.5 29.833 -19.5 52.5z" />
    <glyph glyph-name="quoteright" unicode="&#x2019;" horiz-adv-x="203" 
d="M160 607c0 -16.667 -2.33105 -33.167 -6.99805 -49.5s-10.334 -31.5 -17.001 -45.5s-13.667 -26.5 -21 -37.5s-13.333 -19.5 -18 -25.5h-54c7.33301 9.33301 15.333 22.5 24 39.5s13 34.833 13 53.5c0 9.33301 -2 17.166 -6 23.499s-8.5 12.5 -13.5 18.5
s-9.5 12.333 -13.5 19s-6 15.334 -6 26.001c0 14 5.16699 25.667 15.5 35s23.166 14 38.499 14c17.333 0 32.5 -6.16699 45.5 -18.5s19.5 -29.833 19.5 -52.5z" />
    <glyph glyph-name="quotesinglbase" unicode="&#x201a;" horiz-adv-x="203" 
d="M160 39c0 -16.667 -2.33105 -33.167 -6.99805 -49.5s-10.334 -31.5 -17.001 -45.5s-13.667 -26.5 -21 -37.5s-13.333 -19.5 -18 -25.5h-54c7.33301 9.33301 15.333 22.5 24 39.5s13 34.833 13 53.5c0 9.33301 -2 17.166 -6 23.499s-8.5 12.5 -13.5 18.5
s-9.5 12.333 -13.5 19s-6 15.334 -6 26.001c0 14 5.16699 25.667 15.5 35s23.166 14 38.499 14c17.333 0 32.5 -6.16699 45.5 -18.5s19.5 -29.833 19.5 -52.5z" />
    <glyph glyph-name="quotedblleft" unicode="&#x201c;" horiz-adv-x="364" 
d="M204 508c0 16.667 2.33105 33.167 6.99805 49.5s10.334 31.5 17.001 45.5s13.667 26.5 21 37.5s13.333 19.5 18 25.5h54c-7.33301 -9.33301 -15.333 -22.5 -24 -39.5s-13 -34.833 -13 -53.5c0 -9.33301 2 -17.166 6 -23.499s8.5 -12.5 13.5 -18.5s9.5 -12.333 13.5 -19
s6 -15.334 6 -26.001c0 -14 -5.16699 -25.667 -15.5 -35s-23.166 -14 -38.499 -14c-17.333 0 -32.5 6.16699 -45.5 18.5s-19.5 29.833 -19.5 52.5zM32.998 508c0 16.667 2.33105 33.167 6.99805 49.5s10.334 31.5 17.001 45.5s13.667 26.5 21 37.5s13.333 19.5 18 25.5h54
c-7.33301 -9.33301 -15.333 -22.5 -24 -39.5s-13 -34.833 -13 -53.5c0 -9.33301 2 -17.166 6 -23.499s8.5 -12.5 13.5 -18.5s9.5 -12.333 13.5 -19s6 -15.334 6 -26.001c0 -14 -5.16699 -25.667 -15.5 -35s-23.166 -14 -38.499 -14c-17.333 0 -32.5 6.16699 -45.5 18.5
s-19.5 29.833 -19.5 52.5z" />
    <glyph glyph-name="quotedblright" unicode="&#x201d;" horiz-adv-x="364" 
d="M331 607c0 -16.667 -2.33105 -33.167 -6.99805 -49.5s-10.334 -31.5 -17.001 -45.5s-13.667 -26.5 -21 -37.5s-13.333 -19.5 -18 -25.5h-54c7.33301 9.33301 15.333 22.5 24 39.5s13 34.833 13 53.5c0 9.33301 -2 17.166 -6 23.499s-8.5 12.5 -13.5 18.5
s-9.5 12.333 -13.5 19s-6 15.334 -6 26.001c0 14 5.16699 25.667 15.5 35s23.166 14 38.499 14c17.333 0 32.5 -6.16699 45.5 -18.5s19.5 -29.833 19.5 -52.5zM160.002 607c0 -16.667 -2.33105 -33.167 -6.99805 -49.5s-10.334 -31.5 -17.001 -45.5s-13.667 -26.5 -21 -37.5
s-13.333 -19.5 -18 -25.5h-54c7.33301 9.33301 15.333 22.5 24 39.5s13 34.833 13 53.5c0 9.33301 -2 17.166 -6 23.499s-8.5 12.5 -13.5 18.5s-9.5 12.333 -13.5 19s-6 15.334 -6 26.001c0 14 5.16699 25.667 15.5 35s23.166 14 38.499 14
c17.333 0 32.5 -6.16699 45.5 -18.5s19.5 -29.833 19.5 -52.5z" />
    <glyph glyph-name="quotedblbase" unicode="&#x201e;" horiz-adv-x="374" 
d="M331 39c0 -16.667 -2.33105 -33.167 -6.99805 -49.5s-10.334 -31.5 -17.001 -45.5s-13.667 -26.5 -21 -37.5s-13.333 -19.5 -18 -25.5h-54c7.33301 9.33301 15.333 22.5 24 39.5s13 34.833 13 53.5c0 9.33301 -2 17.166 -6 23.499s-8.5 12.5 -13.5 18.5
s-9.5 12.333 -13.5 19s-6 15.334 -6 26.001c0 14 5.16699 25.667 15.5 35s23.166 14 38.499 14c17.333 0 32.5 -6.16699 45.5 -18.5s19.5 -29.833 19.5 -52.5zM160.002 39c0 -16.667 -2.33105 -33.167 -6.99805 -49.5s-10.334 -31.5 -17.001 -45.5s-13.667 -26.5 -21 -37.5
s-13.333 -19.5 -18 -25.5h-54c7.33301 9.33301 15.333 22.5 24 39.5s13 34.833 13 53.5c0 9.33301 -2 17.166 -6 23.499s-8.5 12.5 -13.5 18.5s-9.5 12.333 -13.5 19s-6 15.334 -6 26.001c0 14 5.16699 25.667 15.5 35s23.166 14 38.499 14
c17.333 0 32.5 -6.16699 45.5 -18.5s19.5 -29.833 19.5 -52.5z" />
    <glyph glyph-name="dagger" unicode="&#x2020;" horiz-adv-x="543" 
d="M491 410h-110l-82 8l15 -142l-18 -446h-49l-19 446l16 142l-82 -8h-110v70h110l82 -8l-13 111v137h81v-137l-13 -111l82 8h110v-70z" />
    <glyph glyph-name="daggerdbl" unicode="&#x2021;" horiz-adv-x="543" 
d="M381 72l-82 8l13 -111v-137h-81v137l13 111l-82 -8h-110v70h110l82 -8l-16 142l16 142l-82 -8h-110v70h110l82 -8l-13 111v137h81v-137l-13 -111l82 8h110v-70h-110l-82 8l15 -142l-15 -142l82 8h110v-70h-110z" />
    <glyph glyph-name="bullet" unicode="&#x2022;" horiz-adv-x="362" 
d="M306 286c0 -17.333 -3.33301 -33.5 -10 -48.5s-15.667 -28.167 -27 -39.5s-24.5 -20.166 -39.5 -26.499s-31.167 -9.5 -48.5 -9.5s-33.5 3.16699 -48.5 9.5s-28.167 15.166 -39.5 26.499s-20.333 24.5 -27 39.5s-10 31.167 -10 48.5s3.33301 33.5 10 48.5
s15.667 28.167 27 39.5s24.5 20.333 39.5 27s31.167 10 48.5 10s33.5 -3.33301 48.5 -10s28.167 -15.667 39.5 -27s20.333 -24.5 27 -39.5s10 -31.167 10 -48.5z" />
    <glyph glyph-name="ellipsis" unicode="&#x2026;" horiz-adv-x="621" 
d="M571 51c0 -16.667 -5.83301 -30.834 -17.5 -42.501s-25.834 -17.5 -42.501 -17.5s-30.834 5.83301 -42.501 17.5s-17.5 25.834 -17.5 42.501s5.83301 30.667 17.5 42s25.834 17 42.501 17s30.834 -5.66699 42.501 -17s17.5 -25.333 17.5 -42zM370 51
c0 -16.667 -5.66699 -30.834 -17 -42.501s-25.666 -17.5 -42.999 -17.5c-16.667 0 -30.667 5.83301 -42 17.5s-17 25.834 -17 42.501s5.66699 30.667 17 42s25.333 17 42 17c17.333 0 31.666 -5.66699 42.999 -17s17 -25.333 17 -42zM170 51
c0 -16.667 -5.83301 -30.834 -17.5 -42.501s-25.834 -17.5 -42.501 -17.5c-17.333 0 -31.666 5.83301 -42.999 17.5s-17 25.834 -17 42.501s5.66699 30.667 17 42s25.666 17 42.999 17c16.667 0 30.834 -5.66699 42.501 -17s17.5 -25.333 17.5 -42z" />
    <glyph glyph-name="perthousand" unicode="&#x2030;" horiz-adv-x="1076" 
d="M317 354c0 -16 -2.66797 -32.333 -8.00098 -49s-13.833 -31.834 -25.5 -45.501s-26.5 -24.834 -44.5 -33.501s-39.333 -13 -64 -13c-25.333 0 -46.833 4.16699 -64.5 12.5s-32.167 19.333 -43.5 33s-19.666 28.667 -24.999 45s-8 32.5 -8 48.5s2.83301 32.333 8.5 49
s14.167 31.667 25.5 45s26 24.333 44 33s39.667 13 65 13c24.667 0 46 -4.16699 64 -12.5s32.5 -19.166 43.5 -32.499s19.167 -28.166 24.5 -44.499s8 -32.5 8 -48.5zM263.999 0h-63l287 480h63zM1042 129c0 -16 -2.66797 -32.333 -8.00098 -49
s-13.833 -31.834 -25.5 -45.501s-26.5 -24.834 -44.5 -33.501s-39.333 -13 -64 -13c-25.333 0 -46.833 4.16699 -64.5 12.5s-32.167 19.333 -43.5 33s-19.666 28.667 -24.999 45s-8 32.5 -8 48.5s2.83301 32.333 8.5 49s14.167 31.667 25.5 45s26 24.333 44 33
s39.667 13 65 13c24.667 0 46 -4.16699 64 -12.5s32.5 -19.166 43.5 -32.499s19.167 -28.166 24.5 -44.499s8 -32.5 8 -48.5zM711.998 129c0 -16 -2.66797 -32.333 -8.00098 -49s-13.833 -31.834 -25.5 -45.501s-26.5 -24.834 -44.5 -33.501s-39.333 -13 -64 -13
c-25.333 0 -46.833 4.16699 -64.5 12.5s-32.167 19.333 -43.5 33s-19.666 28.667 -24.999 45s-8 32.5 -8 48.5s2.83301 32.333 8.5 49s14.167 31.667 25.5 45s26 24.333 44 33s39.667 13 65 13c24.667 0 46 -4.16699 64 -12.5s32.5 -19.166 43.5 -32.499
s19.167 -28.166 24.5 -44.499s8 -32.5 8 -48.5zM255.997 352c0 25.333 -6.5 46.998 -19.5 64.998s-33.5 27 -61.5 27s-48.333 -8.66699 -61 -26s-19 -38.666 -19 -63.999s6.66699 -47.166 20 -65.499s34 -27.5 62 -27.5s48.167 8.83301 60.5 26.5s18.5 39.167 18.5 64.5z
M980.997 126.998c0 25.333 -6.5 46.998 -19.5 64.998s-33.5 27 -61.5 27s-48.333 -8.66699 -61 -26s-19 -38.666 -19 -63.999s6.66699 -47.166 20 -65.499s34 -27.5 62 -27.5s48.167 8.83301 60.5 26.5s18.5 39.167 18.5 64.5zM650.997 126.996
c0 25.333 -6.5 46.998 -19.5 64.998s-33.5 27 -61.5 27s-48.333 -8.66699 -61 -26s-19 -38.666 -19 -63.999s6.66699 -47.166 20 -65.499s34 -27.5 62 -27.5s48.167 8.83301 60.5 26.5s18.5 39.167 18.5 64.5z" />
    <glyph glyph-name="guilsinglleft" unicode="&#x2039;" horiz-adv-x="298" 
d="M178 56l-133 189l133 190h77l-132 -190l132 -189h-77z" />
    <glyph glyph-name="guilsinglright" unicode="&#x203a;" horiz-adv-x="298" 
d="M119 56h-76l132 189l-132 190h76l134 -190z" />
    <glyph glyph-name="trademark" unicode="&#x2122;" horiz-adv-x="714" 
d="M565 666l61.002 -0.00292969l32 -291h-53l-16 165c-1.33301 6.66699 -2 13.834 -2 21.501s-0.333008 14.5 -1 20.5c-0.666992 7.33301 -1 14.333 -1 21h-2c-1.33301 -6.66699 -3 -13.667 -5 -21c-1.33301 -6.66699 -3.5 -14.167 -6.5 -22.5l-9.5 -26.5l-64 -158h-46
l-59 150c-3.33301 8.66699 -6.5 17.667 -9.5 27s-5.5 17.666 -7.5 24.999c-2.66699 8.66699 -5 17.334 -7 26.001h-2c0 -5.33301 -0.333008 -11.666 -1 -18.999c-0.666992 -6 -1.16699 -12.833 -1.5 -20.5s-0.833008 -16.167 -1.5 -25.5l-14 -163h-49l31 291h60l67 -171
c6 -15.333 10.667 -28.333 14 -39c2 -6 3.66699 -11.667 5 -17h2c1.33301 4.66699 3 10 5 16c1.33301 5.33301 3.16602 11.333 5.49902 18s5.16602 14.334 8.49902 23.001zM180.002 374.997h-54v246h-83v45h221v-45h-84v-246z" />
    <glyph glyph-name=".null" horiz-adv-x="0" 
 />
    <glyph glyph-name="nonmarkingreturn" horiz-adv-x="225" 
 />
    <glyph glyph-name="notequal" horiz-adv-x="586" 
d="M177 0l-72.998 -0.000976562v422h-84v58h84v62c0 26.667 4.16699 51.334 12.5 74.001s20.333 42 36 58s35 28.5 58 37.5s49.167 13.5 78.5 13.5c36 0 63.833 -4.33301 83.5 -13s35.167 -17 46.5 -25c15.333 14.667 33.166 25.834 53.499 33.501s44.166 11.5 71.499 11.5
c23.333 0 41.5 -1.66699 54.5 -5s21.5 -6 25.5 -8l-19 -63c-3.33301 1.33301 -10.333 3.66602 -21 6.99902s-24.667 5 -42 5c-66.667 0 -100 -40.667 -100 -122v-66h122v-58h-122v-422h-73v422h-192v-422zM382.002 629.999c-7.33301 6 -18.5 12.667 -33.5 20
s-35.5 11 -61.5 11c-34 0 -60.833 -10.5 -80.5 -31.5s-29.5 -56.833 -29.5 -107.5v-42h192v71c0 30.667 4.33301 57 13 79z" />
    <glyph glyph-name="infinity" horiz-adv-x="799" 
d="M177 0l-73.001 -0.000976562v422h-84v58h84v62c0 26.667 4.16699 51.334 12.5 74.001s20.333 42 36 58s35 28.5 58 37.5s49.167 13.5 78.5 13.5c37.333 0 66 -4.66699 86 -14s35.667 -18 47 -26c33.333 31.333 78.333 47 135 47c20.667 0 38.834 -1.5 54.501 -4.5
s29.667 -6.66699 42 -11s23.166 -9.33301 32.499 -15l25 -15.5l-37 -58c-11.333 8 -26.666 16.667 -45.999 26s-44 14 -74 14c-36 0 -63.667 -10.667 -83 -32s-29 -53 -29 -95v-61h269v-480h-73v422h-196v-422h-73v422h-192v-422zM383.999 627.999
c-7.33301 6 -18.5 13 -33.5 21s-36.167 12 -63.5 12c-34 0 -60.833 -10.5 -80.5 -31.5s-29.5 -56.833 -29.5 -107.5v-42h192v68c0 29.333 5 56 15 80z" />
    <glyph glyph-name="lessequal" 
d="M1007 -217h-937v937h937v-937zM145 -142h787v787h-787v-787zM652 509h79l-202 -239l215 -270h-85l-105 131l-39 48c-12.667 15.333 -23.667 29.333 -33 42c-12 14 -22.667 27.667 -32 41v-262h-68v509h68v-242z" />
    <glyph glyph-name="greaterequal" 
d="M1007 -217h-937v937h937v-937zM145 -142h787v787h-787v-787zM652 509h79l-202 -239l215 -270h-85l-105 131l-39 48c-12.667 15.333 -23.667 29.333 -33 42c-12 14 -22.667 27.667 -32 41v-262h-68v509h68v-242z" />
    <glyph glyph-name="partialdiff" 
d="M1007 -217h-937v937h937v-937zM145 -142h787v787h-787v-787zM604 125c0 -45.333 -10.333 -80 -31 -104s-51 -36 -91 -36c-12 0 -22.333 1 -31 3s-14.667 4 -18 6l11 60c2.66699 -1.33301 6.66699 -2.83301 12 -4.5s11.333 -2.5 18 -2.5c21.333 0 36.833 7 46.5 21
s14.5 36.333 14.5 67v374h69v-384v0z" />
    <glyph glyph-name="summation" 
d="M1007 -217h-937v937h937v-937zM145 -142h787v787h-787v-787zM652 509h79l-202 -239l215 -270h-85l-105 131l-39 48c-12.667 15.333 -23.667 29.333 -33 42c-12 14 -22.667 27.667 -32 41v-262h-68v509h68v-242z" />
    <glyph glyph-name="product" 
d="M1007 -217h-937v937h937v-937zM145 -142h787v787h-787v-787zM652 509h79l-202 -239l215 -270h-85l-105 131l-39 48c-12.667 15.333 -23.667 29.333 -33 42c-12 14 -22.667 27.667 -32 41v-262h-68v509h68v-242z" />
    <glyph glyph-name="pi" horiz-adv-x="865" 
d="M805 359c0 -51.333 -9.83301 -99.666 -29.5 -144.999s-46.334 -84.833 -80.001 -118.5s-73.167 -60.334 -118.5 -80.001s-93.666 -29.5 -144.999 -29.5s-99.5 9.83301 -144.5 29.5s-84.333 46.334 -118 80.001s-60.334 73.167 -80.001 118.5s-29.5 93.666 -29.5 144.999
s9.83301 99.666 29.5 144.999s46.334 84.833 80.001 118.5s73 60.334 118 80.001s93.167 29.5 144.5 29.5s99.666 -9.83301 144.999 -29.5s84.833 -46.334 118.5 -80.001s60.334 -73.167 80.001 -118.5s29.5 -93.666 29.5 -144.999zM749 359c0 46.667 -8 89.5 -24 128.5
s-38.167 72.833 -66.5 101.5s-61.833 51 -100.5 67s-80.667 24 -126 24s-87.333 -8 -126 -24s-72 -38.333 -100 -67s-50 -62.5 -66 -101.5s-24 -81.833 -24 -128.5s8 -89.667 24 -129s38 -73.166 66 -101.499s61.333 -50.5 100 -66.5s80.667 -24 126 -24s87.333 8 126 24
s72.167 38.167 100.5 66.5s50.5 62.166 66.5 101.499s24 82.333 24 129zM375 136l-65.002 0.000976562v452h147c22.667 0 42.667 -3.83301 60 -11.5s31.833 -17.834 43.5 -30.501s20.5 -27.167 26.5 -43.5s9 -32.833 9 -49.5c0 -17.333 -3.16699 -34 -9.5 -50
s-16.166 -30.333 -29.499 -43s-30.666 -22.667 -51.999 -30s-47 -11 -77 -11h-53v-183zM525.998 451.001c0 26.667 -6.49902 46.833 -19.499 60.5s-34.5 20.5 -64.5 20.5h-67v-162h49c33.333 0 58.666 6.5 75.999 19.5s26 33.5 26 61.5z" />
    <glyph glyph-name="integral" horiz-adv-x="1031" 
d="M1007 -218h-937v937h937v-937zM145 -143h787v787h-787v-787zM320 -1l195 509h68l196 -509h-76l-44 119h-226l-44 -119h-69zM578 340l-11.501 32.001c-3.66699 10.667 -7.16699 20.334 -10.5 29.001l-9 28h-2c-3.33301 -8.66699 -6.33301 -18 -9 -28
c-3.33301 -8.66699 -6.66602 -18.334 -9.99902 -29.001s-7 -21.334 -11 -32.001l-61 -164h184l-60 164v0z" />
    <glyph glyph-name="Omega" 
d="M1007 -217h-937v937h937v-937zM145 -142h787v787h-787v-787zM652 509h79l-202 -239l215 -270h-85l-105 131l-39 48c-12.667 15.333 -23.667 29.333 -33 42c-12 14 -22.667 27.667 -32 41v-262h-68v509h68v-242z" />
    <glyph glyph-name="radical" horiz-adv-x="571" 
d="M307 0h-70l-187 480h76l145 -389h2l198 629h75z" />
    <glyph glyph-name="approxequal" 
d="M1007 -217h-937v937h937v-937zM145 -142h787v787h-787v-787zM652 509h79l-202 -239l215 -270h-85l-105 131l-39 48c-12.667 15.333 -23.667 29.333 -33 42c-12 14 -22.667 27.667 -32 41v-262h-68v509h68v-242z" />
    <glyph glyph-name="Delta" horiz-adv-x="537" 
d="M449 -64c0 -24.667 -2.50098 -47.168 -7.50098 -67.501s-13 -37.833 -24 -52.5s-25.167 -26 -42.5 -34s-38.333 -12 -63 -12c-16.667 0 -29 0.833008 -37 2.5s-13 3.16699 -15 4.5l12 61c2.66699 -1.33301 6.5 -2.5 11.5 -3.5s12.5 -1.5 22.5 -1.5
c26.667 0 45 10.167 55 30.5s15 48.833 15 85.5v473h-203v-422h-73v422h-80v58h80v68c0 26.667 4.16699 51.334 12.5 74.001s20.5 42.167 36.5 58.5s35.667 29 59 38s50 13.5 80 13.5c20.667 0 38.834 -1.5 54.501 -4.5s29.667 -6.66699 42 -11s23.166 -9.33301 32.499 -15
l25 -15.5l-37 -58c-11.333 8 -26.666 16.667 -45.999 26s-44 14 -74 14c-36 0 -63.667 -10.667 -83 -32s-29 -53 -29 -95v-61h276v-544v0z" />
    <glyph glyph-name="nonbreakingspace" horiz-adv-x="253" 
 />
    <glyph glyph-name="lozenge" 
d="M1007 -217h-937v937h937v-937zM145 -142h787v787h-787v-787zM652 509h79l-202 -239l215 -270h-85l-105 131l-39 48c-12.667 15.333 -23.667 29.333 -33 42c-12 14 -22.667 27.667 -32 41v-262h-68v509h68v-242z" />
    <glyph glyph-name="apple" 
d="M1007 -217h-937v937h937v-937zM145 -142h787v787h-787v-787zM652 509h79l-202 -239l215 -270h-85l-105 131l-39 48c-12.667 15.333 -23.667 29.333 -33 42c-12 14 -22.667 27.667 -32 41v-262h-68v509h68v-242z" />
    </font>
</defs>
</svg>
