<svg id="home" xmlns="http://www.w3.org/2000/svg" xmlns:xlink="http://www.w3.org/1999/xlink" viewBox="0 0 494.7515 476.7597"><defs><clipPath id="clip-path" transform="translate(-6528.497 -1703.2587)"><circle cx="6720.4791" cy="1984.0363" r="137.0032" fill="none"/></clipPath></defs><title>rounds-pattern-2</title><circle cx="137.6067" cy="150.8477" r="61.4435" fill="#c6b3af"/><g clip-path="url(#clip-path)"><circle cx="4" cy="96.7954" r="4" fill="#fff"/><circle cx="21.9031" cy="96.7954" r="4" fill="#fff"/><circle cx="39.8061" cy="96.7954" r="4" fill="#fff"/><circle cx="57.7092" cy="96.7954" r="4" fill="#fff"/><circle cx="75.6122" cy="96.7954" r="4" fill="#fff"/><circle cx="93.5153" cy="96.7954" r="4" fill="#fff"/><circle cx="111.4184" cy="96.7954" r="4" fill="#fff"/><circle cx="129.3214" cy="96.7954" r="4" fill="#fff"/><circle cx="147.2245" cy="96.7954" r="4" fill="#fff"/><circle cx="165.1275" cy="96.7954" r="4" fill="#fff"/><circle cx="183.0306" cy="96.7954" r="4" fill="#fff"/><circle cx="4" cy="114.6985" r="4" fill="#fff"/><circle cx="21.9031" cy="114.6985" r="4" fill="#fff"/><circle cx="39.8061" cy="114.6985" r="4" fill="#fff"/><circle cx="57.7092" cy="114.6985" r="4" fill="#fff"/><circle cx="75.6122" cy="114.6985" r="4" fill="#fff"/><circle cx="93.5153" cy="114.6985" r="4" fill="#fff"/><circle cx="111.4184" cy="114.6985" r="4" fill="#fff"/><circle cx="129.3214" cy="114.6985" r="4" fill="#fff"/><circle cx="147.2245" cy="114.6985" r="4" fill="#fff"/><circle cx="165.1275" cy="114.6985" r="4" fill="#fff"/><circle cx="183.0306" cy="114.6985" r="4" fill="#fff"/><circle cx="4" cy="132.6016" r="4" fill="#fff"/><circle cx="21.9031" cy="132.6016" r="4" fill="#fff"/><circle cx="39.8061" cy="132.6016" r="4" fill="#fff"/><circle cx="57.7092" cy="132.6016" r="4" fill="#fff"/><circle cx="75.6122" cy="132.6016" r="4" fill="#fff"/><circle cx="93.5153" cy="132.6016" r="4" fill="#fff"/><circle cx="111.4184" cy="132.6016" r="4" fill="#fff"/><circle cx="129.3214" cy="132.6016" r="4" fill="#fff"/><circle cx="147.2245" cy="132.6016" r="4" fill="#fff"/><circle cx="165.1275" cy="132.6016" r="4" fill="#fff"/><circle cx="183.0306" cy="132.6016" r="4" fill="#fff"/><circle cx="4" cy="150.5046" r="4" fill="#fff"/><circle cx="21.9031" cy="150.5046" r="4" fill="#fff"/><circle cx="39.8061" cy="150.5046" r="4" fill="#fff"/><circle cx="57.7092" cy="150.5046" r="4" fill="#fff"/><circle cx="75.6122" cy="150.5046" r="4" fill="#fff"/><circle cx="93.5153" cy="150.5046" r="4" fill="#fff"/><circle cx="111.4184" cy="150.5046" r="4" fill="#fff"/><circle cx="129.3214" cy="150.5046" r="4" fill="#fff"/><circle cx="147.2245" cy="150.5046" r="4" fill="#fff"/><circle cx="165.1275" cy="150.5046" r="4" fill="#fff"/><circle cx="183.0306" cy="150.5046" r="4" fill="#fff"/><circle cx="4" cy="168.4077" r="4" fill="#fff"/><circle cx="21.9031" cy="168.4077" r="4" fill="#fff"/><circle cx="39.8061" cy="168.4077" r="4" fill="#fff"/><circle cx="57.7092" cy="168.4077" r="4" fill="#fff"/><circle cx="75.6122" cy="168.4077" r="4" fill="#fff"/><circle cx="93.5153" cy="168.4077" r="4" fill="#fff"/><circle cx="111.4184" cy="168.4077" r="4" fill="#fff"/><circle cx="129.3214" cy="168.4077" r="4" fill="#fff"/><circle cx="147.2245" cy="168.4077" r="4" fill="#fff"/><circle cx="165.1275" cy="168.4077" r="4" fill="#fff"/><circle cx="183.0306" cy="168.4077" r="4" fill="#fff"/><circle cx="4" cy="186.3107" r="4" fill="#fff"/><circle cx="21.9031" cy="186.3107" r="4" fill="#fff"/><circle cx="39.8061" cy="186.3107" r="4" fill="#fff"/><circle cx="57.7092" cy="186.3107" r="4" fill="#fff"/><circle cx="75.6122" cy="186.3107" r="4" fill="#fff"/><circle cx="93.5153" cy="186.3107" r="4" fill="#fff"/><circle cx="111.4184" cy="186.3107" r="4" fill="#fff"/><circle cx="129.3214" cy="186.3107" r="4" fill="#fff"/><circle cx="147.2245" cy="186.3107" r="4" fill="#fff"/><circle cx="165.1275" cy="186.3107" r="4" fill="#fff"/><circle cx="183.0306" cy="186.3107" r="4" fill="#fff"/><circle cx="4" cy="204.2138" r="4" fill="#fff"/><circle cx="21.9031" cy="204.2138" r="4" fill="#fff"/><circle cx="39.8061" cy="204.2138" r="4" fill="#fff"/><circle cx="57.7092" cy="204.2138" r="4" fill="#fff"/><circle cx="75.6122" cy="204.2138" r="4" fill="#fff"/><circle cx="93.5153" cy="204.2138" r="4" fill="#fff"/><circle cx="111.4184" cy="204.2138" r="4" fill="#fff"/><circle cx="129.3214" cy="204.2138" r="4" fill="#fff"/><circle cx="147.2245" cy="204.2138" r="4" fill="#fff"/><circle cx="165.1275" cy="204.2138" r="4" fill="#fff"/><circle cx="183.0306" cy="204.2138" r="4" fill="#fff"/><circle cx="4" cy="222.1169" r="4" fill="#fff"/><circle cx="21.9031" cy="222.1169" r="4" fill="#fff"/><circle cx="39.8061" cy="222.1169" r="4" fill="#fff"/><circle cx="57.7092" cy="222.1169" r="4" fill="#fff"/><circle cx="75.6122" cy="222.1169" r="4" fill="#fff"/><circle cx="93.5153" cy="222.1169" r="4" fill="#fff"/><circle cx="111.4184" cy="222.1169" r="4" fill="#fff"/><circle cx="129.3214" cy="222.1169" r="4" fill="#fff"/><circle cx="147.2245" cy="222.1169" r="4" fill="#fff"/><circle cx="165.1275" cy="222.1169" r="4" fill="#fff"/><circle cx="183.0306" cy="222.1169" r="4" fill="#fff"/><circle cx="4" cy="240.0199" r="4" fill="#fff"/><circle cx="21.9031" cy="240.0199" r="4" fill="#fff"/><circle cx="39.8061" cy="240.0199" r="4" fill="#fff"/><circle cx="57.7092" cy="240.0199" r="4" fill="#fff"/><circle cx="75.6122" cy="240.0199" r="4" fill="#fff"/><circle cx="93.5153" cy="240.0199" r="4" fill="#fff"/><circle cx="111.4184" cy="240.0199" r="4" fill="#fff"/><circle cx="129.3214" cy="240.0199" r="4" fill="#fff"/><circle cx="147.2245" cy="240.0199" r="4" fill="#fff"/><circle cx="165.1275" cy="240.0199" r="4" fill="#fff"/><circle cx="183.0306" cy="240.0199" r="4" fill="#fff"/><circle cx="4" cy="257.923" r="4" fill="#fff"/><circle cx="21.9031" cy="257.923" r="4" fill="#fff"/><circle cx="39.8061" cy="257.923" r="4" fill="#fff"/><circle cx="57.7092" cy="257.923" r="4" fill="#fff"/><circle cx="75.6122" cy="257.923" r="4" fill="#fff"/><circle cx="93.5153" cy="257.923" r="4" fill="#fff"/><circle cx="111.4184" cy="257.923" r="4" fill="#fff"/><circle cx="129.3214" cy="257.923" r="4" fill="#fff"/><circle cx="147.2245" cy="257.923" r="4" fill="#fff"/><circle cx="165.1275" cy="257.923" r="4" fill="#fff"/><circle cx="183.0306" cy="257.923" r="4" fill="#fff"/><circle cx="4" cy="275.826" r="4" fill="#fff"/><circle cx="21.9031" cy="275.826" r="4" fill="#fff"/><circle cx="39.8061" cy="275.826" r="4" fill="#fff"/><circle cx="57.7092" cy="275.826" r="4" fill="#fff"/><circle cx="75.6122" cy="275.826" r="4" fill="#fff"/><circle cx="93.5153" cy="275.826" r="4" fill="#fff"/><circle cx="111.4184" cy="275.826" r="4" fill="#fff"/><circle cx="129.3214" cy="275.826" r="4" fill="#fff"/><circle cx="147.2245" cy="275.826" r="4" fill="#fff"/><circle cx="165.1275" cy="275.826" r="4" fill="#fff"/><circle cx="183.0306" cy="275.826" r="4" fill="#fff"/><circle cx="200.9337" cy="96.7954" r="4" fill="#fff"/><circle cx="218.8367" cy="96.7954" r="4" fill="#fff"/><circle cx="236.7398" cy="96.7954" r="4" fill="#fff"/><circle cx="254.6428" cy="96.7954" r="4" fill="#fff"/><circle cx="272.5459" cy="96.7954" r="4" fill="#fff"/><circle cx="290.449" cy="96.7954" r="4" fill="#fff"/><circle cx="308.352" cy="96.7954" r="4" fill="#fff"/><circle cx="326.2551" cy="96.7954" r="4" fill="#fff"/><circle cx="344.1581" cy="96.7954" r="4" fill="#fff"/><circle cx="362.0612" cy="96.7954" r="4" fill="#fff"/><circle cx="379.9643" cy="96.7954" r="4" fill="#fff"/><circle cx="200.9337" cy="114.6985" r="4" fill="#fff"/><circle cx="218.8367" cy="114.6985" r="4" fill="#fff"/><circle cx="236.7398" cy="114.6985" r="4" fill="#fff"/><circle cx="254.6428" cy="114.6985" r="4" fill="#fff"/><circle cx="272.5459" cy="114.6985" r="4" fill="#fff"/><circle cx="290.449" cy="114.6985" r="4" fill="#fff"/><circle cx="308.352" cy="114.6985" r="4" fill="#fff"/><circle cx="326.2551" cy="114.6985" r="4" fill="#fff"/><circle cx="344.1581" cy="114.6985" r="4" fill="#fff"/><circle cx="362.0612" cy="114.6985" r="4" fill="#fff"/><circle cx="379.9643" cy="114.6985" r="4" fill="#fff"/><circle cx="200.9337" cy="132.6016" r="4" fill="#fff"/><circle cx="218.8367" cy="132.6016" r="4" fill="#fff"/><circle cx="236.7398" cy="132.6016" r="4" fill="#fff"/><circle cx="254.6428" cy="132.6016" r="4" fill="#fff"/><circle cx="272.5459" cy="132.6016" r="4" fill="#fff"/><circle cx="290.449" cy="132.6016" r="4" fill="#fff"/><circle cx="308.352" cy="132.6016" r="4" fill="#fff"/><circle cx="326.2551" cy="132.6016" r="4" fill="#fff"/><circle cx="344.1581" cy="132.6016" r="4" fill="#fff"/><circle cx="362.0612" cy="132.6016" r="4" fill="#fff"/><circle cx="379.9643" cy="132.6016" r="4" fill="#fff"/><circle cx="200.9337" cy="150.5046" r="4" fill="#fff"/><circle cx="218.8367" cy="150.5046" r="4" fill="#fff"/><circle cx="236.7398" cy="150.5046" r="4" fill="#fff"/><circle cx="254.6428" cy="150.5046" r="4" fill="#fff"/><circle cx="272.5459" cy="150.5046" r="4" fill="#fff"/><circle cx="290.449" cy="150.5046" r="4" fill="#fff"/><circle cx="308.352" cy="150.5046" r="4" fill="#fff"/><circle cx="326.2551" cy="150.5046" r="4" fill="#fff"/><circle cx="344.1581" cy="150.5046" r="4" fill="#fff"/><circle cx="362.0612" cy="150.5046" r="4" fill="#fff"/><circle cx="379.9643" cy="150.5046" r="4" fill="#fff"/><circle cx="200.9337" cy="168.4077" r="4" fill="#fff"/><circle cx="218.8367" cy="168.4077" r="4" fill="#fff"/><circle cx="236.7398" cy="168.4077" r="4" fill="#fff"/><circle cx="254.6428" cy="168.4077" r="4" fill="#fff"/><circle cx="272.5459" cy="168.4077" r="4" fill="#fff"/><circle cx="290.449" cy="168.4077" r="4" fill="#fff"/><circle cx="308.352" cy="168.4077" r="4" fill="#fff"/><circle cx="326.2551" cy="168.4077" r="4" fill="#fff"/><circle cx="344.1581" cy="168.4077" r="4" fill="#fff"/><circle cx="362.0612" cy="168.4077" r="4" fill="#fff"/><circle cx="379.9643" cy="168.4077" r="4" fill="#fff"/><circle cx="200.9337" cy="186.3107" r="4" fill="#fff"/><circle cx="218.8367" cy="186.3107" r="4" fill="#fff"/><circle cx="236.7398" cy="186.3107" r="4" fill="#fff"/><circle cx="254.6428" cy="186.3107" r="4" fill="#fff"/><circle cx="272.5459" cy="186.3107" r="4" fill="#fff"/><circle cx="290.449" cy="186.3107" r="4" fill="#fff"/><circle cx="308.352" cy="186.3107" r="4" fill="#fff"/><circle cx="326.2551" cy="186.3107" r="4" fill="#fff"/><circle cx="344.1581" cy="186.3107" r="4" fill="#fff"/><circle cx="362.0612" cy="186.3107" r="4" fill="#fff"/><circle cx="379.9643" cy="186.3107" r="4" fill="#fff"/><circle cx="200.9337" cy="204.2138" r="4" fill="#fff"/><circle cx="218.8367" cy="204.2138" r="4" fill="#fff"/><circle cx="236.7398" cy="204.2138" r="4" fill="#fff"/><circle cx="254.6428" cy="204.2138" r="4" fill="#fff"/><circle cx="272.5459" cy="204.2138" r="4" fill="#fff"/><circle cx="290.449" cy="204.2138" r="4" fill="#fff"/><circle cx="308.352" cy="204.2138" r="4" fill="#fff"/><circle cx="326.2551" cy="204.2138" r="4" fill="#fff"/><circle cx="344.1581" cy="204.2138" r="4" fill="#fff"/><circle cx="362.0612" cy="204.2138" r="4" fill="#fff"/><circle cx="379.9643" cy="204.2138" r="4" fill="#fff"/><circle cx="200.9337" cy="222.1169" r="4" fill="#fff"/><circle cx="218.8367" cy="222.1169" r="4" fill="#fff"/><circle cx="236.7398" cy="222.1169" r="4" fill="#fff"/><circle cx="254.6428" cy="222.1169" r="4" fill="#fff"/><circle cx="272.5459" cy="222.1169" r="4" fill="#fff"/><circle cx="290.449" cy="222.1169" r="4" fill="#fff"/><circle cx="308.352" cy="222.1169" r="4" fill="#fff"/><circle cx="326.2551" cy="222.1169" r="4" fill="#fff"/><circle cx="344.1581" cy="222.1169" r="4" fill="#fff"/><circle cx="362.0612" cy="222.1169" r="4" fill="#fff"/><circle cx="379.9643" cy="222.1169" r="4" fill="#fff"/><circle cx="200.9337" cy="240.0199" r="4" fill="#fff"/><circle cx="218.8367" cy="240.0199" r="4" fill="#fff"/><circle cx="236.7398" cy="240.0199" r="4" fill="#fff"/><circle cx="254.6428" cy="240.0199" r="4" fill="#fff"/><circle cx="272.5459" cy="240.0199" r="4" fill="#fff"/><circle cx="290.449" cy="240.0199" r="4" fill="#fff"/><circle cx="308.352" cy="240.0199" r="4" fill="#fff"/><circle cx="326.2551" cy="240.0199" r="4" fill="#fff"/><circle cx="344.1581" cy="240.0199" r="4" fill="#fff"/><circle cx="362.0612" cy="240.0199" r="4" fill="#fff"/><circle cx="379.9643" cy="240.0199" r="4" fill="#fff"/><circle cx="200.9337" cy="257.923" r="4" fill="#fff"/><circle cx="218.8367" cy="257.923" r="4" fill="#fff"/><circle cx="236.7398" cy="257.923" r="4" fill="#fff"/><circle cx="254.6428" cy="257.923" r="4" fill="#fff"/><circle cx="272.5459" cy="257.923" r="4" fill="#fff"/><circle cx="290.449" cy="257.923" r="4" fill="#fff"/><circle cx="308.352" cy="257.923" r="4" fill="#fff"/><circle cx="326.2551" cy="257.923" r="4" fill="#fff"/><circle cx="344.1581" cy="257.923" r="4" fill="#fff"/><circle cx="362.0612" cy="257.923" r="4" fill="#fff"/><circle cx="379.9643" cy="257.923" r="4" fill="#fff"/><circle cx="200.9337" cy="275.826" r="4" fill="#fff"/><circle cx="218.8367" cy="275.826" r="4" fill="#fff"/><circle cx="236.7398" cy="275.826" r="4" fill="#fff"/><circle cx="254.6428" cy="275.826" r="4" fill="#fff"/><circle cx="272.5459" cy="275.826" r="4" fill="#fff"/><circle cx="290.449" cy="275.826" r="4" fill="#fff"/><circle cx="308.352" cy="275.826" r="4" fill="#fff"/><circle cx="326.2551" cy="275.826" r="4" fill="#fff"/><circle cx="344.1581" cy="275.826" r="4" fill="#fff"/><circle cx="362.0612" cy="275.826" r="4" fill="#fff"/><circle cx="379.9643" cy="275.826" r="4" fill="#fff"/><circle cx="4" cy="293.7291" r="4" fill="#fff"/><circle cx="21.9031" cy="293.7291" r="4" fill="#fff"/><circle cx="39.8061" cy="293.7291" r="4" fill="#fff"/><circle cx="57.7092" cy="293.7291" r="4" fill="#fff"/><circle cx="75.6122" cy="293.7291" r="4" fill="#fff"/><circle cx="93.5153" cy="293.7291" r="4" fill="#fff"/><circle cx="111.4184" cy="293.7291" r="4" fill="#fff"/><circle cx="129.3214" cy="293.7291" r="4" fill="#fff"/><circle cx="147.2245" cy="293.7291" r="4" fill="#fff"/><circle cx="165.1275" cy="293.7291" r="4" fill="#fff"/><circle cx="183.0306" cy="293.7291" r="4" fill="#fff"/><circle cx="4" cy="311.6322" r="4" fill="#fff"/><circle cx="21.9031" cy="311.6322" r="4" fill="#fff"/><circle cx="39.8061" cy="311.6322" r="4" fill="#fff"/><circle cx="57.7092" cy="311.6322" r="4" fill="#fff"/><circle cx="75.6122" cy="311.6322" r="4" fill="#fff"/><circle cx="93.5153" cy="311.6322" r="4" fill="#fff"/><circle cx="111.4184" cy="311.6322" r="4" fill="#fff"/><circle cx="129.3214" cy="311.6322" r="4" fill="#fff"/><circle cx="147.2245" cy="311.6322" r="4" fill="#fff"/><circle cx="165.1275" cy="311.6322" r="4" fill="#fff"/><circle cx="183.0306" cy="311.6322" r="4" fill="#fff"/><circle cx="4" cy="329.5352" r="4" fill="#fff"/><circle cx="21.9031" cy="329.5352" r="4" fill="#fff"/><circle cx="39.8061" cy="329.5352" r="4" fill="#fff"/><circle cx="57.7092" cy="329.5352" r="4" fill="#fff"/><circle cx="75.6122" cy="329.5352" r="4" fill="#fff"/><circle cx="93.5153" cy="329.5352" r="4" fill="#fff"/><circle cx="111.4184" cy="329.5352" r="4" fill="#fff"/><circle cx="129.3214" cy="329.5352" r="4" fill="#fff"/><circle cx="147.2245" cy="329.5352" r="4" fill="#fff"/><circle cx="165.1275" cy="329.5352" r="4" fill="#fff"/><circle cx="183.0306" cy="329.5352" r="4" fill="#fff"/><circle cx="4" cy="347.4383" r="4" fill="#fff"/><circle cx="21.9031" cy="347.4383" r="4" fill="#fff"/><circle cx="39.8061" cy="347.4383" r="4" fill="#fff"/><circle cx="57.7092" cy="347.4383" r="4" fill="#fff"/><circle cx="75.6122" cy="347.4383" r="4" fill="#fff"/><circle cx="93.5153" cy="347.4383" r="4" fill="#fff"/><circle cx="111.4184" cy="347.4383" r="4" fill="#fff"/><circle cx="129.3214" cy="347.4383" r="4" fill="#fff"/><circle cx="147.2245" cy="347.4383" r="4" fill="#fff"/><circle cx="165.1275" cy="347.4383" r="4" fill="#fff"/><circle cx="183.0306" cy="347.4383" r="4" fill="#fff"/><circle cx="4" cy="365.3413" r="4" fill="#fff"/><circle cx="21.9031" cy="365.3413" r="4" fill="#fff"/><circle cx="39.8061" cy="365.3413" r="4" fill="#fff"/><circle cx="57.7092" cy="365.3413" r="4" fill="#fff"/><circle cx="75.6122" cy="365.3413" r="4" fill="#fff"/><circle cx="93.5153" cy="365.3413" r="4" fill="#fff"/><circle cx="111.4184" cy="365.3413" r="4" fill="#fff"/><circle cx="129.3214" cy="365.3413" r="4" fill="#fff"/><circle cx="147.2245" cy="365.3413" r="4" fill="#fff"/><circle cx="165.1275" cy="365.3413" r="4" fill="#fff"/><circle cx="183.0306" cy="365.3413" r="4" fill="#fff"/><circle cx="4" cy="383.2444" r="4" fill="#fff"/><circle cx="21.9031" cy="383.2444" r="4" fill="#fff"/><circle cx="39.8061" cy="383.2444" r="4" fill="#fff"/><circle cx="57.7092" cy="383.2444" r="4" fill="#fff"/><circle cx="75.6122" cy="383.2444" r="4" fill="#fff"/><circle cx="93.5153" cy="383.2444" r="4" fill="#fff"/><circle cx="111.4184" cy="383.2444" r="4" fill="#fff"/><circle cx="129.3214" cy="383.2444" r="4" fill="#fff"/><circle cx="147.2245" cy="383.2444" r="4" fill="#fff"/><circle cx="165.1275" cy="383.2444" r="4" fill="#fff"/><circle cx="183.0306" cy="383.2444" r="4" fill="#fff"/><circle cx="4" cy="401.1475" r="4" fill="#fff"/><circle cx="21.9031" cy="401.1475" r="4" fill="#fff"/><circle cx="39.8061" cy="401.1475" r="4" fill="#fff"/><circle cx="57.7092" cy="401.1475" r="4" fill="#fff"/><circle cx="75.6122" cy="401.1475" r="4" fill="#fff"/><circle cx="93.5153" cy="401.1475" r="4" fill="#fff"/><circle cx="111.4184" cy="401.1475" r="4" fill="#fff"/><circle cx="129.3214" cy="401.1475" r="4" fill="#fff"/><circle cx="147.2245" cy="401.1475" r="4" fill="#fff"/><circle cx="165.1275" cy="401.1475" r="4" fill="#fff"/><circle cx="183.0306" cy="401.1475" r="4" fill="#fff"/><circle cx="4" cy="419.0505" r="4" fill="#fff"/><circle cx="21.9031" cy="419.0505" r="4" fill="#fff"/><circle cx="39.8061" cy="419.0505" r="4" fill="#fff"/><circle cx="57.7092" cy="419.0505" r="4" fill="#fff"/><circle cx="75.6122" cy="419.0505" r="4" fill="#fff"/><circle cx="93.5153" cy="419.0505" r="4" fill="#fff"/><circle cx="111.4184" cy="419.0505" r="4" fill="#fff"/><circle cx="129.3214" cy="419.0505" r="4" fill="#fff"/><circle cx="147.2245" cy="419.0505" r="4" fill="#fff"/><circle cx="165.1275" cy="419.0505" r="4" fill="#fff"/><circle cx="183.0306" cy="419.0505" r="4" fill="#fff"/><circle cx="4" cy="436.9536" r="4" fill="#fff"/><circle cx="21.9031" cy="436.9536" r="4" fill="#fff"/><circle cx="39.8061" cy="436.9536" r="4" fill="#fff"/><circle cx="57.7092" cy="436.9536" r="4" fill="#fff"/><circle cx="75.6122" cy="436.9536" r="4" fill="#fff"/><circle cx="93.5153" cy="436.9536" r="4" fill="#fff"/><circle cx="111.4184" cy="436.9536" r="4" fill="#fff"/><circle cx="129.3214" cy="436.9536" r="4" fill="#fff"/><circle cx="147.2245" cy="436.9536" r="4" fill="#fff"/><circle cx="165.1275" cy="436.9536" r="4" fill="#fff"/><circle cx="183.0306" cy="436.9536" r="4" fill="#fff"/><circle cx="4" cy="454.8566" r="4" fill="#fff"/><circle cx="21.9031" cy="454.8566" r="4" fill="#fff"/><circle cx="39.8061" cy="454.8566" r="4" fill="#fff"/><circle cx="57.7092" cy="454.8566" r="4" fill="#fff"/><circle cx="75.6122" cy="454.8566" r="4" fill="#fff"/><circle cx="93.5153" cy="454.8566" r="4" fill="#fff"/><circle cx="111.4184" cy="454.8566" r="4" fill="#fff"/><circle cx="129.3214" cy="454.8566" r="4" fill="#fff"/><circle cx="147.2245" cy="454.8566" r="4" fill="#fff"/><circle cx="165.1275" cy="454.8566" r="4" fill="#fff"/><circle cx="183.0306" cy="454.8566" r="4" fill="#fff"/><circle cx="4" cy="472.7597" r="4" fill="#fff"/><circle cx="21.9031" cy="472.7597" r="4" fill="#fff"/><circle cx="39.8061" cy="472.7597" r="4" fill="#fff"/><circle cx="57.7092" cy="472.7597" r="4" fill="#fff"/><circle cx="75.6122" cy="472.7597" r="4" fill="#fff"/><circle cx="93.5153" cy="472.7597" r="4" fill="#fff"/><circle cx="111.4184" cy="472.7597" r="4" fill="#fff"/><circle cx="129.3214" cy="472.7597" r="4" fill="#fff"/><circle cx="147.2245" cy="472.7597" r="4" fill="#fff"/><circle cx="165.1275" cy="472.7597" r="4" fill="#fff"/><circle cx="183.0306" cy="472.7597" r="4" fill="#fff"/><circle cx="200.9337" cy="293.7291" r="4" fill="#fff"/><circle cx="218.8367" cy="293.7291" r="4" fill="#fff"/><circle cx="236.7398" cy="293.7291" r="4" fill="#fff"/><circle cx="254.6428" cy="293.7291" r="4" fill="#fff"/><circle cx="272.5459" cy="293.7291" r="4" fill="#fff"/><circle cx="290.449" cy="293.7291" r="4" fill="#fff"/><circle cx="308.352" cy="293.7291" r="4" fill="#fff"/><circle cx="326.2551" cy="293.7291" r="4" fill="#fff"/><circle cx="344.1581" cy="293.7291" r="4" fill="#fff"/><circle cx="362.0612" cy="293.7291" r="4" fill="#fff"/><circle cx="379.9643" cy="293.7291" r="4" fill="#fff"/><circle cx="200.9337" cy="311.6322" r="4" fill="#fff"/><circle cx="218.8367" cy="311.6322" r="4" fill="#fff"/><circle cx="236.7398" cy="311.6322" r="4" fill="#fff"/><circle cx="254.6428" cy="311.6322" r="4" fill="#fff"/><circle cx="272.5459" cy="311.6322" r="4" fill="#fff"/><circle cx="290.449" cy="311.6322" r="4" fill="#fff"/><circle cx="308.352" cy="311.6322" r="4" fill="#fff"/><circle cx="326.2551" cy="311.6322" r="4" fill="#fff"/><circle cx="344.1581" cy="311.6322" r="4" fill="#fff"/><circle cx="362.0612" cy="311.6322" r="4" fill="#fff"/><circle cx="379.9643" cy="311.6322" r="4" fill="#fff"/><circle cx="200.9337" cy="329.5352" r="4" fill="#fff"/><circle cx="218.8367" cy="329.5352" r="4" fill="#fff"/><circle cx="236.7398" cy="329.5352" r="4" fill="#fff"/><circle cx="254.6428" cy="329.5352" r="4" fill="#fff"/><circle cx="272.5459" cy="329.5352" r="4" fill="#fff"/><circle cx="290.449" cy="329.5352" r="4" fill="#fff"/><circle cx="308.352" cy="329.5352" r="4" fill="#fff"/><circle cx="326.2551" cy="329.5352" r="4" fill="#fff"/><circle cx="344.1581" cy="329.5352" r="4" fill="#fff"/><circle cx="362.0612" cy="329.5352" r="4" fill="#fff"/><circle cx="379.9643" cy="329.5352" r="4" fill="#fff"/><circle cx="200.9337" cy="347.4383" r="4" fill="#fff"/><circle cx="218.8367" cy="347.4383" r="4" fill="#fff"/><circle cx="236.7398" cy="347.4383" r="4" fill="#fff"/><circle cx="254.6428" cy="347.4383" r="4" fill="#fff"/><circle cx="272.5459" cy="347.4383" r="4" fill="#fff"/><circle cx="290.449" cy="347.4383" r="4" fill="#fff"/><circle cx="308.352" cy="347.4383" r="4" fill="#fff"/><circle cx="326.2551" cy="347.4383" r="4" fill="#fff"/><circle cx="344.1581" cy="347.4383" r="4" fill="#fff"/><circle cx="362.0612" cy="347.4383" r="4" fill="#fff"/><circle cx="379.9643" cy="347.4383" r="4" fill="#fff"/><circle cx="200.9337" cy="365.3413" r="4" fill="#fff"/><circle cx="218.8367" cy="365.3413" r="4" fill="#fff"/><circle cx="236.7398" cy="365.3413" r="4" fill="#fff"/><circle cx="254.6428" cy="365.3413" r="4" fill="#fff"/><circle cx="272.5459" cy="365.3413" r="4" fill="#fff"/><circle cx="290.449" cy="365.3413" r="4" fill="#fff"/><circle cx="308.352" cy="365.3413" r="4" fill="#fff"/><circle cx="326.2551" cy="365.3413" r="4" fill="#fff"/><circle cx="344.1581" cy="365.3413" r="4" fill="#fff"/><circle cx="362.0612" cy="365.3413" r="4" fill="#fff"/><circle cx="379.9643" cy="365.3413" r="4" fill="#fff"/><circle cx="200.9337" cy="383.2444" r="4" fill="#fff"/><circle cx="218.8367" cy="383.2444" r="4" fill="#fff"/><circle cx="236.7398" cy="383.2444" r="4" fill="#fff"/><circle cx="254.6428" cy="383.2444" r="4" fill="#fff"/><circle cx="272.5459" cy="383.2444" r="4" fill="#fff"/><circle cx="290.449" cy="383.2444" r="4" fill="#fff"/><circle cx="308.352" cy="383.2444" r="4" fill="#fff"/><circle cx="326.2551" cy="383.2444" r="4" fill="#fff"/><circle cx="344.1581" cy="383.2444" r="4" fill="#fff"/><circle cx="362.0612" cy="383.2444" r="4" fill="#fff"/><circle cx="379.9643" cy="383.2444" r="4" fill="#fff"/><circle cx="200.9337" cy="401.1475" r="4" fill="#fff"/><circle cx="218.8367" cy="401.1475" r="4" fill="#fff"/><circle cx="236.7398" cy="401.1475" r="4" fill="#fff"/><circle cx="254.6428" cy="401.1475" r="4" fill="#fff"/><circle cx="272.5459" cy="401.1475" r="4" fill="#fff"/><circle cx="290.449" cy="401.1475" r="4" fill="#fff"/><circle cx="308.352" cy="401.1475" r="4" fill="#fff"/><circle cx="326.2551" cy="401.1475" r="4" fill="#fff"/><circle cx="344.1581" cy="401.1475" r="4" fill="#fff"/><circle cx="362.0612" cy="401.1475" r="4" fill="#fff"/><circle cx="379.9643" cy="401.1475" r="4" fill="#fff"/><circle cx="200.9337" cy="419.0505" r="4" fill="#fff"/><circle cx="218.8367" cy="419.0505" r="4" fill="#fff"/><circle cx="236.7398" cy="419.0505" r="4" fill="#fff"/><circle cx="254.6428" cy="419.0505" r="4" fill="#fff"/><circle cx="272.5459" cy="419.0505" r="4" fill="#fff"/><circle cx="290.449" cy="419.0505" r="4" fill="#fff"/><circle cx="308.352" cy="419.0505" r="4" fill="#fff"/><circle cx="326.2551" cy="419.0505" r="4" fill="#fff"/><circle cx="344.1581" cy="419.0505" r="4" fill="#fff"/><circle cx="362.0612" cy="419.0505" r="4" fill="#fff"/><circle cx="379.9643" cy="419.0505" r="4" fill="#fff"/><circle cx="200.9337" cy="436.9536" r="4" fill="#fff"/><circle cx="218.8367" cy="436.9536" r="4" fill="#fff"/><circle cx="236.7398" cy="436.9536" r="4" fill="#fff"/><circle cx="254.6428" cy="436.9536" r="4" fill="#fff"/><circle cx="272.5459" cy="436.9536" r="4" fill="#fff"/><circle cx="290.449" cy="436.9536" r="4" fill="#fff"/><circle cx="308.352" cy="436.9536" r="4" fill="#fff"/><circle cx="326.2551" cy="436.9536" r="4" fill="#fff"/><circle cx="344.1581" cy="436.9536" r="4" fill="#fff"/><circle cx="362.0612" cy="436.9536" r="4" fill="#fff"/><circle cx="379.9643" cy="436.9536" r="4" fill="#fff"/><circle cx="200.9337" cy="454.8566" r="4" fill="#fff"/><circle cx="218.8367" cy="454.8566" r="4" fill="#fff"/><circle cx="236.7398" cy="454.8566" r="4" fill="#fff"/><circle cx="254.6428" cy="454.8566" r="4" fill="#fff"/><circle cx="272.5459" cy="454.8566" r="4" fill="#fff"/><circle cx="290.449" cy="454.8566" r="4" fill="#fff"/><circle cx="308.352" cy="454.8566" r="4" fill="#fff"/><circle cx="326.2551" cy="454.8566" r="4" fill="#fff"/><circle cx="344.1581" cy="454.8566" r="4" fill="#fff"/><circle cx="362.0612" cy="454.8566" r="4" fill="#fff"/><circle cx="379.9643" cy="454.8566" r="4" fill="#fff"/><circle cx="200.9337" cy="472.7597" r="4" fill="#fff"/><circle cx="218.8367" cy="472.7597" r="4" fill="#fff"/><circle cx="236.7398" cy="472.7597" r="4" fill="#fff"/><circle cx="254.6428" cy="472.7597" r="4" fill="#fff"/><circle cx="272.5459" cy="472.7597" r="4" fill="#fff"/><circle cx="290.449" cy="472.7597" r="4" fill="#fff"/><circle cx="308.352" cy="472.7597" r="4" fill="#fff"/><circle cx="326.2551" cy="472.7597" r="4" fill="#fff"/><circle cx="344.1581" cy="472.7597" r="4" fill="#fff"/><circle cx="362.0612" cy="472.7597" r="4" fill="#fff"/><circle cx="379.9643" cy="472.7597" r="4" fill="#fff"/></g><circle cx="289.7548" cy="184.9966" r="179.9966" fill="none" stroke="#fff" stroke-miterlimit="10" stroke-width="10"/><circle cx="474.7515" cy="223.1821" r="15" fill="none" stroke="#fff" stroke-miterlimit="10" stroke-width="10"/></svg>