<svg id="home" xmlns="http://www.w3.org/2000/svg" xmlns:xlink="http://www.w3.org/1999/xlink" viewBox="0 0 466.8719 454.8052"><defs><clipPath id="clip-path" transform="translate(-6842.974 -2647.0915)"><circle cx="7078.2654" cy="2872.5332" r="150" transform="translate(41.9883 5846.435) rotate(-45)" fill="none"/></clipPath></defs><title>rounds-pattern-3</title><circle cx="395.2285" cy="120.8405" r="71.0083" fill="#d8c7ad"/><path d="M6865.974,2857.5332a15,15,0,1,1-15,15,15,15,0,0,1,15-15m0-8a23,23,0,1,0,23,23,23.026,23.026,0,0,0-23-23h0Z" transform="translate(-6842.974 -2647.0915)" fill="#fff"/><g clip-path="url(#clip-path)"><line x1="14.8951" y1="247.3478" x2="259.4145" y2="2.8284" fill="none" stroke="#fff" stroke-miterlimit="10" stroke-width="8"/><line x1="28.537" y1="260.9898" x2="273.0564" y2="16.4704" fill="none" stroke="#fff" stroke-miterlimit="10" stroke-width="8"/><line x1="42.179" y1="274.6317" x2="286.6984" y2="30.1123" fill="none" stroke="#fff" stroke-miterlimit="10" stroke-width="8"/><line x1="55.8209" y1="288.2736" x2="300.3403" y2="43.7542" fill="none" stroke="#fff" stroke-miterlimit="10" stroke-width="8"/><line x1="69.4628" y1="301.9155" x2="313.9822" y2="57.3962" fill="none" stroke="#fff" stroke-miterlimit="10" stroke-width="8"/><line x1="83.1048" y1="315.5575" x2="327.6242" y2="71.0381" fill="none" stroke="#fff" stroke-miterlimit="10" stroke-width="8"/><line x1="96.7467" y1="329.1994" x2="341.2661" y2="84.68" fill="none" stroke="#fff" stroke-miterlimit="10" stroke-width="8"/><line x1="110.3886" y1="342.8413" x2="354.908" y2="98.3219" fill="none" stroke="#fff" stroke-miterlimit="10" stroke-width="8"/><line x1="124.0306" y1="356.4833" x2="368.55" y2="111.9639" fill="none" stroke="#fff" stroke-miterlimit="10" stroke-width="8"/><line x1="137.6725" y1="370.1252" x2="382.1919" y2="125.6058" fill="none" stroke="#fff" stroke-miterlimit="10" stroke-width="8"/><line x1="151.3144" y1="383.7671" x2="395.8338" y2="139.2477" fill="none" stroke="#fff" stroke-miterlimit="10" stroke-width="8"/><line x1="164.9564" y1="397.4091" x2="409.4758" y2="152.8897" fill="none" stroke="#fff" stroke-miterlimit="10" stroke-width="8"/><line x1="178.5983" y1="411.051" x2="423.1177" y2="166.5316" fill="none" stroke="#fff" stroke-miterlimit="10" stroke-width="8"/><line x1="192.2402" y1="424.6929" x2="436.7596" y2="180.1735" fill="none" stroke="#fff" stroke-miterlimit="10" stroke-width="8"/><line x1="205.8822" y1="438.3349" x2="450.4015" y2="193.8155" fill="none" stroke="#fff" stroke-miterlimit="10" stroke-width="8"/><line x1="219.5241" y1="451.9768" x2="464.0435" y2="207.4574" fill="none" stroke="#fff" stroke-miterlimit="10" stroke-width="8"/></g></svg>